<?xml version="1.0" encoding="utf-8"?>
<!-- Generator: Adobe Illustrator 16.0.3, SVG Export Plug-In . SVG Version: 6.00 Build 0)  -->
<!DOCTYPE svg PUBLIC "-//W3C//DTD SVG 1.1//EN" "http://www.w3.org/Graphics/SVG/1.1/DTD/svg11.dtd">
<svg version="1.1" xmlns="http://www.w3.org/2000/svg" xmlns:xlink="http://www.w3.org/1999/xlink" x="0px" y="0px" width="140px"
	 height="160px" viewBox="0 0 140 160" enable-background="new 0 0 140 160" xml:space="preserve">
<g id="bg_1_">
	<rect y="0.779" fill="#00A99D" width="140" height="159.221"/>
</g>
<g id="Layer_1">
	<g>
		<line fill="none" x1="74.169" y1="73.75" x2="100.17" y2="117.008"/>
		<circle fill="none" cx="74.168" cy="73.751" r="42.058"/>
		<circle fill="none" cx="74.169" cy="73.75" r="50.47"/>
		<polyline fill="none" points="74.169,73.75 168.545,178.659 74.169,73.75 -20.206,-31.161 74.169,73.75 -30.742,168.126 
			74.169,73.75 179.078,-20.625 74.169,73.75 60.205,129.011 74.169,73.75 88.134,18.489 74.169,73.75 18.908,59.786 74.169,73.75 
			129.43,87.715 74.169,73.75 33.232,136.322 74.169,73.75 115.104,11.179 74.169,73.75 11.597,32.813 74.169,73.75 
			136.741,114.687 74.169,73.75 64.7,145.817 74.169,73.75 83.639,1.684 74.169,73.75 2.103,64.281 74.169,73.75 146.235,83.221 
			74.169,73.75 66.383,280.748 74.169,73.75 81.955,-133.249 74.169,73.75 -132.83,65.964 74.169,73.75 281.167,81.536 
			74.169,73.75 59.094,106.361 74.169,73.75 89.244,41.139 74.169,73.75 41.557,58.676 74.169,73.75 106.781,88.824 74.169,73.75 
			91.372,85.903 74.169,73.75 56.964,61.598 74.169,73.75 62.016,90.955 74.169,73.75 86.322,56.547 74.169,73.75 67.565,289.858 
			74.169,73.75 80.772,-142.358 74.169,73.75 -141.939,67.146 74.169,73.75 290.277,80.354 74.169,73.75 70.071,100.118 
			74.169,73.75 78.268,47.381 74.169,73.75 47.8,69.651 74.169,73.75 100.537,77.849 74.169,73.75 83.282,86.989 74.169,73.75 
			65.056,60.51 74.169,73.75 60.929,82.865 74.169,73.75 87.408,64.636 74.169,73.75 163.946,158.659 74.169,73.75 -15.609,-11.158 
			74.169,73.75 -10.739,163.526 74.169,73.75 159.078,-16.027 74.169,73.75 152.035,171.231 74.169,73.75 -3.698,-23.731 
			74.169,73.75 -23.312,151.617 74.169,73.75 171.649,-4.116 74.169,73.75 68.238,92.544 74.169,73.75 80.099,54.955 74.169,73.75 
			55.374,67.819 74.169,73.75 92.963,79.681 74.169,73.75 108.766,256.799 74.169,73.75 39.571,-109.298 74.169,73.75 
			-108.88,108.349 74.169,73.75 257.216,39.152 74.169,73.75 75.514,135.686 74.169,73.75 72.824,11.814 74.169,73.75 
			12.233,75.095 74.169,73.75 136.104,72.405 		"/>
		
			<radialGradient id="SVGID_1_" cx="74.4424" cy="73.7852" r="100.9409" gradientTransform="matrix(1 -0.0043 0.0043 1 -0.5917 0.2854)" gradientUnits="userSpaceOnUse">
			<stop  offset="0" style="stop-color:#230000"/>
			<stop  offset="0.73" style="stop-color:#93432A"/>
			<stop  offset="1" style="stop-color:#230000"/>
		</radialGradient>
		<circle opacity="0.15" fill="url(#SVGID_1_)" cx="74.168" cy="73.75" r="100.94"/>
		
			<radialGradient id="SVGID_2_" cx="74.4434" cy="73.7856" r="50.4705" gradientTransform="matrix(1 -0.0043 0.0043 1 -0.5917 0.2854)" gradientUnits="userSpaceOnUse">
			<stop  offset="0.15" style="stop-color:#FFFFFF"/>
			<stop  offset="0.2114" style="stop-color:#E2D1D2"/>
			<stop  offset="0.2918" style="stop-color:#BF9A9C"/>
			<stop  offset="0.3613" style="stop-color:#A67276"/>
			<stop  offset="0.4163" style="stop-color:#975A5E"/>
			<stop  offset="0.45" style="stop-color:#915155"/>
			<stop  offset="0.5553" style="stop-color:#6C3638"/>
			<stop  offset="0.6842" style="stop-color:#44191A"/>
			<stop  offset="0.787" style="stop-color:#2C0707"/>
			<stop  offset="0.85" style="stop-color:#230000"/>
			<stop  offset="0.8572" style="stop-color:#270201"/>
			<stop  offset="0.8647" style="stop-color:#340805"/>
			<stop  offset="0.8723" style="stop-color:#48120B"/>
			<stop  offset="0.88" style="stop-color:#652114"/>
			<stop  offset="0.8878" style="stop-color:#8B331F"/>
			<stop  offset="0.8955" style="stop-color:#B8492D"/>
			<stop  offset="0.9" style="stop-color:#D65836"/>
			<stop  offset="0.903" style="stop-color:#C95232"/>
			<stop  offset="0.9146" style="stop-color:#9D3C25"/>
			<stop  offset="0.9267" style="stop-color:#782A1A"/>
			<stop  offset="0.9392" style="stop-color:#591B10"/>
			<stop  offset="0.9523" style="stop-color:#410F09"/>
			<stop  offset="0.9661" style="stop-color:#300604"/>
			<stop  offset="0.9812" style="stop-color:#260201"/>
			<stop  offset="1" style="stop-color:#230000"/>
		</radialGradient>
		<circle opacity="0.5" fill="url(#SVGID_2_)" cx="74.169" cy="73.75" r="50.47"/>
		
			<radialGradient id="SVGID_3_" cx="74.4434" cy="73.7861" r="42.0581" gradientTransform="matrix(1 -0.0043 0.0043 1 -0.5917 0.2854)" gradientUnits="userSpaceOnUse">
			<stop  offset="0.15" style="stop-color:#FFFFFF"/>
			<stop  offset="0.2824" style="stop-color:#C2C2C2"/>
			<stop  offset="0.4253" style="stop-color:#888888"/>
			<stop  offset="0.5636" style="stop-color:#575757"/>
			<stop  offset="0.6936" style="stop-color:#313131"/>
			<stop  offset="0.8134" style="stop-color:#161616"/>
			<stop  offset="0.9192" style="stop-color:#060606"/>
			<stop  offset="1" style="stop-color:#000000"/>
		</radialGradient>
		<circle fill="url(#SVGID_3_)" cx="74.168" cy="73.751" r="42.058"/>
		<polyline opacity="0.03" fill="none" stroke="#FFFFFF" stroke-width="2" stroke-miterlimit="10" points="74.169,73.75 
			168.545,178.659 74.169,73.75 -20.206,-31.161 74.169,73.75 -30.742,168.126 74.169,73.75 179.078,-20.625 74.169,73.75 
			60.205,129.011 74.169,73.75 88.134,18.489 74.169,73.75 18.908,59.786 74.169,73.75 129.43,87.715 74.169,73.75 33.232,136.322 
			74.169,73.75 115.104,11.179 74.169,73.75 11.597,32.813 74.169,73.75 136.741,114.687 74.169,73.75 64.7,145.817 74.169,73.75 
			83.639,1.684 74.169,73.75 2.103,64.281 74.169,73.75 146.235,83.221 74.169,73.75 66.383,280.748 74.169,73.75 81.955,-133.249 
			74.169,73.75 -132.83,65.964 74.169,73.75 281.167,81.536 74.169,73.75 59.094,106.361 74.169,73.75 89.244,41.139 74.169,73.75 
			41.557,58.676 74.169,73.75 106.781,88.824 74.169,73.75 91.372,85.903 74.169,73.75 56.964,61.598 74.169,73.75 62.016,90.955 
			74.169,73.75 86.322,56.547 74.169,73.75 67.565,289.858 74.169,73.75 80.772,-142.358 74.169,73.75 -141.939,67.146 
			74.169,73.75 290.277,80.354 74.169,73.75 70.071,100.118 74.169,73.75 78.268,47.381 74.169,73.75 47.8,69.651 74.169,73.75 
			100.537,77.849 74.169,73.75 83.282,86.989 74.169,73.75 65.056,60.51 74.169,73.75 60.929,82.865 74.169,73.75 87.408,64.636 
			74.169,73.75 163.946,158.659 74.169,73.75 -15.609,-11.158 74.169,73.75 -10.739,163.526 74.169,73.75 159.078,-16.027 
			74.169,73.75 152.035,171.231 74.169,73.75 -3.698,-23.731 74.169,73.75 -23.312,151.617 74.169,73.75 171.649,-4.116 
			74.169,73.75 68.238,92.544 74.169,73.75 80.099,54.955 74.169,73.75 55.374,67.819 74.169,73.75 92.963,79.681 74.169,73.75 
			108.766,256.799 74.169,73.75 39.571,-109.298 74.169,73.75 -108.88,108.349 74.169,73.75 257.216,39.152 74.169,73.75 
			75.514,135.686 74.169,73.75 72.824,11.814 74.169,73.75 12.233,75.095 74.169,73.75 136.104,72.405 		"/>
	</g>
	<g id="bg" display="none">
		<rect display="inline" fill="#B20000" width="140" height="160"/>
	</g>
	<g id="angel">
		<path fill="#FFFDEE" d="M86.096,144.594c0,0-9.178-5.853-16.479-7.914c-7.301-2.061-16.678,4.519-16.678,4.519
			s9.029-12.526,7.23-25.474s-3.576-20.978-2.835-25.424c0.741-4.447,6.398-16.061,6.398-16.061s1.161-8.503-0.042-11.08
			c-1.203-2.577-3.35-6.27-3.35-6.27l0.04-2.853l-14.985-5.564l-21.129,9.104L22.83,38.961l41.893,6.333l11.25,0.086l40.903-6.124
			l-1.065,18.319l-18.795-8.933l-16.711,5.154l-0.726,3.264c0,0-0.601,2.576-2.317,4.724c-1.718,2.147-0.687,14.944-0.687,14.944
			s3.842,16.333,4.376,21.889c0.551,5.747,0.792,15.581-1.284,22.258C77.791,126.904,86.096,144.594,86.096,144.594z"/>
		<path fill="#1AE2DD" d="M104.639,116.914c-0.086,10.49-11.01,30.131-9.465,29.822c16.541-7.396,24.985-35.994,24.985-35.994
			s0.616,8.14,1.28,8.443c2.174,0.994,13.221-30.533,13.104-38.263c-0.116-7.728-1.381-25.409-1.381-25.409s3.936,3.453,4.73,2.877
			c3.625-2.62-13.855-28.063-13.855-28.063l7.889,1.302l-7.738-10.424c0,0-13.612-11.451-18.117-9.292
			c-4.502,2.159-2.455,16.717-11.152,24.361s-11.077,7.077-11.077,7.077l31.542-4.801c4.84,2.233-0.66,13.223,0.428,19.024
			c-3.438-4.386-13.508-9.624-20.254-9.828s-16.117,6.65-16.117,6.65l-0.895,6.012c0,0,4.9-3.242,9.723,1.718
			c6.65,4.123,1.873,20.613,1.873,20.613l5.289-1.805c0,0-1.675,12.228-0.437,13.237c1.235,1.011,5.168-3.833,5.168-3.833
			l-4.349,14.688l6.234-0.771c0,0-5.014,12.428-3.363,13.624C100.334,119.079,104.659,114.541,104.639,116.914z"/>
		<path fill="#1AE2DD" d="M35.52,116.914c0.086,10.49,11.088,30.131,9.533,29.822c-16.662-7.396-25.164-35.994-25.164-35.994
			s-0.621,8.14-1.291,8.443C16.409,120.18,5.283,88.652,5.4,80.924c0.116-7.728,1.39-25.409,1.39-25.409s-3.963,3.453-4.766,2.877
			C-1.627,55.774,15.98,30.33,15.98,30.33l-7.945,1.302l7.797-10.424c0,0,13.708-11.451,18.244-9.292
			c4.535,2.159,2.473,16.717,11.234,24.361c8.761,7.644,11.154,7.077,11.154,7.077l-31.768-4.801
			c-4.874,2.233,0.667,13.223-0.43,19.024c3.463-4.386,13.604-9.624,20.398-9.828c6.796-0.204,16.234,6.65,16.234,6.65l0.9,6.012
			c0,0-4.853-3.092-9.791,1.718c-6.699,4.123-1.889,20.613-1.889,20.613l-5.326-1.805c0,0,1.686,12.228,0.439,13.237
			c-1.245,1.013-5.206-3.833-5.206-3.833l4.381,14.688l-6.28-0.772c0,0,5.048,12.427,3.387,13.624
			C39.855,119.079,35.5,114.541,35.52,116.914z"/>
		<polygon fill="#FFC766" points="83.188,39.498 79,40.421 74.169,39.197 65.602,39.133 60.512,40.421 56.842,39.659 65.924,23.168 
			73.592,22.843 		"/>
		<polygon fill="#FFCC99" points="72.749,39.394 70.055,40.357 66.568,39.133 65.924,30.179 70.046,29.277 74.169,30.179 		"/>
		<polygon fill="#FFCC99" points="74.169,51.07 69.656,55.014 66,51.042 66,45.381 67.984,41 72.107,41 74.941,46.186 		"/>
		<polygon fill="#FFCC99" points="23.15,43.019 16.668,41.86 15.98,38.553 23.667,39.541 		"/>
		<polygon fill="#FFCC99" points="123.577,41.645 117.268,43.011 116.173,39.391 124.331,37.852 		"/>
		<path fill="#FFE566" d="M70.055,18.463c5.095,0,10.25-1.37,10.25-3.988c0-5.234-20.498-5.234-20.498,0
			C59.807,17.094,64.96,18.463,70.055,18.463z M70.055,12.009c5.245,0,8.73,1.486,8.73,2.465c0,0.983-3.485,2.467-8.73,2.467
			c-5.248,0-8.729-1.486-8.729-2.467C61.326,13.495,64.807,12.009,70.055,12.009z"/>
		<path d="M36.842,36.471c0.148,0.14,0.337,0.209,0.525,0.209c0.201,0,0.398-0.077,0.552-0.232c0.29-0.305,0.278-0.787-0.026-1.075
			c-2.926-2.798-5.149-6.266-7.003-10.916c-0.159-0.39-0.599-0.578-0.987-0.423c-0.391,0.156-0.582,0.599-0.426,0.989
			C31.415,29.878,33.754,33.517,36.842,36.471z"/>
		<path d="M125.555,31.354c2.148,0.839,4.443,1.351,6.816,1.351c0.29,0,0.554-0.16,0.681-0.421c0.13-0.259,0.099-0.567-0.075-0.799
			c-5.125-6.715-8.396-10.788-16.069-16.422c-4.399-3.225-8.162-4.312-10.894-3.147c-1.435,0.612-3.25,2.166-3.763,6.09
			c-1.267,9.612-3.334,17.06-18.397,25.31c-3.678,0.571-6.814,1.045-8.817,1.313c-1.56-0.393-2.063-2.789-2.132-4.301
			c0.258-0.199,0.5-0.426,0.728-0.677c1.058,0.973,2.491,1.625,4.185,1.827c0.388,0.048,0.787,0.071,1.184,0.071
			c1.912,0,3.792-0.537,4.927-1.447c0.171-0.139,0.276-0.345,0.283-0.564c0.011-0.221-0.08-0.435-0.242-0.585
			c-2.946-2.737-3.729-4.871-5.618-10.022l-0.076-0.203c-2.063-5.627-5.312-6.386-8.213-6.386s-6.149,0.759-8.215,6.386
			l-0.088,0.241c-1.883,5.13-2.663,7.253-5.607,9.984c-0.162,0.151-0.252,0.363-0.244,0.585c0.01,0.22,0.113,0.427,0.287,0.564
			c1.369,1.102,3.836,1.653,6.111,1.376c1.688-0.203,3.129-0.855,4.186-1.827c0.223,0.251,0.467,0.479,0.723,0.677
			c-0.067,1.511-0.572,3.908-2.129,4.301c-2.012-0.271-5.163-0.745-8.85-1.317c-15.062-8.248-17.13-15.696-18.394-25.306
			c-0.513-3.925-2.332-5.476-3.764-6.09c-2.725-1.163-6.494-0.077-10.889,3.147c-7.674,5.631-10.947,9.703-16.074,16.422
			c-0.176,0.23-0.205,0.541-0.076,0.799c0.127,0.261,0.393,0.421,0.681,0.421c2.377,0,4.671-0.512,6.819-1.351
			c-7.391,8.23-12.064,17.629-13.273,26.85c-0.036,0.26,0.068,0.52,0.27,0.686c0.14,0.114,0.311,0.172,0.483,0.172
			c0.083,0,0.161-0.01,0.239-0.037c1.236-0.411,2.708-1.478,4.182-2.896c-5.095,27.551,4.525,55.318,11.43,62.829
			c0.145,0.16,0.35,0.246,0.559,0.246c0.055,0,0.113-0.003,0.172-0.017c0.268-0.065,0.479-0.264,0.557-0.525
			c0.291-0.969,0.561-2.773,0.753-4.957c4.222,14.176,13.827,26.732,26.923,34.928c0.121,0.082,0.26,0.12,0.401,0.12
			c0.212,0,0.417-0.091,0.569-0.259c0.245-0.276,0.256-0.692,0.021-0.98c-6.275-7.756-8.049-15.768-9.759-23.517
			c-0.519-2.354-1.032-4.673-1.665-6.906c1.787,1.569,3.744,2.358,5.925,2.358c0.209,0,0.405-0.085,0.551-0.231
			c0.142-0.149,0.218-0.353,0.21-0.558c-0.259-5.985-2.172-9.704-4.264-13.512c1.309,0.693,2.727,1.052,4.076,1.052
			c0.523,0,1.036-0.05,1.525-0.15c0.346-0.071,0.6-0.366,0.611-0.722c0.098-2.969-0.963-5.375-2.188-8.161
			c-0.514-1.166-1.043-2.394-1.529-3.729c1.009,0.934,2.195,1.625,3.64,2.146c0.085,0.027,0.173,0.044,0.259,0.044
			c0.13,0,0.262-0.03,0.377-0.101c0.193-0.108,0.328-0.301,0.373-0.521c0.541-2.896,0.195-5.27-0.166-7.771
			c-0.221-1.521-0.448-3.164-0.511-5.082c1.392,1.018,2.994,1.392,5.151,1.632c0.027,0.002,0.055,0.002,0.082,0.002
			c0.24,0,0.47-0.113,0.615-0.31c0.158-0.22,0.191-0.509,0.082-0.754c-4.334-9.875-3.148-18.156,3.164-22.146
			c0.005-0.004,0.005-0.01,0.009-0.01c2.79-0.264,5.241,0.159,7.353,0.524l0.238,0.04c0.762,1.586,1.467,3.978,1.467,9.055
			c0,0.584-0.145,1.443-0.295,2.352c-0.176,1.037-0.337,2.094-0.364,3.06c-4.13,5.125-6.23,11.406-6.23,18.674
			c0,3.854,0.685,7.496,1.408,11.355c0.735,3.915,1.497,7.964,1.497,12.313c0,8.408-3.383,18.777-7.381,22.642
			c-0.285,0.276-0.311,0.729-0.059,1.033c0.257,0.309,0.705,0.366,1.023,0.137c4.222-2.976,9.047-4.608,13.597-4.608
			c0.903,0,1.793,0.067,2.638,0.201c4.599,0.721,7.039,2.428,9.402,4.076c2.258,1.578,4.393,3.071,7.996,3.214
			c0.008,0,0.021,0,0.026,0c0.29,0,0.55-0.159,0.683-0.418c0.133-0.266,0.099-0.584-0.09-0.813
			c-5.9-7.322-6.395-14.785-6.395-21.203c0-2.559,0.353-5.133,0.727-7.855c0.643-4.689,1.307-9.546,0.326-15.115
			c-0.732-4.188-1.677-8.174-2.508-11.688c-1.127-4.78-2.104-8.908-2.104-11.662c0-0.777-0.168-2.062-0.352-3.422
			c-0.16-1.217-0.329-2.472-0.329-3.105c0-4.617,0.575-6.876,1.249-8.306c2.213-0.423,4.775-0.869,7.693-0.575
			c0.041,0.045,0.08,0.093,0.134,0.126c6.284,4.003,7.456,12.275,3.132,22.127c-0.107,0.246-0.076,0.535,0.085,0.754
			c0.144,0.194,0.37,0.31,0.608,0.31c0.027,0,0.058,0,0.084-0.002c2.156-0.238,3.762-0.61,5.152-1.632
			c-0.063,1.918-0.289,3.557-0.515,5.078c-0.356,2.51-0.701,4.879-0.161,7.776c0.043,0.222,0.178,0.412,0.37,0.521
			c0.114,0.066,0.248,0.101,0.379,0.101c0.088,0,0.175-0.019,0.259-0.044c1.443-0.521,2.631-1.213,3.639-2.145
			c-0.483,1.334-1.014,2.563-1.526,3.728c-1.228,2.788-2.284,5.192-2.188,8.163c0.016,0.354,0.27,0.648,0.611,0.723
			c0.487,0.1,1.002,0.149,1.526,0.149c1.349,0,2.771-0.354,4.073-1.054c-2.092,3.81-4.004,7.525-4.265,13.514
			c-0.009,0.205,0.068,0.406,0.214,0.559c0.145,0.146,0.342,0.23,0.549,0.23c2.181,0,4.139-0.789,5.926-2.357
			c-0.635,2.232-1.146,4.551-1.666,6.905c-1.715,7.751-3.484,15.763-9.762,23.519c-0.231,0.287-0.225,0.703,0.023,0.979
			c0.148,0.168,0.354,0.259,0.564,0.259c0.143,0,0.281-0.038,0.408-0.114c13.092-8.195,22.698-20.75,26.924-34.933
			c0.188,2.188,0.461,3.99,0.75,4.958c0.08,0.268,0.293,0.464,0.56,0.523c0.055,0.017,0.11,0.02,0.169,0.02
			c0.209,0,0.417-0.085,0.559-0.246c6.903-7.52,16.521-35.283,11.424-62.83c1.477,1.42,2.949,2.487,4.187,2.898
			c0.076,0.028,0.157,0.037,0.237,0.037c0.173,0,0.348-0.058,0.482-0.172c0.202-0.166,0.307-0.426,0.271-0.685
			C137.617,48.982,132.945,39.584,125.555,31.354z M67.295,38.223c-0.129-0.806-0.775-4.92-0.91-6.988
			c1.282-0.212,2.74-0.647,3.67-1.405c0.931,0.758,2.392,1.195,3.673,1.405c-0.137,2.068-0.778,6.182-0.91,6.988
			c-0.737,1.212-2.241,1.704-2.763,1.704C69.531,39.927,68.031,39.435,67.295,38.223z M62.117,39.97
			c-1.502,0.185-3.104-0.058-4.227-0.593c2.644-2.678,3.523-5.078,5.289-9.885l0.089-0.243c1.823-4.971,4.459-5.389,6.786-5.389
			c2.327,0,4.961,0.417,6.786,5.389l0.076,0.204c1.771,4.829,2.654,7.238,5.303,9.923c-1.121,0.536-2.729,0.777-4.225,0.594
			c-1.549-0.186-2.813-0.81-3.637-1.741c0.186-1.17,0.74-4.787,0.879-6.836c0.091,0.003,0.19,0.011,0.271,0.011
			c0.419,0,0.759-0.339,0.759-0.758c0-0.42-0.34-0.76-0.759-0.76c-1.657,0-4.002-0.612-4.692-1.399V26.67
			c0-0.419-0.339-0.76-0.759-0.76c-0.421,0-0.762,0.341-0.762,0.76v1.817c-0.691,0.787-3.037,1.399-4.691,1.399
			c-0.42,0-0.762,0.34-0.762,0.76c0,0.419,0.34,0.758,0.762,0.758c0.08,0,0.183-0.007,0.271-0.011
			c0.139,2.049,0.693,5.664,0.881,6.836C64.928,39.16,63.662,39.784,62.117,39.97z M68.667,41.147c0.521,0.197,1.013,0.3,1.388,0.3
			c0.373,0,0.865-0.104,1.388-0.303c0.221,2.003,1.023,4.046,2.722,4.779c-0.208,3.907-2.653,6.394-4.109,7.521
			c-1.454-1.126-3.9-3.615-4.107-7.521C67.642,45.191,68.449,43.147,68.667,41.147z M40.781,65.56
			c-0.313,0.279-0.338,0.761-0.057,1.074c0.151,0.165,0.358,0.25,0.563,0.25c0.184,0,0.364-0.063,0.513-0.196
			c3.427-3.082,6.555-4.71,9.395-5.518c-4.668,4.621-5.389,12.155-1.889,20.916c-1.715-0.287-2.92-0.813-4.017-2.008
			c0.038-1.022,0.13-2.124,0.3-3.325c0.059-0.416-0.23-0.799-0.646-0.863c-0.41-0.043-0.801,0.229-0.861,0.648
			c-0.193,1.374-0.287,2.608-0.319,3.755c-0.004,0.022-0.002,0.042-0.002,0.064c-0.077,2.819,0.236,5.054,0.529,7.083
			c0.315,2.19,0.595,4.117,0.317,6.356c-2.021-0.921-3.365-2.321-4.498-4.639c-0.391-1.991-0.605-4.257-0.51-6.942
			c0.014-0.419-0.314-0.771-0.734-0.785c-0.469,0.002-0.77,0.313-0.787,0.731c-0.259,7.368,1.756,11.938,3.371,15.612
			c1.059,2.401,1.984,4.508,2.063,6.867c-2.617,0.239-5.832-1.146-7.276-4.404c-0.786-1.657-1.529-3.489-2.168-5.646
			c-0.117-0.405-0.54-0.635-0.941-0.516c-0.404,0.116-0.634,0.542-0.517,0.942c0.652,2.207,1.426,4.109,2.23,5.813
			c0,0.003,0,0.006,0.002,0.007c0.008,0.02,0.018,0.032,0.023,0.049c0.77,1.618,1.564,3.066,2.311,4.418
			c2.112,3.823,3.947,7.15,4.34,12.571c-2.361-0.26-4.379-1.683-6.295-4.403c-1.218-3.222-2.871-6.213-5.422-8.844
			c-0.295-0.303-0.775-0.311-1.075-0.018c-0.303,0.291-0.312,0.772-0.019,1.074c4.869,5.02,6.329,11.629,7.875,18.627
			c1.427,6.465,3.016,13.664,7.521,20.642c-12.277-8.89-20.893-21.863-23.897-36.174c-0.006-0.03-0.026-0.056-0.034-0.083
			c0.092-4.521-0.201-9.334-1.234-11.994c-0.149-0.393-0.596-0.587-0.984-0.434c-0.392,0.149-0.584,0.594-0.432,0.984
			c1.655,4.262,1.258,14.902,0.494,19.49c-6.811-8.979-15.369-36.188-9.596-62.74c2.188-2.593,4.133-5.727,4.961-8.373
			c0.126-0.4-0.096-0.826-0.498-0.951c-0.398-0.127-0.828,0.096-0.953,0.497c-1.369,4.373-5.878,9.846-8.944,11.797
			c2.188-12.88,10.618-22.782,15.629-27.68c3.203-2.007,5.871-4.614,7.685-7.019c0.253-0.334,0.187-0.813-0.15-1.066
			c-0.337-0.249-0.813-0.185-1.064,0.15c-3.396,4.511-9.441,9.054-15.76,9.737c4.494-5.847,7.766-9.675,14.761-14.809
			c3.882-2.847,7.219-3.899,9.391-2.976c1.938,0.829,2.624,3.115,2.856,4.888c1.4,10.653,4.281,17.37,15.773,24.463
			c-12.355-1.953-27.719-4.496-27.939-4.534c-0.309-0.049-0.596,0.082-0.762,0.334c-0.063,0.093-0.096,0.186-0.152,0.28
			l-7.103-1.181c-0.411-0.065-0.806,0.213-0.873,0.625c-0.204,1.224,0.081,2.455,0.8,3.464c0.724,1.009,1.793,1.679,3.017,1.883
			l3.062,0.51c0.138,1.411,0.498,2.818,0.868,4.203c0.774,2.89,1.575,5.876,0.312,9.015c-0.137,0.338-0.014,0.723,0.293,0.923
			c0.303,0.197,0.707,0.15,0.961-0.112c6.85-7.128,13.996-9.724,23.916-8.679c7.385,0.782,10.861,4.176,11.658,5.071
			c-0.306,2.554,0.209,3.764,0.883,4.959C56.193,58.625,49.203,57.988,40.781,65.56z M19.342,42.033
			c-0.822-0.137-1.541-0.585-2.027-1.265c-0.334-0.469-0.527-1.005-0.572-1.565l5.833,0.97c-0.276,0.773-0.423,1.546-0.462,2.321
			L19.342,42.033z M77.967,87.882c0.828,3.491,1.764,7.453,2.489,11.601c0.94,5.342,0.29,10.072-0.335,14.649
			c-0.38,2.775-0.736,5.397-0.736,8.06c0,6.701,0.713,13.824,5.637,20.72c-2.183-0.44-3.729-1.524-5.47-2.739
			c-2.387-1.669-5.091-3.561-10.039-4.333c-0.921-0.146-1.886-0.221-2.872-0.221c-3.642,0-7.441,0.979-11,2.79
			c3.101-5.152,5.337-13.363,5.337-20.471c0-4.492-0.773-8.611-1.521-12.596c-0.712-3.785-1.385-7.359-1.385-11.074
			c0-6.971,1.905-12.742,5.813-17.638h11.958C75.993,79.509,76.915,83.416,77.967,87.882z M75.143,69.344
			c0,0.733,0.166,1.983,0.344,3.308c0.117,0.877,0.232,1.766,0.297,2.458H64.347c0.06-0.735,0.172-1.528,0.304-2.324
			c0.163-0.974,0.319-1.894,0.319-2.604c0-7.028-1.366-9.377-2.362-11.097c-0.759-1.305-1.258-2.166-0.893-4.746
			c0.027-0.196-0.025-0.396-0.141-0.555c-0.146-0.202-3.703-4.931-12.91-5.903c-9.496-1-16.591,1.174-23.228,7.237
			c0.306-2.594-0.349-5.04-0.944-7.263c-0.799-2.991-1.496-5.593-0.068-8.14c4.049,0.669,31.098,5.131,39.982,6.359
			c0.285,4.962,3.707,7.888,5.213,8.94c0.262,0.179,0.61,0.179,0.869,0c1.508-1.054,4.933-3.975,5.216-8.94
			c8.882-1.23,35.929-5.689,39.981-6.359c1.428,2.545,0.727,5.148-0.07,8.136c-0.596,2.226-1.252,4.673-0.944,7.268
			c-6.637-6.063-13.729-8.236-23.228-7.237c-9.202,0.972-12.762,5.701-12.908,5.903c-0.116,0.159-0.165,0.359-0.139,0.555
			c0.356,2.531-0.121,3.245-0.85,4.327C76.532,60.179,75.143,62.249,75.143,69.344z M117.997,42.494
			c-0.041-0.772-0.188-1.546-0.466-2.319l5.84-0.972c-0.115,1.395-1.162,2.592-2.6,2.83L117.997,42.494z M128.163,45.181
			c-0.124-0.401-0.554-0.625-0.953-0.497c-0.399,0.125-0.622,0.551-0.495,0.952c0.827,2.647,2.768,5.778,4.958,8.368
			c5.771,26.545-2.784,53.764-9.593,62.754c-0.764-4.588-1.161-15.224,0.492-19.49c0.152-0.392-0.041-0.834-0.434-0.984
			c-0.392-0.15-0.834,0.042-0.984,0.434c-1.032,2.659-1.324,7.479-1.233,11.995c-0.009,0.029-0.03,0.054-0.032,0.081
			c-3.006,14.313-11.623,27.289-23.896,36.176c4.505-6.978,6.093-14.176,7.522-20.641c1.545-7,3.002-13.607,7.873-18.626
			c0.293-0.306,0.284-0.787-0.021-1.075c-0.302-0.294-0.782-0.287-1.072,0.018c-2.551,2.631-4.205,5.621-5.424,8.842
			c-1.918,2.725-3.937,4.145-6.296,4.406c0.39-5.422,2.229-8.746,4.338-12.57c0.747-1.352,1.538-2.791,2.307-4.406
			c0.008-0.021,0.021-0.037,0.029-0.063c0.003-0.002,0.003-0.006,0.005-0.012c0.802-1.706,1.572-3.605,2.226-5.813
			c0.119-0.4-0.11-0.824-0.517-0.942c-0.399-0.12-0.823,0.108-0.938,0.517c-0.642,2.166-1.387,3.998-2.182,5.66
			c-1.447,3.246-4.668,4.633-7.265,4.389c0.078-2.36,1.004-4.463,2.063-6.868c1.613-3.675,3.631-8.245,3.371-15.61
			c-0.019-0.41-0.354-0.732-0.76-0.732c-0.011,0-0.021,0-0.025,0c-0.42,0.017-0.748,0.365-0.734,0.787
			c0.095,2.686-0.122,4.953-0.514,6.942c-1.133,2.313-2.478,3.716-4.498,4.636c-0.278-2.24,0-4.171,0.315-6.356
			c0.292-2.03,0.608-4.265,0.531-7.079c-0.002-0.022,0.004-0.044-0.002-0.067c-0.032-1.095-0.117-2.266-0.292-3.558
			c-0.061-0.416-0.454-0.72-0.855-0.651c-0.416,0.057-0.707,0.438-0.65,0.856c0.152,1.127,0.236,2.167,0.271,3.137
			c-1.095,1.196-2.302,1.721-4.018,2.01c3.519-8.805,2.773-16.388-1.969-21c2.849,0.829,5.979,2.473,9.397,5.534
			c0.146,0.13,0.326,0.192,0.507,0.192c0.209,0,0.418-0.085,0.567-0.25c0.278-0.313,0.252-0.797-0.062-1.076
			c-8.313-7.436-15.266-7.048-20.277-6.184c0.729-1.095,1.318-2.16,0.996-4.84c0.8-0.9,4.277-4.291,11.654-5.071
			c9.907-1.039,17.065,1.552,23.92,8.679c0.25,0.263,0.654,0.309,0.959,0.112c0.308-0.2,0.43-0.585,0.293-0.923
			c-1.269-3.138-0.463-6.126,0.311-9.018c0.37-1.384,0.73-2.79,0.867-4.2l3.068-0.51c2.521-0.419,4.234-2.818,3.816-5.343
			c-0.032-0.199-0.146-0.376-0.311-0.495c-0.158-0.117-0.369-0.163-0.564-0.132l-7.105,1.18c-0.059-0.092-0.096-0.184-0.152-0.277
			c-0.163-0.253-0.461-0.384-0.762-0.337c-0.225,0.039-15.606,2.586-27.963,4.54c11.496-7.094,14.379-13.813,15.776-24.468
			c0.231-1.772,0.918-4.058,2.854-4.888c2.178-0.927,5.515,0.13,9.395,2.976c7,5.137,10.268,8.963,14.76,14.81
			c-6.316-0.682-12.363-5.227-15.761-9.737c-0.255-0.336-0.729-0.399-1.065-0.151c-0.336,0.254-0.401,0.732-0.147,1.066
			c1.813,2.406,4.479,5.017,7.688,7.023c5.012,4.896,13.438,14.798,15.627,27.677C134.04,55.027,129.535,49.552,128.163,45.181z"/>
		<path d="M110.189,24.034c-0.394-0.153-0.836,0.034-0.99,0.423c-1.852,4.647-4.076,8.114-7.002,10.909
			c-0.301,0.29-0.313,0.771-0.023,1.074c0.151,0.157,0.352,0.234,0.551,0.234c0.188,0,0.377-0.069,0.524-0.21
			c3.088-2.951,5.427-6.587,7.36-11.444C110.77,24.633,110.578,24.19,110.189,24.034z"/>
		<g>
			<g>
				<g>
					<g>
						<polygon fill="#FFFF00" points="107.994,31.233 131.252,12.244 110.006,33.459 						"/>
					</g>
				</g>
			</g>
		</g>
		<g>
			<g>
				<g>
					<g>
						<polygon fill="#FFFF00" points="111,70.75 136.885,72.25 111,73.75 						"/>
					</g>
				</g>
			</g>
		</g>
		<g>
			<g>
				<g>
					<g>
						<polygon fill="#FFFF00" points="42.881,32.02 18.175,17.169 44.29,29.372 						"/>
					</g>
				</g>
			</g>
		</g>
		<g>
			<g>
				<g>
					<g>
						<polygon fill="#FFFF00" points="31,73.75 3.957,72.25 31,70.75 						"/>
					</g>
				</g>
			</g>
		</g>
		<g>
			<g>
				<g>
					<g>
						<polygon fill="#FFFF00" points="43.549,113.386 20.045,123.125 42.24,110.688 						"/>
					</g>
				</g>
			</g>
		</g>
		<g>
			<g>
				<g>
					<g>
						<polygon fill="#FFFF00" points="99.549,114.986 120.158,128.994 98.016,117.564 						"/>
					</g>
				</g>
			</g>
		</g>
		<g>
			<g>
				<g>
					<g>
						<polygon fill="#FFFF00" points="50.794,22.046 41.833,5.663 53.302,20.399 						"/>
					</g>
				</g>
			</g>
		</g>
		<g>
			<g>
				<g>
					<g>
						<polygon fill="#FFFF00" points="89.479,19.985 101.432,7.671 91.807,21.879 						"/>
					</g>
				</g>
			</g>
		</g>
		<g>
			<g>
				<g>
					<g>
						<polygon fill="#FFFF00" points="31.434,93.25 3.813,100.223 30.547,90.385 						"/>
					</g>
				</g>
			</g>
		</g>
		<g>
			<g>
				<g>
					<g>
						<polygon fill="#FFFF00" points="108.318,90.35 137.746,98.014 107.708,93.286 						"/>
					</g>
				</g>
			</g>
		</g>
		<g>
			<g>
				<g>
					<g>
						<polygon fill="#FFFF00" points="47.654,140.33 33.776,146.74 46.135,137.742 						"/>
					</g>
				</g>
			</g>
		</g>
		<g>
			<g>
				<g>
					<g>
						<polygon fill="#FFFF00" points="91.809,137.182 101.964,148.752 89.757,139.37 						"/>
					</g>
				</g>
			</g>
		</g>
	</g>
</g>
</svg>
