<svg xmlns="http://www.w3.org/2000/svg" xmlns:xlink="http://www.w3.org/1999/xlink" version="1.1" x="0px" y="0px" viewBox="0 0 100 125" enable-background="new 0 0 100 100" xml:space="preserve"><g><path d="M50.006,10.153c3.317,0,6.675-0.892,6.675-2.597c0-3.409-13.349-3.409-13.349,0C43.332,9.262,46.689,10.153,50.006,10.153z    M50.006,5.95c3.417,0,5.685,0.968,5.685,1.606c0,0.64-2.268,1.606-5.685,1.606c-3.417,0-5.684-0.967-5.684-1.606   C44.322,6.918,46.588,5.95,50.006,5.95z"/><path d="M28.377,21.88c0.097,0.091,0.22,0.137,0.343,0.137c0.13,0,0.259-0.051,0.358-0.152c0.189-0.198,0.182-0.512-0.016-0.7   c-1.905-1.822-3.354-4.08-4.561-7.108c-0.103-0.254-0.389-0.377-0.643-0.276c-0.254,0.102-0.378,0.39-0.277,0.644   C24.843,17.587,26.366,19.957,28.377,21.88z"/><path d="M86.149,18.548c1.399,0.546,2.893,0.88,4.439,0.88c0.188,0,0.36-0.105,0.443-0.274c0.084-0.169,0.064-0.37-0.05-0.521   c-3.336-4.373-5.466-7.025-10.465-10.694c-2.864-2.1-5.315-2.808-7.093-2.049c-0.933,0.398-2.116,1.41-2.45,3.965   c-0.825,6.26-2.171,11.11-11.981,16.483c-2.394,0.372-4.438,0.68-5.743,0.855c-1.015-0.256-1.344-1.816-1.388-2.801   c0.168-0.129,0.326-0.277,0.473-0.441c0.688,0.634,1.623,1.059,2.724,1.19c0.254,0.031,0.513,0.046,0.771,0.046   c1.245,0,2.47-0.349,3.208-0.942c0.112-0.091,0.18-0.225,0.185-0.368c0.006-0.144-0.053-0.283-0.158-0.381   c-1.918-1.783-2.429-3.172-3.659-6.527l-0.049-0.132c-1.345-3.664-3.459-4.158-5.35-4.158c-1.89,0-4.004,0.494-5.35,4.158   L44.6,16.994c-1.227,3.341-1.735,4.723-3.652,6.502c-0.106,0.098-0.165,0.236-0.159,0.381c0.006,0.144,0.073,0.278,0.186,0.368   c0.892,0.717,2.498,1.076,3.98,0.896c1.1-0.132,2.037-0.557,2.725-1.19c0.146,0.164,0.304,0.312,0.472,0.441   c-0.044,0.984-0.373,2.545-1.387,2.801c-1.309-0.176-3.362-0.485-5.762-0.858c-9.806-5.371-11.153-10.221-11.975-16.48   c-0.335-2.556-1.519-3.566-2.452-3.966c-1.775-0.757-4.229-0.05-7.091,2.05c-4.997,3.667-7.128,6.319-10.468,10.694   c-0.114,0.15-0.133,0.352-0.049,0.521c0.083,0.169,0.255,0.274,0.443,0.274c1.548,0,3.042-0.334,4.441-0.88   c-4.813,5.36-7.856,11.481-8.644,17.486c-0.023,0.169,0.044,0.338,0.176,0.446c0.09,0.074,0.202,0.112,0.315,0.112   c0.053,0,0.105-0.007,0.156-0.024c0.804-0.268,1.763-0.963,2.723-1.887c-3.318,17.942,2.946,36.024,7.442,40.916   c0.095,0.104,0.228,0.16,0.364,0.16c0.037,0,0.075-0.002,0.112-0.011c0.174-0.042,0.311-0.17,0.364-0.342   c0.189-0.631,0.364-1.806,0.489-3.228c2.749,9.231,9.004,17.409,17.533,22.746C34.961,94.975,35.051,95,35.143,95   c0.138,0,0.273-0.059,0.371-0.169c0.16-0.18,0.166-0.451,0.014-0.638c-4.087-5.051-5.241-10.268-6.355-15.315   c-0.338-1.534-0.672-3.043-1.085-4.497c1.165,1.021,2.439,1.535,3.859,1.535c0.136,0,0.264-0.055,0.359-0.151   c0.092-0.097,0.142-0.229,0.136-0.363c-0.168-3.897-1.414-6.319-2.776-8.798c0.852,0.452,1.775,0.685,2.654,0.685   c0.341,0,0.675-0.033,0.994-0.098c0.225-0.047,0.39-0.24,0.397-0.47c0.065-1.934-0.626-3.5-1.424-5.314   c-0.334-0.76-0.679-1.56-0.996-2.43c0.657,0.607,1.43,1.057,2.371,1.397c0.055,0.019,0.112,0.028,0.168,0.028   c0.085,0,0.171-0.021,0.246-0.064c0.126-0.072,0.214-0.196,0.242-0.341c0.352-1.887,0.127-3.43-0.108-5.062   c-0.143-0.99-0.292-2.06-0.332-3.309c0.906,0.663,1.949,0.906,3.354,1.062c0.019,0.002,0.036,0.002,0.054,0.002   c0.157,0,0.306-0.074,0.4-0.202c0.104-0.142,0.125-0.33,0.054-0.491c-2.822-6.431-2.051-11.823,2.06-14.422   c0.003-0.002,0.004-0.006,0.006-0.006c1.817-0.172,3.413,0.103,4.788,0.341l0.156,0.026c0.496,1.033,0.955,2.591,0.955,5.897   c0,0.38-0.095,0.939-0.193,1.531c-0.113,0.675-0.219,1.364-0.237,1.993c-2.689,3.338-4.057,7.428-4.057,12.162   c0,2.509,0.445,4.882,0.917,7.395c0.479,2.549,0.974,5.186,0.974,8.019c0,5.475-2.202,12.228-4.806,14.744   c-0.186,0.18-0.202,0.474-0.037,0.672c0.166,0.201,0.458,0.24,0.665,0.09c2.749-1.937,5.893-3.003,8.855-3.003   c0.589,0,1.167,0.045,1.718,0.131c2.995,0.47,4.584,1.581,6.123,2.655c1.471,1.028,2.861,2.001,5.207,2.094   c0.006,0,0.014,0,0.019,0c0.188,0,0.358-0.105,0.443-0.273c0.087-0.173,0.064-0.38-0.058-0.531   c-3.842-4.768-4.163-9.628-4.163-13.808c0-1.666,0.229-3.342,0.472-5.115c0.417-3.055,0.85-6.217,0.212-9.844   c-0.478-2.729-1.091-5.323-1.632-7.611c-0.734-3.113-1.37-5.801-1.37-7.595c0-0.505-0.111-1.342-0.229-2.228   c-0.105-0.792-0.215-1.61-0.215-2.022c0-3.007,0.375-4.478,0.815-5.409c1.44-0.276,3.11-0.566,5.01-0.375   c0.028,0.029,0.052,0.061,0.087,0.082c4.092,2.607,4.855,7.994,2.039,14.41c-0.071,0.161-0.05,0.35,0.055,0.491   c0.094,0.128,0.242,0.202,0.398,0.202c0.018,0,0.037,0,0.055-0.002c1.404-0.155,2.449-0.397,3.354-1.061   c-0.04,1.248-0.188,2.315-0.333,3.305c-0.235,1.635-0.458,3.177-0.106,5.066c0.027,0.144,0.115,0.268,0.242,0.34   c0.074,0.043,0.161,0.064,0.246,0.064c0.057,0,0.113-0.01,0.168-0.028c0.94-0.339,1.713-0.79,2.37-1.396   c-0.316,0.869-0.661,1.669-0.995,2.427c-0.798,1.816-1.488,3.383-1.425,5.316c0.009,0.229,0.174,0.423,0.398,0.47   c0.318,0.064,0.653,0.098,0.994,0.098c0.879,0,1.803-0.232,2.653-0.685c-1.362,2.479-2.607,4.9-2.776,8.798   c-0.006,0.134,0.044,0.267,0.137,0.363c0.095,0.097,0.223,0.151,0.358,0.151c1.421,0,2.695-0.514,3.86-1.535   c-0.413,1.454-0.747,2.963-1.086,4.497c-1.115,5.048-2.269,10.265-6.357,15.315c-0.15,0.187-0.145,0.458,0.016,0.638   c0.098,0.11,0.233,0.169,0.37,0.169c0.092,0,0.182-0.025,0.264-0.076c8.526-5.336,14.783-13.512,17.534-22.747   c0.124,1.423,0.3,2.598,0.489,3.229c0.052,0.172,0.19,0.301,0.363,0.342c0.036,0.009,0.074,0.011,0.111,0.011   c0.136,0,0.27-0.056,0.363-0.16c4.496-4.896,10.759-22.978,7.439-40.917c0.961,0.925,1.92,1.62,2.725,1.888   c0.05,0.018,0.103,0.024,0.155,0.024c0.113,0,0.227-0.038,0.315-0.112c0.132-0.108,0.199-0.277,0.176-0.446   C94.004,30.028,90.962,23.908,86.149,18.548z M48.208,23.021c-0.083-0.524-0.504-3.204-0.591-4.551   c0.834-0.138,1.783-0.421,2.389-0.915c0.607,0.494,1.558,0.778,2.392,0.915c-0.087,1.347-0.507,4.026-0.592,4.551   c-0.481,0.789-1.46,1.11-1.8,1.11S48.689,23.81,48.208,23.021z M44.837,24.159c-0.978,0.12-2.021-0.038-2.753-0.386   c1.722-1.745,2.296-3.307,3.445-6.438l0.058-0.158c1.188-3.237,2.904-3.509,4.419-3.509c1.516,0,3.231,0.271,4.42,3.509   l0.049,0.133c1.153,3.144,1.729,4.713,3.453,6.462c-0.731,0.349-1.777,0.506-2.751,0.387c-1.007-0.122-1.831-0.528-2.368-1.134   c0.12-0.763,0.482-3.118,0.573-4.452c0.058,0.002,0.124,0.007,0.175,0.007c0.273,0,0.495-0.221,0.495-0.494   s-0.222-0.495-0.495-0.495c-1.079,0-2.606-0.398-3.056-0.911v-1.183c0-0.273-0.221-0.495-0.495-0.495s-0.496,0.222-0.496,0.495   v1.183c-0.45,0.513-1.978,0.911-3.055,0.911c-0.273,0-0.496,0.222-0.496,0.495s0.222,0.494,0.496,0.494   c0.052,0,0.119-0.005,0.177-0.007c0.09,1.334,0.452,3.688,0.573,4.451C46.667,23.631,45.843,24.037,44.837,24.159z M49.103,24.925   c0.339,0.128,0.659,0.196,0.903,0.196c0.243,0,0.564-0.068,0.904-0.197c0.144,1.304,0.667,2.635,1.772,3.112   c-0.135,2.544-1.728,4.164-2.676,4.897c-0.947-0.733-2.539-2.354-2.675-4.897C48.435,27.559,48.961,26.228,49.103,24.925z    M30.943,40.823c-0.203,0.182-0.22,0.496-0.037,0.7c0.098,0.107,0.233,0.163,0.367,0.163c0.119,0,0.237-0.041,0.333-0.128   c2.233-2.007,4.27-3.067,6.118-3.593c-3.039,3.009-3.509,7.916-1.23,13.621c-1.116-0.187-1.901-0.529-2.615-1.308   c0.025-0.666,0.084-1.383,0.195-2.165c0.038-0.271-0.15-0.521-0.421-0.562c-0.266-0.029-0.521,0.149-0.561,0.422   c-0.126,0.894-0.187,1.698-0.208,2.446c-0.003,0.014-0.001,0.027-0.001,0.041c-0.05,1.836,0.154,3.292,0.345,4.613   c0.206,1.427,0.388,2.681,0.207,4.14c-1.316-0.6-2.192-1.512-2.93-3.021c-0.254-1.297-0.394-2.773-0.332-4.521   c0.01-0.273-0.204-0.502-0.478-0.512c-0.306,0.002-0.501,0.204-0.512,0.477c-0.169,4.798,1.143,7.774,2.195,10.167   c0.69,1.565,1.292,2.935,1.342,4.472c-1.704,0.157-3.797-0.745-4.738-2.869c-0.512-1.079-0.996-2.271-1.411-3.675   c-0.077-0.265-0.353-0.413-0.614-0.335c-0.263,0.077-0.413,0.353-0.335,0.614c0.424,1.438,0.928,2.677,1.452,3.787   c0,0.002,0,0.003,0.001,0.004c0.004,0.012,0.011,0.021,0.015,0.031c0.501,1.055,1.019,1.997,1.505,2.878   c1.375,2.49,2.571,4.656,2.826,8.187c-1.537-0.17-2.851-1.095-4.099-2.869c-0.793-2.097-1.871-4.045-3.532-5.758   c-0.191-0.197-0.504-0.202-0.7-0.011c-0.196,0.188-0.202,0.503-0.011,0.7c3.17,3.268,4.121,7.572,5.127,12.13   c0.93,4.21,1.965,8.898,4.899,13.441c-7.995-5.788-13.606-14.237-15.562-23.557c-0.004-0.02-0.017-0.035-0.023-0.054   c0.06-2.942-0.131-6.079-0.803-7.811c-0.098-0.255-0.388-0.382-0.641-0.282c-0.255,0.099-0.381,0.387-0.282,0.642   c1.078,2.775,0.819,9.705,0.322,12.693C11.681,68.312,6.108,50.591,9.867,33.3c1.425-1.688,2.691-3.729,3.231-5.452   c0.082-0.261-0.063-0.538-0.325-0.62c-0.259-0.082-0.539,0.063-0.62,0.324c-0.892,2.848-3.828,6.412-5.825,7.683   c1.426-8.388,6.914-14.836,10.177-18.026c2.087-1.307,3.824-3.005,5.005-4.571c0.165-0.218,0.121-0.529-0.098-0.694   c-0.219-0.162-0.529-0.121-0.693,0.098c-2.212,2.937-6.149,5.896-10.263,6.341c2.927-3.808,5.057-6.301,9.613-9.644   c2.527-1.854,4.701-2.54,6.115-1.938c1.262,0.54,1.708,2.028,1.86,3.183c0.912,6.938,2.788,11.312,10.272,15.931   c-8.046-1.271-18.051-2.928-18.195-2.953c-0.2-0.031-0.388,0.054-0.496,0.218c-0.04,0.061-0.062,0.121-0.099,0.182l-4.625-0.769   c-0.268-0.042-0.525,0.139-0.569,0.407c-0.133,0.797,0.053,1.598,0.521,2.256c0.471,0.657,1.168,1.093,1.965,1.226l1.994,0.332   c0.089,0.919,0.324,1.835,0.565,2.737c0.504,1.882,1.025,3.827,0.203,5.871c-0.089,0.22-0.009,0.471,0.19,0.601   c0.198,0.128,0.461,0.098,0.626-0.073c4.461-4.642,9.114-6.332,15.574-5.652c4.81,0.509,7.073,2.719,7.593,3.302   c-0.199,1.663,0.136,2.451,0.575,3.23C40.979,36.307,36.428,35.893,30.943,40.823z M16.981,25.502   c-0.535-0.089-1.004-0.381-1.32-0.824c-0.217-0.305-0.344-0.654-0.373-1.019l3.799,0.632c-0.181,0.503-0.276,1.007-0.301,1.511   L16.981,25.502z M55.16,55.36c0.538,2.273,1.147,4.854,1.62,7.554c0.611,3.478,0.189,6.559-0.218,9.54   c-0.247,1.808-0.48,3.516-0.48,5.249c0,4.364,0.464,9.002,3.671,13.492c-1.421-0.288-2.43-0.993-3.562-1.784   c-1.554-1.087-3.315-2.317-6.537-2.822c-0.601-0.095-1.229-0.144-1.871-0.144c-2.372,0-4.847,0.637-7.164,1.817   c2.02-3.355,3.476-8.702,3.476-13.33c0-2.925-0.503-5.608-0.99-8.202c-0.464-2.465-0.901-4.793-0.901-7.211   c0-4.54,1.239-8.299,3.785-11.486h7.787C53.873,49.907,54.474,52.452,55.16,55.36z M53.319,43.288c0,0.477,0.108,1.291,0.224,2.153   c0.076,0.572,0.152,1.151,0.192,1.601h-7.446c0.039-0.479,0.112-0.995,0.198-1.513c0.106-0.635,0.207-1.234,0.207-1.696   c0-4.577-0.889-6.107-1.538-7.227c-0.493-0.849-0.819-1.41-0.581-3.09c0.018-0.128-0.016-0.258-0.092-0.362   c-0.095-0.131-2.411-3.211-8.407-3.844c-6.184-0.651-10.804,0.765-15.126,4.713c0.199-1.689-0.227-3.282-0.615-4.73   c-0.52-1.947-0.975-3.642-0.045-5.301c2.637,0.436,20.252,3.342,26.038,4.142c0.186,3.231,2.414,5.136,3.394,5.821   c0.171,0.117,0.398,0.117,0.567,0c0.983-0.686,3.212-2.588,3.397-5.821c5.784-0.801,23.397-3.705,26.035-4.142   c0.93,1.658,0.475,3.353-0.045,5.299c-0.388,1.449-0.814,3.043-0.615,4.732c-4.323-3.948-8.941-5.363-15.126-4.713   c-5.993,0.633-8.311,3.713-8.406,3.844c-0.076,0.104-0.108,0.234-0.091,0.362c0.234,1.648-0.078,2.113-0.551,2.817   C54.225,37.319,53.319,38.667,53.319,43.288z M81.226,25.802c-0.025-0.503-0.122-1.007-0.302-1.51l3.803-0.633   c-0.075,0.908-0.756,1.688-1.693,1.843L81.226,25.802z M87.848,27.552c-0.081-0.261-0.36-0.407-0.621-0.324   c-0.261,0.082-0.405,0.359-0.323,0.62c0.539,1.724,1.803,3.763,3.229,5.45c3.759,17.287-1.813,35.012-6.247,40.867   c-0.498-2.988-0.756-9.915,0.321-12.693c0.1-0.255-0.027-0.543-0.282-0.642s-0.543,0.027-0.641,0.282   c-0.673,1.732-0.863,4.87-0.804,7.812c-0.005,0.019-0.019,0.034-0.021,0.053c-1.957,9.32-7.569,17.771-15.562,23.558   c2.934-4.544,3.969-9.232,4.899-13.442c1.007-4.558,1.956-8.862,5.127-12.13c0.191-0.197,0.186-0.512-0.011-0.7   c-0.197-0.191-0.511-0.187-0.699,0.011c-1.661,1.713-2.739,3.661-3.533,5.758c-1.248,1.774-2.562,2.699-4.1,2.869   c0.255-3.53,1.451-5.696,2.825-8.186c0.486-0.88,1.002-1.817,1.501-2.87c0.006-0.015,0.015-0.024,0.021-0.04   c0.002-0.001,0.002-0.004,0.003-0.006c0.522-1.111,1.024-2.35,1.449-3.785c0.077-0.262-0.073-0.537-0.336-0.614   c-0.261-0.079-0.537,0.071-0.613,0.335c-0.416,1.41-0.902,2.603-1.418,3.687c-0.944,2.114-3.041,3.016-4.731,2.857   c0.05-1.538,0.653-2.906,1.342-4.473c1.052-2.392,2.364-5.369,2.195-10.166c-0.01-0.267-0.229-0.477-0.494-0.477   c-0.007,0-0.012,0-0.018,0c-0.273,0.01-0.487,0.238-0.478,0.512c0.062,1.748-0.079,3.226-0.334,4.522   c-0.737,1.507-1.612,2.42-2.929,3.019c-0.182-1.46,0-2.716,0.206-4.141c0.191-1.321,0.396-2.775,0.346-4.609   c-0.001-0.016,0.002-0.03-0.001-0.045c-0.021-0.712-0.075-1.475-0.19-2.317c-0.038-0.271-0.297-0.468-0.558-0.424   c-0.271,0.037-0.461,0.286-0.424,0.558c0.1,0.734,0.155,1.411,0.179,2.043c-0.714,0.778-1.5,1.12-2.618,1.308   c2.292-5.734,1.807-10.672-1.28-13.676c1.854,0.539,3.893,1.611,6.119,3.604c0.095,0.085,0.213,0.126,0.331,0.126   c0.135,0,0.271-0.056,0.369-0.164c0.182-0.204,0.164-0.518-0.039-0.7c-5.415-4.843-9.941-4.59-13.206-4.027   c0.475-0.713,0.859-1.407,0.649-3.152c0.521-0.586,2.786-2.794,7.59-3.302c6.453-0.677,11.114,1.011,15.576,5.652   c0.164,0.171,0.427,0.201,0.625,0.073c0.2-0.13,0.28-0.381,0.191-0.601c-0.824-2.044-0.302-3.99,0.202-5.873   c0.241-0.901,0.476-1.816,0.564-2.735l1.998-0.332c1.644-0.273,2.76-1.835,2.488-3.48c-0.022-0.129-0.095-0.245-0.201-0.322   c-0.105-0.076-0.242-0.106-0.369-0.086l-4.629,0.769c-0.036-0.06-0.061-0.12-0.099-0.181c-0.107-0.165-0.299-0.25-0.495-0.219   c-0.146,0.025-10.165,1.684-18.211,2.956c7.487-4.62,9.364-8.995,10.276-15.934c0.152-1.154,0.597-2.643,1.857-3.183   c1.418-0.604,3.591,0.085,6.117,1.938c4.559,3.345,6.687,5.837,9.612,9.644c-4.113-0.444-8.051-3.404-10.263-6.341   c-0.166-0.219-0.475-0.26-0.694-0.098c-0.219,0.165-0.263,0.477-0.097,0.694c1.181,1.567,2.918,3.267,5.007,4.573   c3.264,3.189,8.749,9.637,10.176,18.024C91.675,33.964,88.74,30.399,87.848,27.552z"/><path d="M76.143,13.781c-0.256-0.1-0.544,0.022-0.645,0.276c-1.206,3.026-2.654,5.284-4.559,7.104   c-0.197,0.189-0.204,0.502-0.015,0.7c0.098,0.102,0.227,0.152,0.357,0.152c0.123,0,0.246-0.045,0.342-0.137   c2.011-1.922,3.534-4.29,4.794-7.453C76.52,14.171,76.396,13.883,76.143,13.781z"/></g><text x="0" y="115" fill="#000000" font-size="5px" font-weight="bold" font-family="'Helvetica Neue', Helvetica, Arial-Unicode, Arial, Sans-serif">Created by Daniel Hammer</text><text x="0" y="120" fill="#000000" font-size="5px" font-weight="bold" font-family="'Helvetica Neue', Helvetica, Arial-Unicode, Arial, Sans-serif">from the Noun Project</text></svg>