<?xml version="1.0" encoding="utf-8"?>
<!-- Generator: Adobe Illustrator 16.0.3, SVG Export Plug-In . SVG Version: 6.00 Build 0)  -->
<!DOCTYPE svg PUBLIC "-//W3C//DTD SVG 1.1//EN" "http://www.w3.org/Graphics/SVG/1.1/DTD/svg11.dtd">
<svg version="1.1" xmlns="http://www.w3.org/2000/svg" xmlns:xlink="http://www.w3.org/1999/xlink" x="0px" y="0px" width="140px"
	 height="140px" viewBox="0 0 140 140" enable-background="new 0 0 140 140" xml:space="preserve">
<g id="ref" display="none">
	<g display="inline">
		<rect x="204.706" y="15.522" fill="#32D9D8" width="2.49" height="88.139"/>
		<path fill="#32D9D8" d="M208.062,13.296h-4.227c-0.457,0-0.817,0.357-0.817,0.804c0.002,0.452,0.364,0.813,0.817,0.815h0.282
			v-0.012h3.54v0.012h0.41c0.449-0.002,0.813-0.363,0.813-0.815C208.88,13.653,208.518,13.296,208.062,13.296z"/>
		<path fill="#32D9D8" d="M207.389,104.147l-0.067-0.023h-2.826l-0.031,0.003c-0.203,0.047-0.357,0.229-0.357,0.449
			c0,0.216,0.154,0.397,0.356,0.447h2.867c0.206-0.05,0.358-0.231,0.358-0.447C207.69,104.379,207.564,104.218,207.389,104.147z"/>
		<path fill="#32D9D8" d="M218.324-16.31l2.649,12.113v0.051v2.76v0.01c0.005,2.219-0.647,4.316-2.074,5.876
			c-1.419,1.558-3.604,2.552-6.574,2.581h-0.004h-4.527v3.348h0.273c0.791,0.003,1.432,0.644,1.432,1.43
			c0,0.458-0.223,0.862-0.557,1.126c0.045,0.036,0.092,0.069,0.135,0.11c0.26,0.254,0.422,0.613,0.422,1.005
			c0,0.792-0.643,1.43-1.432,1.43h-0.257v88.15c0.294,0.191,0.493,0.518,0.493,0.899c0,0.489-0.336,0.902-0.789,1.026
			c0.01,0.068,0.021,0.134,0.021,0.203c0,0.901-0.734,1.631-1.638,1.631s-1.638-0.729-1.638-1.631c0-0.069,0.01-0.135,0.021-0.203
			c-0.455-0.124-0.789-0.537-0.789-1.026c0-0.424,0.246-0.781,0.6-0.958V15.529h-0.258c-0.79,0-1.43-0.638-1.43-1.427
			c-0.002-0.395,0.162-0.754,0.42-1.008c0.041-0.041,0.088-0.074,0.131-0.11c-0.332-0.261-0.553-0.665-0.553-1.126
			c0.002-0.786,0.642-1.427,1.432-1.427h0.129V7.081h-4.385l0,0c-2.971-0.025-5.154-1.019-6.578-2.581
			c-1.424-1.558-2.076-3.657-2.076-5.876v-0.012v-2.756v-0.053l2.993-12.066l-1.697,0.019l4.188-5.112l1.161,6.497l-1.388-0.847
			l-2.288,11.509v0.051v2.88c0,1.601,0.639,2.892,1.68,3.804s2.494,1.432,4.118,1.432h4.271v-25.82l-2.637,1.17l4.453-10.26
			l4.672,10.266l-2.658-1.176V3.97h4.417c1.621,0,3.072-0.52,4.113-1.432c1.042-0.912,1.684-2.203,1.684-3.804v-2.88v-0.051
			l-2.109-11.807l-1.537,0.661l1.742-5.5l0.152-0.476l3.838,5.188L218.324-16.31z"/>
		<path fill="#32D9D8" d="M204.933,105.484c-0.037,0.105-0.057,0.208-0.057,0.324c0,0.56,0.457,1.018,1.019,1.018
			c0.568,0,1.026-0.458,1.026-1.018c0-0.116-0.022-0.219-0.059-0.324H204.933z"/>
		<path fill="#32D9D8" d="M216.302-16.682l2.326,12.485v0.051v2.88c0,1.768-0.729,3.247-1.895,4.265
			c-1.172,1.021-2.771,1.586-4.522,1.586h-5.03v-27.377l2.041,0.905l-3.43-7.542l-3.277,7.553l2.063-0.916V4.585h-4.885
			c-1.755,0-3.354-0.564-4.522-1.586c-1.167-1.018-1.897-2.497-1.894-4.265v-2.88v-0.051l2.597-12.268l1.032,0.631l-0.789-4.401
			l-2.862,3.49l1.283-0.017L191.54-4.196v0.053v2.758v0.01c0,2.102,0.615,4.043,1.912,5.465c1.301,1.421,3.289,2.347,6.131,2.378
			h4.994v3.958h2.6V6.467h5.137c2.844-0.031,4.832-0.957,6.131-2.378c1.302-1.422,1.913-3.363,1.913-5.465v-0.012v-0.004v-2.752
			v-0.053l-2.633-12.635l1.338,0.137l-2.62-3.545l-1.283,4.046L216.302-16.682z"/>
		<path fill="#32D9D8" d="M207.181,11.041h-2.6v0.007h-0.746c-0.449,0-0.815,0.363-0.815,0.811c0,0.226,0.091,0.43,0.239,0.582
			c0.146,0.148,0.346,0.237,0.568,0.24h4.242c0.229-0.003,0.424-0.092,0.57-0.24c0.15-0.152,0.24-0.356,0.24-0.582
			c0-0.447-0.363-0.811-0.813-0.811h-0.887V11.041z"/>
	</g>
	<g display="inline">
		<path fill="#FFFFFF" d="M238.595,47.69c-2.139-4.337-7-10.35-11.528-14.262c-4.805-4.145-8.847-6.85-14.033-9.391
			c-5.181-2.539-9.453-4.119-13.673-5.063c-0.967-0.212-2.471-0.386-3.338-0.394c-2.794,0-4.469,1.177-5.148,3.619
			c-0.744,2.655,0.383,6.076,2.002,6.076c0.768,0,1.957-0.621,3.382-1.766c1.05-0.84,1.199-0.912,1.038-0.492
			c-0.105,0.279-0.188,0.894-0.188,1.387c0,1.229-3.888,22.107-3.888,22.107l-4.834-0.914c0,0-4.136,6.29-4.865,9.259
			c-0.452,1.833-0.451,5.799,0.005,7.817c0.508,2.255,1.417,4.678,2.308,6.152c1.551,2.573,1.787,5.431,0.639,7.696
			c-1.332,2.615-4.82,3.541-7.725,2.048c-1.57-0.804-2.329-2.026-2.307-3.734c0.02-1.479,0.342-2.337,0.996-2.64
			c0.873-0.392,1.654-0.276,2.277,0.348c0.496,0.495,0.575,0.724,0.575,1.671c0,0.971,0.058,1.146,0.534,1.519
			c1.328,1.039,3.226-0.363,3.226-2.376c0-0.829-1.054-2.853-1.739-3.34c-0.826-0.581-2.89-1.073-3.881-0.924
			c-2.121,0.327-4.414,2.245-5.298,4.416c-0.382,0.937-0.461,1.486-0.461,3.208c0,1.957,0.04,2.154,0.677,3.42
			c2.313,4.616,8.465,7.313,14.065,6.184c3.198-0.645,9.185-3.696,10.31-4.792c1.124-1.089,1.049-2.315,1.049-2.315
			s-0.905-4.187-0.318-7.688c0.248-1.477,0.979-2.087,1.364-2.663c0.95-1.429,2.04-2.342,3.819-3.199
			c1.428-0.687,1.563-0.719,3.561-0.708c1.684,0.008,2.281,0.095,3.146,0.457c3.048,1.259,4.613,3.492,4.618,6.579
			c0.007,3.321-2.08,5.576-5.192,5.597c-3.087,0.024-5.33-1.815-5.336-4.392c-0.006-1.07,0.23-1.502,0.985-1.818
			c1.235-0.508,2.333,0.085,2.64,1.424c0.363,1.565,1.811,2.087,2.896,1.042c1.825-1.744,0.617-4.67-2.292-5.552
			c-2.059-0.622-3.598-0.163-5.343,1.584c-1.495,1.494-2.079,2.891-2.084,4.96c-0.009,2.519,0.79,4.449,2.583,6.239
			c2.096,2.1,5.041,3.091,8.622,2.907c4.938-0.25,8.698-2.55,12.735-7.797c0.742-0.972,1.021-3.921,0.624-5.005
			s-3.532-2.347-4.63-4.515c-2.897-5.719,0.174-12.692,5.814-13.214c2.396-0.228,5.089,0.839,6.2,2.453
			c0.716,1.044,0.938,1.742,0.982,3.106c0.055,1.583-0.346,2.875-1.205,3.881c-0.951,1.095-1.979,1.539-3.602,1.552
			c-2.491,0.003-3.561-0.618-3.561-2.071c0-1.521,1.007-2.146,2.688-1.679c1.271,0.351,1.802,0.146,2.083-0.811
			c0.194-0.671,0.189-0.889-0.077-1.444c-0.375-0.789-1.706-1.502-2.796-1.502c-2.82,0-4.789,3.6-3.81,6.96
			c0.861,2.962,4.659,5.031,8.521,4.637c3.392-0.343,6.999-3.745,8.503-8.018c0.501-1.416,0.611-2.077,0.672-3.977
			C241.706,55.805,240.779,52.123,238.595,47.69z"/>
		<path fill="#E9AD8D" d="M188.644,48.715l1.919,0.979c3.515,1.791,7.435,4.158,8.786,6.575l0.615,1.09l1.733-0.126
			c3.799-0.275,8.757-2.009,11.616-4.065c1.774-1.275,3.021-2.602,2.868-3.06c-0.066-0.211-0.208-1.373-0.318-2.605
			c-0.439-5.091,0.675-9.8,3.074-13.008l0.82-1.089l-0.891,0.133c-1.416,0.211-4.719,0.168-5.612-0.071
			c-0.771-0.206-1.436-0.827-1.436-1.333c0-0.124,0.231-0.566,0.502-0.971c0.271-0.404,0.505-0.78,0.505-0.816
			c0-0.045-0.465,0.055-1.049,0.215c-1.575,0.434-4.389,0.563-5.008,0.232c-0.862-0.451-1.046-1.084-0.626-2.177l0.361-0.951
			l-1.838,0.659c-4.747,1.689-7.393,1.332-7.393-1.002c0-0.501,0.085-1.131,0.194-1.414c0.162-0.43,0.009-0.357-1.062,0.5
			c-1.457,1.168-2.668,1.806-3.453,1.806c-0.213,0-0.414-0.06-0.605-0.165l-1.732,2.543c-0.967,1.413-1.759,2.655-1.759,2.756
			c0,0.102,0.56,0.867,1.253,1.717c0.691,0.848,1.336,1.643,1.436,1.778c0.122,0.161-0.91,1.728-3.186,4.818
			c-1.855,2.525-3.336,4.597-3.3,4.622c0.03,0.029,0.604,0.171,1.272,0.314c0.664,0.146,1.651,0.39,2.191,0.547l0.98,0.283
			l-1.119,1.17L188.644,48.715z"/>
	</g>
	<path display="inline" fill="#FFFFFF" d="M200.745,39.453c0.013,0.39-1.073,0.947-3.026,1.256c-1.715,0.275-3.045-1.06-2.949-1.956
		c0.094-0.898,1.669-1.887,3.299-1.291C199.717,38.068,200.73,38.919,200.745,39.453z"/>
	<path display="inline" fill="#54D29E" d="M197.744,38.829c-0.059,0.561-0.525,0.966-1.043,0.914
		c-0.512-0.056-0.885-0.556-0.827-1.116c0.065-0.561,0.53-0.97,1.048-0.917C197.436,37.768,197.809,38.266,197.744,38.829z"/>
	<g display="inline">
		<path fill="#FFC766" d="M197.147,14.104c1.03-4.547,1.535-8.655,2.368-19.194c0.29-3.76,0.495-4.834,0.921-4.981
			c0.516-0.175,0.777,1.867,1.576,12.354c0.295,3.835,0.194,13.595-0.15,14.691l-0.165,0.543l-2.126-0.716
			c-1.166-0.394-2.299-0.718-2.512-0.718c-0.243,0-0.253-0.211-0.253-0.211S196.816,15.562,197.147,14.104z"/>
		<path fill="#FFC766" d="M210.03,17.374c-0.201,1.141-0.423,2.138-0.488,2.206c-0.121,0.119-4.01-1.585-4.404-1.931
			c-0.11-0.095,0.199-1.558,0.685-3.242c0.871-3.004,1.716-6.998,2.972-14.021c0.721-4.03,1.211-5.493,1.684-5.024
			c0.21,0.213,0.322,1.956,0.385,6.086C210.962,7.682,210.628,14.03,210.03,17.374z"/>
		<path fill="#FFC766" d="M218.064,18.06c-0.373,2.252-0.995,4.951-1.156,4.951c-0.274,0-4.28-2.271-4.28-2.426
			c0-0.096,0.46-1.459,1.009-3.018c0.985-2.77,1.995-6.455,3.316-12.118c0.96-4.107,1.537-5.384,1.951-4.306
			C219.269,2.091,218.646,14.448,218.064,18.06z"/>
		<path fill="#FFC766" d="M225.223,21.854c-0.265,1.509-0.667,3.354-0.904,4.143l-0.432,1.419l-1.958-1.345
			c-1.06-0.735-2.004-1.407-2.061-1.474c-0.066-0.068,0.327-1.26,0.872-2.67c1.311-3.393,1.859-5.141,2.771-8.854
			c0.694-2.843,1.624-6.024,1.902-6.504c0.313-0.545,0.7,0.123,0.776,1.333C226.335,10.143,225.724,18.959,225.223,21.854z"/>
		<path fill="#FFC766" d="M232.004,27.211c-0.526,1.903-1.802,5.194-2.013,5.194c-0.15,0-2.195-1.59-2.841-2.211
			c-0.123-0.115,0.497-1.634,1.383-3.393c0.887-1.75,2.182-4.613,2.883-6.369c2.027-5.092,2.729-6.17,2.729-4.203
			C234.146,17.192,232.635,24.937,232.004,27.211z"/>
		<path fill="#FFC766" d="M242.658,24.981c-0.083,0.365-0.924,2.543-1.867,4.846c-1.677,4.08-2.832,6.344-4.082,8.014l-0.632,0.842
			l-2.894-2.871l1.291-1.361c1.603-1.692,3.064-3.607,5.108-6.7c1.736-2.62,2.707-3.766,3.025-3.563
			C242.719,24.257,242.739,24.607,242.658,24.981z"/>
	</g>
</g>
<g id="colors">
	<path fill="#1AE2DD" d="M103.563,106.155c-0.082,10.178-10.682,29.234-9.183,28.935c16.05-7.173,24.242-34.923,24.242-34.923
		s0.598,7.897,1.242,8.192c2.109,0.965,12.827-29.625,12.716-37.123c-0.113-7.498-1.34-24.653-1.34-24.653s3.817,3.351,4.591,2.792
		c3.517-2.542-13.444-27.228-13.444-27.228l7.654,1.263l-7.511-10.114c0,0-13.207-11.11-17.578-9.016
		c-4.367,2.095-2.382,16.22-10.82,23.636c-8.439,7.417-10.747,6.867-10.747,6.867l30.603-4.658
		c4.696,2.167-0.641,12.83,0.415,18.458c-3.338-4.256-13.105-9.338-19.65-9.536C88.206,38.85,79.114,45.5,79.114,45.5l-0.869,5.833
		c0,0,2.979-2.333,9.433,1.667s1.818,20,1.818,20l5.131-1.75c0,0-1.624,11.863-0.423,12.844c1.2,0.98,5.015-3.719,5.015-3.719
		L95,94.625l6.05-0.75c0,0-4.863,12.057-3.264,13.219C99.387,108.256,103.583,103.853,103.563,106.155z"/>
	<path fill="#1AE2DD" d="M36.5,106.155c0.083,10.178,10.759,29.234,9.25,28.935c-16.167-7.173-24.417-34.923-24.417-34.923
		s-0.602,7.897-1.251,8.192c-2.124,0.965-12.919-29.625-12.806-37.123s1.349-24.653,1.349-24.653S4.779,49.934,4,49.375
		c-3.542-2.542,13.542-27.228,13.542-27.228L9.833,23.41l7.565-10.114c0,0,13.301-11.11,17.701-9.016S37.5,20.5,46,27.917
		s10.823,6.867,10.823,6.867L26,30.125c-4.729,2.167,0.647,12.83-0.417,18.458c3.36-4.256,13.198-9.338,19.792-9.536
		s15.75,6.452,15.75,6.452L62,51.333c0,0-3-2.333-9.5,1.667s-1.833,20-1.833,20L45.5,71.25c0,0,1.636,11.863,0.427,12.844
		s-5.052-3.719-5.052-3.719l4.25,14.25l-6.093-0.75c0,0,4.898,12.057,3.287,13.219S36.481,103.853,36.5,106.155z"/>
	<polygon fill="#FFC766" points="82.75,31.042 78.688,31.938 74,30.75 65.688,30.688 60.75,31.938 57.188,31.198 66,15.198 
		73.44,14.883 	"/>
	<polygon fill="#FFCC99" points="72.622,30.941 70.009,31.875 66.625,30.688 66,22 70,21.125 74,22 	"/>
	<polygon fill="#FFCC99" points="74,42.27 69.585,46.096 66,42.243 66,36.75 68,32 72,32 74.75,37.281 	"/>
	<polygon fill="#FFCC99" points="24.5,34.458 18.208,33.333 17.542,30.125 25,31.083 	"/>
	<polygon fill="#FFCC99" points="121.938,33.125 115.815,34.45 114.754,30.938 122.67,29.445 	"/>
</g>
<g id="main">
	<path fill="#FFE566" d="M70.008,10.633c4.943,0,9.945-1.329,9.945-3.87c0-5.079-19.889-5.079-19.889,0
		C60.064,9.305,65.065,10.633,70.008,10.633z M70.008,4.371c5.09,0,8.471,1.441,8.471,2.392c0,0.954-3.381,2.394-8.471,2.394
		c-5.091,0-8.469-1.441-8.469-2.394C61.539,5.813,64.916,4.371,70.008,4.371z"/>
	<path d="M37.783,28.105c0.145,0.135,0.327,0.203,0.51,0.203c0.194,0,0.387-0.075,0.535-0.225c0.281-0.296,0.271-0.764-0.025-1.043
		c-2.838-2.715-4.996-6.079-6.795-10.59c-0.153-0.378-0.58-0.562-0.958-0.411c-0.378,0.152-0.563,0.581-0.413,0.96
		C32.518,21.708,34.787,25.239,37.783,28.105z"/>
	<path d="M123.857,23.141c2.084,0.814,4.311,1.311,6.613,1.311c0.281,0,0.537-0.156,0.66-0.408c0.125-0.251,0.096-0.551-0.074-0.776
		c-4.971-6.515-8.145-10.467-15.592-15.933c-4.268-3.129-7.92-4.184-10.568-3.053c-1.391,0.593-3.152,2.101-3.65,5.908
		c-1.229,9.327-3.234,16.553-17.85,24.558c-3.568,0.554-6.613,1.014-8.557,1.274c-1.512-0.381-2.002-2.706-2.067-4.173
		c0.249-0.192,0.485-0.413,0.704-0.657c1.025,0.945,2.418,1.578,4.059,1.773c0.377,0.046,0.764,0.068,1.148,0.068
		c1.855,0,3.68-0.521,4.779-1.404c0.166-0.135,0.27-0.335,0.275-0.547c0.01-0.215-0.078-0.422-0.234-0.568
		c-2.859-2.656-3.619-4.727-5.453-9.725l-0.072-0.197c-2.004-5.459-5.153-6.195-7.971-6.195c-2.815,0-5.966,0.736-7.971,6.195
		l-0.084,0.234c-1.828,4.978-2.585,7.037-5.441,9.688c-0.157,0.146-0.245,0.352-0.236,0.568c0.009,0.213,0.109,0.414,0.277,0.547
		c1.328,1.069,3.722,1.604,5.93,1.335c1.639-0.197,3.035-0.83,4.061-1.773c0.217,0.244,0.453,0.465,0.702,0.657
		c-0.065,1.466-0.556,3.792-2.065,4.173c-1.951-0.262-5.01-0.723-8.586-1.278C41.984,26.74,39.978,19.514,38.752,10.189
		C38.254,6.38,36.489,4.876,35.1,4.28c-2.645-1.128-6.301-0.075-10.564,3.054c-7.445,5.463-10.621,9.415-15.597,15.933
		c-0.17,0.223-0.198,0.524-0.073,0.776c0.123,0.252,0.381,0.408,0.66,0.408c2.307,0,4.532-0.497,6.617-1.311
		C8.971,31.126,4.438,40.246,3.264,49.192c-0.035,0.252,0.065,0.504,0.262,0.665c0.135,0.111,0.301,0.167,0.469,0.167
		c0.08,0,0.157-0.01,0.232-0.036c1.199-0.399,2.627-1.434,4.058-2.81c-4.943,26.731,4.39,53.672,11.089,60.96
		c0.141,0.155,0.339,0.238,0.541,0.238c0.055,0,0.111-0.003,0.168-0.017c0.259-0.063,0.463-0.253,0.541-0.509
		c0.281-0.94,0.543-2.691,0.729-4.81c4.096,13.753,13.415,25.938,26.122,33.889c0.117,0.079,0.252,0.116,0.389,0.116
		c0.205,0,0.406-0.088,0.553-0.251c0.238-0.269,0.248-0.672,0.021-0.951c-6.09-7.525-7.809-15.299-9.469-22.817
		c-0.504-2.285-1.002-4.534-1.616-6.701c1.735,1.522,3.634,2.288,5.749,2.288c0.203,0,0.394-0.082,0.535-0.225
		c0.137-0.146,0.211-0.342,0.203-0.541c-0.251-5.807-2.107-9.415-4.137-13.109c1.27,0.675,2.645,1.021,3.955,1.021
		c0.508,0,1.005-0.048,1.48-0.146c0.335-0.069,0.581-0.356,0.592-0.7c0.096-2.881-0.934-5.215-2.122-7.918
		c-0.498-1.132-1.012-2.323-1.483-3.62c0.979,0.904,2.13,1.576,3.531,2.082c0.082,0.027,0.168,0.042,0.251,0.042
		c0.126,0,0.255-0.031,0.366-0.096c0.188-0.107,0.318-0.292,0.361-0.508c0.524-2.812,0.188-5.11-0.161-7.542
		c-0.214-1.476-0.436-3.069-0.495-4.93c1.35,0.986,2.904,1.349,4.998,1.582c0.027,0.002,0.053,0.002,0.08,0.002
		c0.233,0,0.455-0.109,0.596-0.3c0.154-0.212,0.186-0.492,0.08-0.731c-4.204-9.582-3.055-17.615,3.069-21.487
		c0.005-0.004,0.006-0.01,0.009-0.01c2.707-0.256,5.086,0.154,7.134,0.509l0.232,0.039c0.739,1.539,1.423,3.86,1.423,8.786
		c0,0.566-0.141,1.399-0.287,2.281c-0.169,1.006-0.326,2.032-0.354,2.969c-4.006,4.974-6.045,11.067-6.045,18.12
		c0,3.738,0.664,7.273,1.367,11.019c0.713,3.798,1.451,7.727,1.451,11.947c0,8.157-3.281,18.218-7.161,21.966
		c-0.277,0.27-0.301,0.707-0.056,1.003c0.248,0.299,0.684,0.356,0.992,0.133c4.096-2.886,8.779-4.474,13.192-4.474
		c0.877,0,1.739,0.067,2.56,0.196c4.462,0.699,6.83,2.354,9.123,3.955c2.191,1.531,4.262,2.98,7.758,3.119c0.008,0,0.021,0,0.027,0
		c0.281,0,0.533-0.156,0.662-0.406c0.127-0.258,0.094-0.566-0.088-0.791c-5.725-7.104-6.203-14.346-6.203-20.572
		c0-2.482,0.342-4.979,0.705-7.622c0.621-4.551,1.266-9.262,0.316-14.666c-0.713-4.065-1.627-7.931-2.434-11.339
		c-1.094-4.639-2.041-8.644-2.041-11.315c0-0.754-0.164-2.001-0.34-3.32c-0.156-1.181-0.32-2.398-0.32-3.014
		c0-4.479,0.559-6.671,1.213-8.058c2.146-0.411,4.635-0.843,7.465-0.559c0.041,0.043,0.078,0.091,0.129,0.123
		c6.098,3.884,7.234,11.91,3.039,21.47c-0.105,0.239-0.074,0.521,0.082,0.731c0.139,0.19,0.359,0.3,0.592,0.3
		c0.027,0,0.055,0,0.082-0.002c2.092-0.231,3.648-0.593,4.998-1.582c-0.061,1.86-0.279,3.45-0.498,4.926
		c-0.348,2.436-0.68,4.733-0.156,7.547c0.041,0.215,0.172,0.399,0.359,0.507c0.111,0.064,0.24,0.096,0.367,0.096
		c0.086,0,0.168-0.016,0.25-0.042c1.402-0.506,2.553-1.178,3.531-2.079c-0.471,1.294-0.984,2.485-1.482,3.615
		c-1.189,2.705-2.217,5.04-2.123,7.92c0.014,0.342,0.26,0.631,0.594,0.7c0.473,0.095,0.973,0.146,1.48,0.146
		c1.309,0,2.688-0.345,3.953-1.021c-2.029,3.694-3.885,7.302-4.137,13.109c-0.008,0.199,0.066,0.396,0.205,0.541
		c0.141,0.144,0.332,0.225,0.533,0.225c2.115,0,4.016-0.766,5.75-2.288c-0.615,2.167-1.111,4.416-1.617,6.701
		c-1.662,7.521-3.381,15.293-9.471,22.817c-0.225,0.279-0.217,0.682,0.023,0.951c0.146,0.163,0.346,0.251,0.551,0.251
		c0.137,0,0.271-0.037,0.395-0.112c12.703-7.951,22.023-20.133,26.123-33.892c0.184,2.121,0.447,3.871,0.729,4.811
		c0.078,0.258,0.283,0.449,0.541,0.51c0.053,0.014,0.109,0.017,0.164,0.017c0.203,0,0.404-0.083,0.541-0.238
		c6.699-7.295,16.029-34.235,11.084-60.962c1.432,1.378,2.861,2.414,4.061,2.813c0.074,0.027,0.152,0.036,0.23,0.036
		c0.168,0,0.338-0.056,0.469-0.167c0.197-0.161,0.297-0.413,0.264-0.665C135.561,40.244,131.027,31.126,123.857,23.141z
		 M67.33,29.805c-0.125-0.782-0.752-4.774-0.882-6.781c1.243-0.206,2.657-0.627,3.56-1.363c0.904,0.736,2.321,1.159,3.564,1.363
		c-0.131,2.007-0.756,5.998-0.883,6.781c-0.717,1.176-2.176,1.653-2.682,1.653C69.5,31.458,68.045,30.981,67.33,29.805z
		 M62.307,31.5c-1.457,0.18-3.012-0.056-4.102-0.575c2.565-2.599,3.42-4.927,5.133-9.592l0.086-0.235
		c1.77-4.823,4.326-5.229,6.584-5.229s4.814,0.404,6.584,5.229l0.074,0.198c1.719,4.685,2.576,7.023,5.145,9.628
		c-1.088,0.52-2.648,0.753-4.098,0.576c-1.502-0.181-2.729-0.786-3.529-1.689c0.18-1.135,0.719-4.645,0.854-6.633
		c0.088,0.003,0.186,0.011,0.262,0.011c0.406,0,0.736-0.329,0.736-0.736c0-0.407-0.33-0.737-0.736-0.737
		c-1.607,0-3.884-0.594-4.554-1.357v-1.763c0-0.406-0.329-0.737-0.737-0.737s-0.739,0.331-0.739,0.737v1.763
		c-0.67,0.764-2.946,1.357-4.552,1.357c-0.406,0-0.738,0.33-0.738,0.737c0,0.407,0.33,0.736,0.738,0.736
		c0.078,0,0.178-0.007,0.264-0.011c0.135,1.988,0.674,5.495,0.854,6.632C65.033,30.714,63.806,31.319,62.307,31.5z M68.662,32.642
		c0.506,0.191,0.982,0.292,1.346,0.292c0.362,0,0.84-0.101,1.347-0.294c0.214,1.943,0.994,3.926,2.641,4.637
		c-0.202,3.791-2.575,6.204-3.987,7.297c-1.41-1.093-3.783-3.507-3.985-7.297C67.667,36.565,68.451,34.583,68.662,32.642z
		 M41.605,56.328c-0.302,0.271-0.328,0.738-0.055,1.042c0.146,0.16,0.348,0.243,0.547,0.243c0.178,0,0.354-0.062,0.496-0.19
		c3.326-2.99,6.361-4.57,9.115-5.354c-4.527,4.484-5.229,11.794-1.832,20.294c-1.663-0.278-2.833-0.788-3.896-1.948
		c0.037-0.992,0.125-2.061,0.29-3.227c0.058-0.403-0.224-0.775-0.627-0.837c-0.396-0.042-0.776,0.222-0.836,0.629
		c-0.188,1.333-0.278,2.53-0.31,3.644c-0.004,0.022-0.002,0.041-0.002,0.063c-0.074,2.735,0.229,4.904,0.514,6.872
		c0.307,2.126,0.578,3.995,0.309,6.168c-1.961-0.894-3.266-2.252-4.365-4.501c-0.379-1.932-0.587-4.131-0.494-6.735
		c0.014-0.406-0.305-0.748-0.713-0.762c-0.455,0.002-0.746,0.303-0.763,0.71c-0.252,7.148,1.703,11.582,3.271,15.147
		c1.027,2.331,1.925,4.373,2,6.663c-2.539,0.233-5.658-1.11-7.06-4.274c-0.763-1.607-1.483-3.385-2.103-5.476
		c-0.114-0.395-0.525-0.615-0.914-0.499c-0.393,0.114-0.615,0.525-0.5,0.915c0.632,2.142,1.383,3.988,2.164,5.642
		c0,0.003,0,0.005,0.001,0.006c0.007,0.019,0.017,0.031,0.022,0.047c0.746,1.571,1.519,2.976,2.242,4.287
		c2.049,3.71,3.83,6.938,4.211,12.197c-2.291-0.252-4.248-1.631-6.107-4.273c-1.182-3.125-2.787-6.026-5.262-8.579
		c-0.285-0.294-0.752-0.301-1.043-0.017c-0.293,0.281-0.302,0.75-0.018,1.043c4.724,4.869,6.141,11.281,7.64,18.072
		c1.386,6.272,2.927,13.258,7.299,20.026c-11.912-8.624-20.271-21.212-23.187-35.098c-0.006-0.029-0.025-0.053-0.033-0.081
		c0.089-4.383-0.195-9.056-1.197-11.637c-0.146-0.38-0.578-0.569-0.955-0.421c-0.38,0.147-0.567,0.577-0.42,0.957
		c1.606,4.135,1.221,14.459,0.48,18.911c-6.608-8.715-14.911-35.116-9.311-60.878c2.123-2.516,4.009-5.557,4.813-8.124
		c0.123-0.389-0.093-0.802-0.483-0.923c-0.386-0.123-0.803,0.093-0.924,0.482c-1.329,4.243-5.703,9.553-8.679,11.446
		c2.125-12.497,10.302-22.104,15.164-26.857c3.108-1.947,5.697-4.477,7.456-6.81c0.245-0.324,0.181-0.789-0.146-1.035
		c-0.327-0.241-0.789-0.18-1.033,0.146c-3.295,4.376-9.161,8.785-15.291,9.447c4.361-5.673,7.535-9.388,14.322-14.368
		c3.766-2.762,7.004-3.784,9.111-2.887c1.88,0.804,2.545,3.022,2.771,4.743c1.358,10.336,4.154,16.854,15.304,23.735
		c-11.987-1.895-26.894-4.363-27.108-4.399c-0.299-0.047-0.578,0.08-0.739,0.324c-0.06,0.09-0.093,0.18-0.147,0.271l-6.891-1.146
		c-0.399-0.063-0.782,0.208-0.848,0.606c-0.198,1.188,0.079,2.381,0.775,3.361c0.703,0.979,1.74,1.629,2.928,1.827l2.971,0.495
		c0.133,1.369,0.483,2.734,0.842,4.078c0.752,2.804,1.527,5.701,0.303,8.747c-0.133,0.328-0.014,0.702,0.283,0.896
		c0.295,0.191,0.688,0.146,0.934-0.109c6.646-6.916,13.578-9.434,23.203-8.421c7.166,0.759,10.538,4.051,11.313,4.92
		c-0.297,2.478,0.203,3.651,0.857,4.812C56.559,49.6,49.777,48.982,41.605,56.328z M20.804,33.501
		c-0.797-0.132-1.495-0.567-1.967-1.228c-0.323-0.455-0.513-0.975-0.556-1.518l5.66,0.941c-0.27,0.75-0.41,1.5-0.449,2.252
		L20.804,33.501z M77.686,77.986c0.803,3.387,1.711,7.231,2.414,11.255c0.912,5.182,0.281,9.772-0.324,14.214
		c-0.369,2.693-0.715,5.238-0.715,7.82c0,6.502,0.691,13.412,5.469,20.102c-2.117-0.429-3.619-1.479-5.307-2.658
		c-2.316-1.619-4.939-3.452-9.74-4.204c-0.895-0.142-1.83-0.214-2.787-0.214c-3.533,0-7.221,0.949-10.673,2.707
		c3.009-4.999,5.179-12.966,5.179-19.86c0-4.358-0.75-8.356-1.475-12.221c-0.692-3.673-1.344-7.141-1.344-10.744
		c0-6.764,1.848-12.364,5.64-17.113h11.603C75.77,69.862,76.664,73.654,77.686,77.986z M74.943,60c0,0.711,0.162,1.924,0.334,3.209
		c0.113,0.852,0.227,1.714,0.287,2.385H64.47c0.059-0.714,0.167-1.483,0.295-2.255c0.158-0.945,0.31-1.838,0.31-2.526
		c0-6.819-1.326-9.098-2.293-10.768c-0.734-1.265-1.22-2.101-0.865-4.604c0.027-0.19-0.023-0.384-0.137-0.539
		c-0.142-0.196-3.593-4.784-12.525-5.727c-9.214-0.971-16.098,1.139-22.537,7.021c0.297-2.517-0.338-4.89-0.916-7.047
		c-0.774-2.902-1.452-5.426-0.066-7.898c3.929,0.649,30.173,4.979,38.794,6.17c0.276,4.814,3.596,7.653,5.057,8.673
		c0.254,0.174,0.593,0.174,0.844,0c1.464-1.022,4.786-3.856,5.062-8.673c8.617-1.194,34.859-5.52,38.791-6.17
		c1.385,2.47,0.705,4.995-0.068,7.894c-0.578,2.159-1.213,4.534-0.916,7.051c-6.439-5.882-13.32-7.99-22.537-7.021
		c-8.928,0.942-12.381,5.531-12.523,5.727c-0.113,0.155-0.16,0.349-0.135,0.539c0.348,2.456-0.117,3.148-0.822,4.198
		C76.293,51.107,74.943,53.116,74.943,60z M116.523,33.949c-0.039-0.75-0.182-1.5-0.451-2.25l5.666-0.943
		c-0.111,1.354-1.127,2.515-2.521,2.746L116.523,33.949z M126.389,36.556c-0.121-0.389-0.537-0.606-0.926-0.482
		c-0.389,0.121-0.604,0.534-0.48,0.924c0.803,2.568,2.686,5.606,4.811,8.119c5.6,25.756-2.701,52.164-9.307,60.888
		c-0.742-4.451-1.127-14.771,0.477-18.912c0.148-0.379-0.039-0.809-0.42-0.955c-0.379-0.147-0.809,0.04-0.955,0.42
		c-1.002,2.58-1.285,7.256-1.197,11.639c-0.008,0.028-0.029,0.051-0.031,0.079c-2.916,13.886-11.277,26.477-23.186,35.099
		c4.371-6.77,5.912-13.754,7.299-20.026c1.5-6.792,2.914-13.204,7.639-18.072c0.285-0.294,0.277-0.764-0.018-1.043
		c-0.291-0.285-0.76-0.278-1.041,0.016c-2.475,2.553-4.08,5.455-5.262,8.578c-1.861,2.644-3.818,4.021-6.109,4.275
		c0.379-5.26,2.162-8.486,4.209-12.196c0.725-1.311,1.492-2.707,2.236-4.275c0.008-0.022,0.021-0.036,0.031-0.061
		c0.002-0.001,0.002-0.006,0.004-0.009c0.777-1.655,1.525-3.501,2.158-5.639c0.115-0.391-0.107-0.801-0.5-0.916
		c-0.389-0.116-0.801,0.106-0.912,0.5c-0.621,2.101-1.346,3.878-2.115,5.492c-1.406,3.15-4.529,4.494-7.049,4.257
		c0.076-2.29,0.975-4.329,2-6.663c1.568-3.564,3.523-8,3.271-15.146c-0.016-0.398-0.342-0.711-0.736-0.711c-0.01,0-0.018,0-0.025,0
		c-0.408,0.015-0.727,0.354-0.713,0.763c0.092,2.604-0.119,4.807-0.498,6.737c-1.098,2.245-2.402,3.605-4.363,4.498
		c-0.271-2.175,0-4.047,0.307-6.169c0.283-1.97,0.59-4.136,0.516-6.868c-0.002-0.022,0.004-0.044-0.002-0.066
		c-0.031-1.062-0.113-2.198-0.283-3.452c-0.057-0.403-0.441-0.698-0.832-0.632c-0.404,0.056-0.686,0.426-0.631,0.831
		c0.148,1.094,0.23,2.102,0.266,3.044c-1.063,1.16-2.234,1.669-3.898,1.949c3.414-8.543,2.691-15.9-1.908-20.375
		c2.762,0.804,5.801,2.4,9.117,5.369c0.141,0.126,0.316,0.187,0.492,0.187c0.201,0,0.404-0.083,0.551-0.243
		c0.27-0.304,0.244-0.773-0.059-1.043c-8.068-7.215-14.811-6.839-19.676-6c0.707-1.062,1.279-2.096,0.967-4.696
		c0.775-0.873,4.15-4.163,11.309-4.92c9.613-1.008,16.559,1.506,23.207,8.421c0.244,0.255,0.637,0.3,0.932,0.109
		c0.297-0.194,0.416-0.568,0.283-0.896c-1.229-3.045-0.449-5.945,0.301-8.75c0.359-1.343,0.709-2.707,0.842-4.075l2.977-0.495
		c2.447-0.407,4.111-2.734,3.705-5.185c-0.031-0.192-0.141-0.365-0.299-0.48c-0.156-0.113-0.359-0.158-0.549-0.128l-6.896,1.146
		c-0.055-0.09-0.092-0.178-0.148-0.269c-0.158-0.246-0.445-0.373-0.738-0.327c-0.217,0.038-15.143,2.51-27.131,4.405
		c11.154-6.883,13.951-13.402,15.309-23.74c0.227-1.719,0.891-3.937,2.768-4.742c2.113-0.899,5.35,0.126,9.115,2.887
		c6.791,4.983,9.961,8.696,14.32,14.369c-6.129-0.662-11.996-5.071-15.291-9.447c-0.248-0.326-0.709-0.388-1.035-0.146
		c-0.326,0.247-0.391,0.71-0.145,1.034c1.76,2.334,4.348,4.868,7.459,6.814c4.863,4.751,13.037,14.357,15.162,26.854
		C132.09,46.109,127.719,40.797,126.389,36.556z"/>
	<path d="M108.949,16.038c-0.381-0.148-0.811,0.033-0.961,0.411c-1.797,4.509-3.955,7.873-6.793,10.584
		c-0.293,0.281-0.305,0.748-0.023,1.042c0.146,0.152,0.34,0.227,0.533,0.227c0.184,0,0.365-0.067,0.51-0.204
		c2.996-2.864,5.266-6.391,7.143-11.104C109.512,16.619,109.326,16.19,108.949,16.038z"/>
</g>
</svg>
