<svg xmlns="http://www.w3.org/2000/svg" xmlns:xlink="http://www.w3.org/1999/xlink" version="1.1" x="0px" y="0px" viewBox="0 0 100 125" enable-background="new 0 0 100 100" xml:space="preserve"><g><path d="M49.614,13.277c0.094,0.115,0.234,0.182,0.384,0.182c0.148,0,0.29-0.067,0.384-0.182l1.104-1.354   c0.091-0.112,0.128-0.259,0.103-0.401l-1.104-6.116C50.443,5.171,50.237,5,49.998,5c-0.24,0-0.444,0.171-0.486,0.407l-1.103,6.116   c-0.025,0.142,0.012,0.288,0.103,0.4L49.614,13.277z M49.998,8.284l0.577,3.19l-0.577,0.707l-0.574-0.707L49.998,8.284z"/><path d="M41.886,14.785l4.075,1.476c0.056,0.02,0.112,0.03,0.169,0.03c0.112,0,0.224-0.038,0.312-0.111l1.813-1.476   c0.116-0.094,0.184-0.235,0.184-0.384c0-0.148-0.067-0.29-0.183-0.383l-1.813-1.479c-0.136-0.11-0.319-0.14-0.482-0.082   l-4.075,1.479c-0.196,0.071-0.326,0.257-0.326,0.465C41.56,14.528,41.689,14.714,41.886,14.785z M46.035,13.402l1.125,0.917   l-1.125,0.916l-2.527-0.916L46.035,13.402z"/><path d="M51.742,14.704l1.814,1.478c0.09,0.074,0.201,0.111,0.313,0.111c0.057,0,0.114-0.01,0.169-0.029l4.073-1.479   c0.196-0.071,0.326-0.257,0.326-0.465c0-0.208-0.13-0.394-0.326-0.465l-4.073-1.479c-0.161-0.058-0.347-0.029-0.482,0.082   l-1.814,1.479c-0.115,0.094-0.182,0.234-0.182,0.383S51.627,14.609,51.742,14.704z M53.965,13.402l2.527,0.917l-2.527,0.917   l-1.126-0.917L53.965,13.402z"/><path d="M76.811,17.74c-0.534,0-1.02,0.189-1.412,0.494h-3.923c-0.003-0.872-0.713-1.581-1.585-1.581   c-0.874,0-1.585,0.708-1.587,1.581h-2.508c-0.002-0.872-0.711-1.581-1.583-1.581c-0.874,0-1.586,0.708-1.588,1.581H52.352   c-0.203-0.26-0.439-0.492-0.714-0.673v-0.67c0-0.903-0.736-1.639-1.64-1.639s-1.638,0.735-1.638,1.639v0.67   c-0.276,0.182-0.513,0.413-0.715,0.673H37.374c-0.003-0.872-0.713-1.581-1.585-1.581c-0.874,0-1.585,0.708-1.587,1.581h-2.506   c-0.002-0.872-0.712-1.581-1.583-1.581c-0.874,0-1.586,0.708-1.589,1.581H24.6c-0.392-0.305-0.878-0.494-1.411-0.494   c-1.278,0-2.317,1.04-2.317,2.318c0,1.276,1.039,2.315,2.317,2.315c0.534,0,1.02-0.189,1.411-0.494h3.925   c0.003,0.874,0.715,1.583,1.589,1.583c0.21,0,0.41-0.043,0.594-0.118v23.752v44.521c0,0.177,0.094,0.34,0.248,0.429   c0.152,0.088,0.343,0.088,0.496-0.001l16.909-9.831v6.967l-4.4,2.506c-0.02,0.011-0.031,0.029-0.049,0.042   c-0.026,0.021-0.053,0.041-0.074,0.065c-0.021,0.023-0.037,0.051-0.054,0.079c-0.015,0.026-0.03,0.053-0.04,0.083   c-0.012,0.032-0.016,0.065-0.021,0.1c-0.002,0.02-0.012,0.039-0.012,0.061v2.388c0,0.274,0.221,0.496,0.494,0.496h11.587   c0.273,0,0.495-0.222,0.495-0.496v-2.388c0-0.022-0.01-0.041-0.013-0.061c-0.004-0.035-0.01-0.068-0.021-0.1   c-0.01-0.03-0.025-0.056-0.04-0.083c-0.017-0.028-0.032-0.056-0.054-0.079c-0.021-0.025-0.047-0.045-0.074-0.065   c-0.018-0.013-0.029-0.031-0.049-0.042l-4.399-2.506v-6.967l16.911,9.831c0.077,0.045,0.163,0.067,0.249,0.067   c0.085,0,0.171-0.022,0.247-0.066c0.154-0.089,0.248-0.252,0.248-0.429V47.096V23.343c0.185,0.075,0.386,0.119,0.598,0.119   c0.872,0,1.582-0.709,1.585-1.583h3.923c0.393,0.305,0.877,0.494,1.412,0.494c1.278,0,2.318-1.039,2.318-2.315   C79.129,18.779,78.089,17.74,76.811,17.74z M77.305,21.285c-0.152,0.062-0.319,0.098-0.494,0.098c-0.414,0-0.781-0.195-1.023-0.494   c-0.186-0.228-0.302-0.515-0.302-0.831c0-0.317,0.116-0.605,0.303-0.834c0.243-0.299,0.608-0.494,1.022-0.494   c0.175,0,0.342,0.036,0.494,0.098c0.488,0.197,0.834,0.673,0.834,1.23C78.139,20.614,77.793,21.089,77.305,21.285z M70.485,21.874   c0,0.002-0.001,0.003-0.001,0.004c-0.002,0.328-0.268,0.593-0.594,0.593c-0.328,0-0.594-0.266-0.597-0.593   c0-0.001-0.001-0.002-0.001-0.004v-0.49v-0.495v-1.666v-0.985c0-0.002,0.001-0.003,0.001-0.004   c0.003-0.326,0.269-0.591,0.597-0.591c0.326,0,0.592,0.265,0.594,0.591c0,0.001,0.001,0.002,0.001,0.004v0.985v1.666V21.874z    M68.303,87.175L55.924,75.935V53.031h12.379V87.175z M68.303,52.041H55.429c-0.273,0-0.494,0.222-0.494,0.495v22.5l-4.604-4.18   c-0.189-0.171-0.476-0.171-0.666,0l-4.604,4.181V52.536c0-0.273-0.222-0.495-0.495-0.495H31.697v-3.376   c0.229,0.111,0.483,0.18,0.756,0.18c0.965,0,1.748-0.785,1.748-1.749c0-0.417,0.342-0.758,0.76-0.758s0.759,0.34,0.759,0.758   c0,0.964,0.784,1.749,1.747,1.749c0.965,0,1.75-0.785,1.75-1.749c0-0.417,0.34-0.758,0.758-0.758s0.759,0.34,0.759,0.758   c0,0.964,0.783,1.749,1.747,1.749s1.748-0.785,1.748-1.749c0-0.417,0.34-0.758,0.758-0.758s0.758,0.34,0.758,0.758   c0,0.964,0.786,1.749,1.752,1.749c0.961,0,1.744-0.785,1.744-1.749c0-0.417,0.341-0.758,0.76-0.758c0.418,0,0.759,0.34,0.759,0.758   c0,0.964,0.783,1.749,1.745,1.749c0.966,0,1.752-0.785,1.752-1.749c0-0.417,0.339-0.758,0.756-0.758   c0.418,0,0.758,0.34,0.758,0.758c0,0.964,0.785,1.749,1.75,1.749s1.749-0.785,1.749-1.749c0-0.417,0.34-0.758,0.757-0.758   c0.418,0,0.758,0.34,0.758,0.758c0,0.964,0.785,1.749,1.75,1.749c0.963,0,1.747-0.785,1.747-1.749c0-0.417,0.341-0.758,0.761-0.758   c0.418,0,0.758,0.34,0.758,0.758c0,0.964,0.783,1.749,1.746,1.749c0.272,0,0.528-0.068,0.758-0.181V52.041z M30.113,22.472   c-0.328,0-0.596-0.266-0.598-0.593c0-0.001-0.001-0.002-0.001-0.004v-0.985v-1.666v-0.985c0-0.002,0.001-0.003,0.001-0.004   c0.002-0.326,0.27-0.591,0.598-0.591c0.326,0,0.59,0.265,0.593,0.591c0,0.001,0.001,0.002,0.001,0.004v0.985v1.666v0.495v0.49   c0,0.002-0.001,0.003-0.001,0.004C30.703,22.206,30.439,22.472,30.113,22.472z M35.191,18.238c0-0.002,0.001-0.003,0.001-0.004   c0.003-0.326,0.269-0.591,0.597-0.591c0.326,0,0.592,0.265,0.594,0.591c0,0.001,0.001,0.002,0.001,0.004v0.985v1.666v0.985   c0,0.002-0.001,0.003-0.001,0.004c-0.002,0.328-0.268,0.593-0.594,0.593c-0.328,0-0.594-0.266-0.597-0.593   c0-0.001-0.001-0.002-0.001-0.004v-0.49v-0.495v-1.666V18.238z M48.39,18.879c0.205-0.278,0.477-0.502,0.794-0.645   c0.054-0.024,0.109-0.041,0.166-0.061c0.205-0.071,0.42-0.117,0.648-0.117s0.445,0.046,0.649,0.118   c0.056,0.02,0.112,0.036,0.165,0.06c0.318,0.143,0.59,0.367,0.794,0.646c0.079,0.107,0.147,0.221,0.204,0.343   c0.118,0.255,0.188,0.536,0.188,0.834c0,0.298-0.069,0.577-0.187,0.831c-0.057,0.123-0.126,0.238-0.205,0.346   c-0.204,0.277-0.475,0.501-0.792,0.644c-0.055,0.025-0.11,0.042-0.168,0.062c-0.204,0.071-0.421,0.118-0.649,0.118   s-0.443-0.047-0.648-0.118c-0.057-0.019-0.114-0.037-0.169-0.062c-0.316-0.143-0.587-0.366-0.791-0.643   c-0.079-0.108-0.148-0.224-0.205-0.347c-0.117-0.254-0.187-0.533-0.187-0.831c0-0.299,0.07-0.58,0.188-0.834   C48.242,19.101,48.311,18.986,48.39,18.879z M63.614,18.238c0-0.002,0.001-0.003,0.001-0.004c0.003-0.326,0.27-0.591,0.598-0.591   c0.326,0,0.591,0.265,0.593,0.591c0,0.001,0.001,0.002,0.001,0.004v0.985v1.666v0.495v0.49c0,0.002-0.001,0.003-0.001,0.004   c-0.002,0.328-0.267,0.593-0.593,0.593c-0.328,0-0.595-0.266-0.598-0.593c0-0.001-0.001-0.002-0.001-0.004v-0.985v-1.666V18.238z    M68.303,47.096c0,0.419-0.34,0.759-0.758,0.759c-0.417,0-0.756-0.34-0.756-0.759c0-0.964-0.784-1.747-1.748-1.747   c-0.965,0-1.75,0.783-1.75,1.747c0,0.419-0.34,0.759-0.758,0.759c-0.419,0-0.76-0.34-0.76-0.759c0-0.964-0.784-1.747-1.748-1.747   c-0.963,0-1.746,0.783-1.746,1.747c0,0.419-0.341,0.759-0.76,0.759s-0.76-0.34-0.76-0.759c0-0.964-0.784-1.747-1.748-1.747   c-0.963,0-1.746,0.783-1.746,1.747c0,0.419-0.342,0.759-0.762,0.759c-0.416,0-0.756-0.34-0.756-0.759   c0-0.964-0.784-1.747-1.748-1.747c-0.965,0-1.75,0.783-1.75,1.747c0,0.419-0.338,0.759-0.754,0.759c-0.42,0-0.762-0.34-0.762-0.759   c0-0.964-0.784-1.747-1.748-1.747s-1.748,0.783-1.748,1.747c0,0.419-0.34,0.759-0.758,0.759s-0.757-0.34-0.757-0.759   c0-0.964-0.785-1.747-1.749-1.747s-1.748,0.783-1.748,1.747c0,0.419-0.341,0.759-0.76,0.759c-0.418,0-0.758-0.34-0.758-0.759   c0-0.964-0.784-1.747-1.748-1.747s-1.749,0.783-1.749,1.747c0,0.419-0.34,0.759-0.759,0.759c-0.417,0-0.756-0.34-0.756-0.759V42.15   h12.869c0.273,0,0.495-0.221,0.495-0.495V26.522h3.793h2.288h3.792v15.133c0,0.273,0.221,0.495,0.494,0.495h12.874V47.096z    M49.35,22.972c0.209,0.047,0.426,0.075,0.648,0.075c0.224,0,0.439-0.029,0.649-0.075v2.562H49.35V22.972z M68.303,41.161H55.924   V26.522h7.229c1.458,0,2.644-1.185,2.644-2.642v-2.002h2.506V41.161z M64.213,23.461c0.21,0,0.41-0.043,0.594-0.118v0.538   c0,0.911-0.741,1.652-1.653,1.652h-7.725h-3.791v-2.98c0.275-0.182,0.513-0.414,0.715-0.675h10.272   C62.627,22.752,63.339,23.461,64.213,23.461z M48.36,22.554v2.979h-3.794h-7.722c-0.911,0-1.653-0.741-1.653-1.652v-0.538   c0.185,0.075,0.386,0.119,0.598,0.119c0.872,0,1.582-0.709,1.585-1.583h10.27C47.847,22.14,48.083,22.372,48.36,22.554z    M36.845,26.522h7.228v14.638H31.697V21.878h2.504v2.002C34.201,25.338,35.388,26.522,36.845,26.522z M31.697,53.031h12.375v22.906   L31.697,87.175V53.031z M68.303,20.889h-2.506v-1.666h2.506V20.889z M62.625,19.223v1.666h-9.769   c0.077-0.265,0.132-0.541,0.132-0.831c0-0.291-0.055-0.567-0.134-0.834H62.625z M49.35,16.891c0-0.357,0.291-0.649,0.648-0.649   s0.649,0.292,0.649,0.649v0.251c-0.21-0.046-0.426-0.076-0.649-0.076c-0.223,0-0.439,0.029-0.648,0.076V16.891z M47.142,19.223   c-0.079,0.267-0.134,0.543-0.134,0.834c0,0.291,0.055,0.566,0.132,0.831h-9.766v-1.666H47.142z M34.201,20.889h-2.504v-1.666h2.504   V20.889z M22.693,21.285c-0.487-0.196-0.832-0.672-0.832-1.228c0-0.557,0.345-1.033,0.832-1.23c0.152-0.062,0.32-0.098,0.495-0.098   c0.413,0,0.778,0.195,1.021,0.494c0.187,0.229,0.303,0.517,0.303,0.834c0,0.316-0.116,0.603-0.302,0.831   c-0.242,0.299-0.609,0.494-1.022,0.494C23.014,21.383,22.846,21.347,22.693,21.285z M25.342,20.889   c0.1-0.259,0.16-0.537,0.16-0.831c0-0.294-0.061-0.575-0.16-0.834h3.183v1.666H25.342z M55.297,94.01H44.7v-1.399h10.597V94.01z    M53.923,91.622h-7.848l2.91-1.658h2.026L53.923,91.622z M50.647,88.974H49.35v-7.335l0.648-0.378l0.649,0.378V88.974z    M68.303,90.757L50.247,80.261c-0.153-0.09-0.345-0.09-0.497,0L31.697,90.757v-2.243l18.301-16.622l5.08,4.613l0.003,0.002   l13.222,12.007V90.757z M71.476,20.889v-1.666h3.182c-0.101,0.26-0.161,0.54-0.161,0.834c0,0.294,0.061,0.572,0.161,0.831H71.476z"/></g><text x="0" y="115" fill="#000000" font-size="5px" font-weight="bold" font-family="'Helvetica Neue', Helvetica, Arial-Unicode, Arial, Sans-serif">Created by Daniel Hammer</text><text x="0" y="120" fill="#000000" font-size="5px" font-weight="bold" font-family="'Helvetica Neue', Helvetica, Arial-Unicode, Arial, Sans-serif">from the Noun Project</text></svg>