<svg xmlns="http://www.w3.org/2000/svg" xmlns:xlink="http://www.w3.org/1999/xlink" version="1.1" x="0px" y="0px" viewBox="0 0 100 125" enable-background="new 0 0 100 100" xml:space="preserve"><g><path d="M24.087,63.328h4.3c0.273,0,0.495-0.222,0.495-0.495v-1.545c0-1.462-1.187-2.65-2.646-2.65   c-1.458,0-2.644,1.188-2.644,2.65v1.545C23.592,63.106,23.814,63.328,24.087,63.328z M24.582,61.288c0-0.915,0.742-1.66,1.654-1.66   c0.913,0,1.657,0.745,1.657,1.66v1.05h-3.311V61.288z"/><path d="M42.251,69.858h2.498c0.273,0,0.495-0.222,0.495-0.495v-2.301c0-0.962-0.781-1.743-1.743-1.743   c-0.962,0-1.745,0.781-1.745,1.743v2.301C41.757,69.637,41.978,69.858,42.251,69.858z M42.747,67.062   c0-0.415,0.338-0.754,0.755-0.754c0.415,0,0.753,0.339,0.753,0.754v1.806h-1.508V67.062z"/><path d="M52.912,69.858h2.497c0.273,0,0.495-0.222,0.495-0.495v-2.301c0-0.962-0.782-1.743-1.743-1.743s-1.744,0.781-1.744,1.743   v2.301C52.417,69.637,52.639,69.858,52.912,69.858z M53.407,67.062c0-0.415,0.338-0.754,0.754-0.754   c0.415,0,0.753,0.339,0.753,0.754v1.806h-1.507V67.062z"/><path d="M73.152,55.212c-0.793,0-1.437,0.646-1.437,1.438v5.594c0,0.273,0.221,0.495,0.495,0.495h1.888   c0.273,0,0.495-0.222,0.495-0.495V56.65C74.593,55.857,73.947,55.212,73.152,55.212z M73.603,61.749h-0.898V56.65   c0-0.248,0.201-0.449,0.448-0.449c0.249,0,0.451,0.201,0.451,0.449V61.749z"/><path d="M61.092,67.969h2.47c0.273,0,0.495-0.222,0.495-0.495v-4.92c0-1.81-1.124-2.646-1.468-2.859   c-0.158-0.099-0.361-0.1-0.521,0.001c-0.344,0.214-1.469,1.053-1.469,2.858v4.92C60.597,67.747,60.818,67.969,61.092,67.969z    M61.586,62.554c0-0.966,0.427-1.532,0.741-1.818c0.313,0.285,0.739,0.851,0.739,1.818v4.425h-1.48V62.554z"/><path d="M71.253,33.499h3.15c0.273,0,0.495-0.221,0.495-0.494v-3.636c0-1.142-0.928-2.069-2.069-2.069   c-1.142,0-2.071,0.928-2.071,2.069v3.636C70.758,33.278,70.979,33.499,71.253,33.499z M71.748,29.369   c0-0.596,0.485-1.08,1.081-1.08c0.595,0,1.08,0.484,1.08,1.08v3.141h-2.161V29.369z"/><path d="M39.8,78.494c-0.446,0-0.851,0.18-1.147,0.471c-0.296-0.291-0.701-0.471-1.148-0.471c-0.903,0-1.639,0.736-1.639,1.643   v2.48c0,0.273,0.222,0.495,0.495,0.495h2.292h2.293c0.273,0,0.495-0.222,0.495-0.495v-2.48C41.441,79.23,40.706,78.494,39.8,78.494   z M36.856,80.137c0-0.36,0.292-0.653,0.649-0.653c0.36,0,0.653,0.293,0.653,0.653v1.985h-1.303V80.137z M40.452,82.122h-1.304   v-1.985c0-0.36,0.293-0.653,0.652-0.653c0.358,0,0.651,0.293,0.651,0.653V82.122z"/><path d="M38.653,75.3c-2.449,0-4.441,1.992-4.441,4.439c0,0.273,0.221,0.495,0.495,0.495s0.495-0.222,0.495-0.495   c0-1.901,1.549-3.449,3.452-3.449s3.452,1.548,3.452,3.449c0,0.273,0.221,0.495,0.495,0.495s0.495-0.222,0.495-0.495   C43.094,77.292,41.102,75.3,38.653,75.3z"/><path d="M61.572,78.494c-0.447,0-0.852,0.18-1.148,0.471c-0.296-0.291-0.701-0.471-1.147-0.471c-0.905,0-1.642,0.736-1.642,1.643   v2.48c0,0.273,0.221,0.495,0.495,0.495h2.294h2.295c0.273,0,0.495-0.222,0.495-0.495v-2.48   C63.213,79.23,62.477,78.494,61.572,78.494z M58.625,80.137c0-0.36,0.293-0.653,0.652-0.653s0.652,0.293,0.652,0.653v1.985h-1.305   V80.137z M62.224,82.122h-1.305v-1.985c0-0.36,0.293-0.653,0.653-0.653c0.359,0,0.652,0.293,0.652,0.653V82.122z"/><path d="M60.424,75.3c-2.448,0-4.439,1.993-4.439,4.441c0,0.273,0.222,0.495,0.495,0.495c0.273,0,0.495-0.222,0.495-0.495   c0-1.902,1.548-3.451,3.45-3.451c1.904,0,3.453,1.549,3.453,3.451c0,0.273,0.222,0.495,0.495,0.495   c0.273,0,0.495-0.222,0.495-0.495C64.867,77.293,62.874,75.3,60.424,75.3z"/><path d="M77.443,46.693c-0.174,0-0.34,0.036-0.495,0.094c-0.551,0.203-0.947,0.729-0.947,1.349v2.382   c0,0.273,0.222,0.495,0.495,0.495h0.452h0.495h0.495h0.452c0.273,0,0.495-0.222,0.495-0.495v-2.382c0-0.62-0.396-1.146-0.946-1.349   C77.783,46.729,77.617,46.693,77.443,46.693z M77.895,50.022h-0.452h-0.452v-1.887c0-0.249,0.203-0.452,0.452-0.452   c0.249,0,0.452,0.203,0.452,0.452V50.022z"/><path d="M81.222,44.702l-3.284-5.922v-2.828c0-0.273-0.222-0.494-0.495-0.494h-0.491v-2.009c1.534-0.24,2.714-1.56,2.714-3.16   v-1.072c0-0.273-0.221-0.495-0.495-0.495h-2.219v-3.466c0.6-0.207,1.035-0.771,1.035-1.439c0-0.796-0.609-1.445-1.383-1.521   l-2.006-5.032c0.128-0.262,0.207-0.551,0.207-0.859c0-0.916-0.631-1.681-1.48-1.901v-1.508V7.975V5.495   C73.324,5.222,73.102,5,72.829,5s-0.495,0.222-0.495,0.495v1.143c-0.906-0.845-1.98-1.262-3.255-1.262   c-1.746,0-3.067,0.645-4.286,2.089c-0.075,0.089-0.116,0.202-0.116,0.318v2.585c-0.722,0.806-1.447,1.153-2.465,1.153   c-0.97,0-1.715-0.413-2.344-1.27V9.358c0-0.101-0.03-0.197-0.087-0.28c-0.67-0.977-1.562-1.472-2.65-1.472   c-1.115,0-1.953,0.407-2.72,1.321c-0.075,0.089-0.116,0.202-0.116,0.318v1.505c-0.661,1.065-2.347,1.631-4.49,1.419   c-0.233-0.015-0.427,0.105-0.509,0.312c-0.081,0.204-0.017,0.439,0.158,0.573c1.178,0.908,2.766,1.23,3.859,1.23   c0.536,0,1.276-0.072,1.765-0.423c0.13-0.094,0.207-0.243,0.207-0.403v-1.008c0.54-0.592,1.085-0.851,1.847-0.851   c0.719,0,1.276,0.308,1.748,0.939v1.686c0,0.101,0.03,0.198,0.087,0.28c0.824,1.199,1.916,1.808,3.247,1.808   c1.362,0,2.393-0.501,3.339-1.624c0.075-0.09,0.116-0.202,0.116-0.319v-1.374c0.996-1.137,1.996-1.61,3.412-1.61   c1.354,0,2.39,0.569,3.255,1.774v1.343c-0.848,0.221-1.479,0.985-1.479,1.901c0,0.307,0.077,0.594,0.203,0.852l-2.043,5.049   c-0.732,0.112-1.296,0.744-1.296,1.512c0,0.652,0.411,1.205,0.987,1.425v10.217h-0.492c-0.273,0-0.495,0.221-0.495,0.494v9.368   c-1.937-1.61-4.132-5.137-4.132-10.061c0-0.273-0.221-0.495-0.495-0.495s-0.495,0.222-0.495,0.495   c0,6.871-4.28,11.044-6.163,11.044h-0.029c-0.843,0-1.528,0.688-1.528,1.533c0,0.67,0.434,1.234,1.034,1.44v4.84   c0,0.273,0.222,0.495,0.495,0.495c0.489,0,1.037,0.829,1.037,1.938v0.845h-3.52c-0.897-1.644-1.48-3.531-1.48-5.487   c0-0.273-0.221-0.495-0.495-0.495h-6.229c-0.273,0-0.495,0.222-0.495,0.495c0,1.956-0.583,3.844-1.48,5.487H36.73   c-0.131,0-0.258,0.052-0.35,0.145l-5.026,5.028v-5.61v-2.619c0-0.273-0.222-0.494-0.495-0.494h-0.457v-7.978   c0.601-0.206,1.036-0.771,1.036-1.44c0-0.706-0.481-1.296-1.13-1.474l-3.592-14.08c-0.056-0.22-0.254-0.373-0.479-0.373   c-0.226,0-0.424,0.153-0.48,0.373L22.16,42.975c-0.612,0.2-1.059,0.771-1.059,1.452c0,0.646,0.403,1.197,0.97,1.421v7.997h-0.454   c-0.273,0-0.495,0.221-0.495,0.494v2.619v8.579h-1.345c-0.273,0-0.495,0.222-0.495,0.495v2.612c0,0.059,0.011,0.116,0.031,0.172   L20,70.673v9.021l-0.708,3.171c-0.003,0.012,0.001,0.024,0,0.037c-0.002,0.016-0.011,0.029-0.012,0.046L18.716,94.48   c-0.006,0.136,0.043,0.269,0.136,0.365C18.946,94.944,19.076,95,19.211,95h14.188c0.136,0,0.267-0.057,0.36-0.155   c0.093-0.1,0.142-0.233,0.133-0.369l-0.095-1.58h8.625h14.24h8.721l-0.077,1.586c-0.006,0.135,0.043,0.268,0.136,0.364   C65.536,94.944,65.666,95,65.801,95h14.185c0.136,0,0.267-0.057,0.36-0.155c0.093-0.1,0.142-0.233,0.133-0.369l-0.689-11.437   c0.002-0.023,0.013-0.043,0.013-0.066c0-0.084-0.021-0.163-0.058-0.232l-0.679-3.047v-8.122v-0.898l0.688-1.856   c0.021-0.056,0.031-0.113,0.031-0.172v-2.612c0-0.273-0.221-0.495-0.495-0.495h-1.353V54.562c1.594-0.241,2.823-1.607,2.823-3.268   v-5.858h0.028c0.175,0,0.337-0.092,0.426-0.243C81.305,45.042,81.307,44.854,81.222,44.702z M79.771,51.295   c0,1.113-0.787,2.045-1.833,2.272c-0.16,0.034-0.325,0.056-0.495,0.056s-0.335-0.021-0.495-0.056   c-1.047-0.228-1.834-1.158-1.834-2.272v-5.858h1.834h0.495h0.495h1.833V51.295z M44.48,58.072c0.964-1.695,1.628-3.638,1.72-5.669   h5.263c0.178,3.888,2.416,7.473,4.931,9.555h-5.51l-0.003-3.573h0.261c0.211,0,0.398-0.134,0.468-0.332   c0.069-0.199,0.004-0.42-0.161-0.551c-0.555-0.439-1.38-2.011-1.38-3.279c0-0.272-0.222-0.494-0.495-0.494h-1.483   c-0.273,0-0.495,0.222-0.495,0.494c0,1.269-0.825,2.84-1.38,3.279c-0.166,0.131-0.23,0.352-0.161,0.551   c0.069,0.198,0.257,0.332,0.468,0.332h0.262l0.004,3.573h-5.519c1.18-0.976,2.291-2.293,3.164-3.807   C44.449,58.125,44.469,58.101,44.48,58.072z M50.085,57.396h-2.509c0.471-0.739,0.868-1.74,0.978-2.678h0.554   C49.218,55.655,49.614,56.656,50.085,57.396z M63.092,39.352c0.832,3.306,2.585,5.701,4.262,6.952h-8.526   C60.505,45.053,62.259,42.657,63.092,39.352z M56.405,47.293h0.029h11.284h0.495h0.495h1.037c0.298,0,0.541,0.244,0.541,0.544   c0,0.298-0.243,0.541-0.541,0.541h-1.037h-0.495h-0.495H56.405c-0.297,0-0.539-0.243-0.539-0.541   C55.867,47.537,56.108,47.293,56.405,47.293z M56.9,49.367h10.818h0.495h0.495h0.542v4.256h-0.542h-0.495h-0.495H56.9V49.367z    M67.719,54.612h0.495v0.002c-0.239,0.397-0.405,0.892-0.467,1.441h-0.027h-9.314c-0.062-0.551-0.228-1.046-0.468-1.443H67.719z    M78.077,72.065v7.189H67.579v-6.857v-0.332v-0.987h10.498V72.065z M66.982,82.478l0.498-2.232h10.695l0.497,2.232H66.982z    M78.795,68.556l-0.568,1.532H67.429l-0.569-1.532v-2.028h0.859v0.76c0,0.273,0.222,0.495,0.495,0.495h1.842   c0.273,0,0.495-0.222,0.495-0.495v-0.76h0.857v0.76c0,0.273,0.222,0.495,0.495,0.495h1.848c0.273,0,0.495-0.222,0.495-0.495v-0.76   h0.856v0.76c0,0.273,0.221,0.495,0.495,0.495h1.846c0.273,0,0.495-0.222,0.495-0.495v-0.76h0.857V68.556z M76.948,66.032v0.76   h-0.856v-0.76c0-0.273-0.222-0.495-0.495-0.495h-1.846c-0.273,0-0.495,0.222-0.495,0.495v0.76h-0.859v-0.76   c0-0.273-0.221-0.495-0.495-0.495h-1.848c-0.273,0-0.495,0.222-0.495,0.495v0.76h-0.853v-0.76v-9.481   c0-1.142,0.546-1.938,1.037-1.938c0.273,0,0.495-0.222,0.495-0.495v-4.84c0.601-0.206,1.036-0.771,1.036-1.44   c0-0.846-0.687-1.533-1.53-1.533c-0.294,0-0.651-0.114-1.037-0.312v-9.544h8.24v2.333l-3.284,5.922   c-0.084,0.152-0.083,0.34,0.007,0.491c0.089,0.151,0.251,0.243,0.426,0.243h0.026v5.858c0,1.66,1.23,3.026,2.824,3.268V66.032z    M69.013,23.33c0.071-0.035,0.149-0.06,0.233-0.06h7.211c0.062,0,0.119,0.017,0.175,0.036c0.212,0.074,0.366,0.271,0.366,0.51   c0,0.297-0.243,0.539-0.541,0.539h-7.211c-0.296,0-0.538-0.242-0.538-0.539C68.708,23.602,68.835,23.418,69.013,23.33z    M71.847,16.412c0-0.003-0.002-0.006-0.002-0.008c0-0.542,0.441-0.982,0.983-0.982c0.543,0,0.985,0.44,0.985,0.982   c0,0.002-0.002,0.005-0.002,0.008c-0.001,0.185-0.067,0.348-0.158,0.494c-0.174,0.28-0.471,0.478-0.825,0.478   c-0.353,0-0.65-0.197-0.823-0.478C71.914,16.76,71.849,16.597,71.847,16.412z M72.829,18.373c0.378,0,0.727-0.111,1.027-0.295   l1.676,4.203h-5.439l1.702-4.207C72.097,18.261,72.449,18.373,72.829,18.373z M78.676,30.289c0,1.055-0.738,1.939-1.725,2.164   v-2.742h1.725V30.289z M75.962,29.217v3.788v2.451h-6.267V25.345h6.267V29.217z M76.948,44.447h-2.01l2.01-3.626l0.495-0.892   l0.495,0.892l2.011,3.626h-2.011h-0.495H76.948z M54.293,12.194v0.056v0.909c-0.402,0.144-1.297,0.224-2.386-0.042   C52.863,12.974,53.675,12.659,54.293,12.194z M55.283,10.903V9.432c0.539-0.591,1.084-0.835,1.847-0.835   c0.718,0,1.277,0.293,1.748,0.921v0.91v0.721c-0.508-0.357-1.093-0.537-1.748-0.537c-0.709,0-1.307,0.165-1.847,0.521V10.903z    M59.868,12.364v-0.657c0.664,0.539,1.439,0.804,2.344,0.804c0.957,0,1.75-0.247,2.465-0.782v1.077v1.38   c-0.722,0.806-1.447,1.138-2.465,1.138c-0.968,0-1.716-0.399-2.344-1.255V12.364z M65.667,10.569V7.967   c1.001-1.135,2-1.601,3.412-1.601c1.35,0,2.388,0.562,3.255,1.766v3.52c-0.905-0.843-1.98-1.255-3.255-1.255   c-1.341,0-2.43,0.378-3.412,1.205V10.569z M57.442,58.385v3.133c-1.056-0.783-2.077-1.86-2.922-3.133H57.442z M36.935,58.385h6.208   c-1.044,1.573-2.36,2.854-3.673,3.645c-0.022,0.014-0.038,0.033-0.057,0.05c-0.016,0.013-0.033,0.024-0.047,0.04   c-0.032,0.034-0.058,0.074-0.079,0.117c-0.005,0.01-0.013,0.019-0.018,0.029c-0.022,0.054-0.033,0.113-0.035,0.176   c0,0.004-0.002,0.008-0.002,0.012v8.13c0,0.273,0.221,0.495,0.495,0.495s0.495-0.222,0.495-0.495v-7.635h6.567l0.009,7.636   c0,0.272,0.222,0.494,0.495,0.494c0,0,0,0,0.001,0c0.273,0,0.494-0.223,0.494-0.495v-0.001l-0.009-7.634l-0.001-0.495v-0.495   l-0.004-3.573h2.118l0.004,3.573v0.495l0.001,0.495l0.009,7.635v0.001c0,0.272,0.221,0.494,0.495,0.494c0,0,0,0,0.001,0   c0.273,0,0.495-0.223,0.494-0.496l-0.009-7.634h6.557v7.624c0,0.273,0.221,0.495,0.495,0.495s0.495-0.222,0.495-0.495v-8.119V57.89   v-0.845h9.288v8.492h-1.354c-0.273,0-0.495,0.222-0.495,0.495v2.612c0,0.059,0.01,0.116,0.031,0.172l0.689,1.856v0.898v0.331   h-1.351c-0.273,0-0.495,0.222-0.495,0.495v0.76h-0.858v-0.76c0-0.273-0.221-0.495-0.495-0.495h-1.846   c-0.273,0-0.495,0.222-0.495,0.495v0.76h-0.857v-0.76c0-0.273-0.221-0.495-0.495-0.495h-1.847c-0.273,0-0.495,0.222-0.495,0.495   v0.76H56.5v-0.76c0-0.273-0.222-0.495-0.495-0.495h-1.845c-0.273,0-0.495,0.222-0.495,0.495v0.76h-0.858v-0.76   c0-0.273-0.222-0.495-0.495-0.495h-1.846c-0.273,0-0.495,0.222-0.495,0.495v0.76h-0.858v-0.76c0-0.273-0.221-0.495-0.495-0.495   h-1.848c-0.273,0-0.495,0.222-0.495,0.495v0.76h-0.857v-0.76c0-0.273-0.222-0.495-0.495-0.495h-1.846   c-0.273,0-0.495,0.222-0.495,0.495v0.76h-0.857v-0.76c0-0.273-0.221-0.495-0.495-0.495H39.39c-0.273,0-0.495,0.222-0.495,0.495   v0.76h-0.858v-0.76c0-0.273-0.221-0.495-0.495-0.495h-1.848c-0.273,0-0.495,0.222-0.495,0.495v0.76h-0.858v-0.76   c0-0.273-0.222-0.495-0.495-0.495h-1.371v-1.229l0.688-1.856c0.02-0.056,0.031-0.113,0.031-0.172v-2.612   c0-0.273-0.222-0.495-0.495-0.495h-1.347v-1.569L36.935,58.385z M20.271,66.527h0.851h0.005v0.76c0,0.271,0.219,0.49,0.49,0.494   c0.001,0,0.003,0.001,0.005,0.001h0.489h1.356c0.273,0,0.495-0.222,0.495-0.495v-0.76h0.859v0.76c0,0.273,0.222,0.495,0.495,0.495   h1.844c0.273,0,0.495-0.222,0.495-0.495v-0.76h0.857v0.76c0,0.273,0.221,0.495,0.495,0.495h1.357h0.491   c0.002,0,0.002-0.001,0.004-0.001c0.271-0.002,0.491-0.222,0.491-0.494v-0.76h0.003h0.853v2.028l-0.569,1.532H20.84l-0.569-1.532   V66.527z M22.111,55.844v-1.01h0.455h0.401v0.76c0,0.02,0.009,0.036,0.012,0.055c0.006,0.061,0.021,0.117,0.047,0.168   c0.083,0.16,0.244,0.272,0.436,0.272h1.851c0.254,0,0.455-0.194,0.483-0.44c0.002-0.019,0.011-0.035,0.011-0.055v-0.76h0.858v0.76   c0,0.02,0.009,0.036,0.011,0.055c0.028,0.246,0.229,0.44,0.483,0.44h1.853c0.19,0,0.352-0.111,0.434-0.27   c0.027-0.053,0.042-0.109,0.049-0.171c0.002-0.019,0.011-0.035,0.011-0.055v-0.76h0.4h0.456v1.006v1.118v6.79v0.037v2.229   c0,0.006-0.003,0.012-0.003,0.018v0.76h-0.859v-0.76c0-0.273-0.221-0.495-0.495-0.495h-1.847c-0.273,0-0.495,0.222-0.495,0.495   v0.76h-0.854v-0.76c0-0.273-0.221-0.495-0.495-0.495h-1.849c-0.273,0-0.495,0.222-0.495,0.495v0.76h-0.856v-0.76   c0-0.01-0.004-0.017-0.005-0.026v-9.048V55.844z M26.236,30.998l3.035,11.896h-6.068L26.236,30.998z M22.628,43.883h7.28   c0.298,0,0.541,0.244,0.541,0.544c0,0.298-0.243,0.541-0.541,0.541h-7.28c-0.296,0-0.538-0.243-0.538-0.541   C22.09,44.127,22.332,43.883,22.628,43.883z M23.061,45.957h6.353v7.888h-0.4c-0.273,0-0.495,0.221-0.495,0.494V55.1h-0.863v-0.761   c0-0.273-0.222-0.494-0.495-0.494h-1.847c-0.273,0-0.495,0.221-0.495,0.494V55.1h-0.861v-0.761c0-0.273-0.221-0.494-0.495-0.494   h-0.402V45.957z M31.488,79.255H20.99v-8.177h10.498V79.255z M20.892,80.245h10.694l0.498,2.232H20.394L20.892,80.245z    M19.73,94.011l0.517-10.544h11.99l0.635,10.544H19.73z M50.142,76.309c0,0.308-0.231,0.551-0.525,0.589   c-0.025,0.003-0.047,0.015-0.073,0.015c-0.026,0-0.048-0.012-0.074-0.015c-0.294-0.039-0.525-0.282-0.525-0.589   c0-0.113,0.04-0.212,0.094-0.303c0.105-0.174,0.287-0.296,0.504-0.296c0.216,0,0.398,0.122,0.502,0.295   C50.102,76.096,50.142,76.195,50.142,76.309z M48.556,78.563v-0.347c0-0.217,0.055-0.404,0.137-0.567   c0.246,0.157,0.537,0.252,0.851,0.252c0.313,0,0.604-0.094,0.85-0.252c0.082,0.164,0.136,0.351,0.136,0.567v0.347   c0,0.219,0.145,0.412,0.354,0.475c1.762,0.524,3.243,2.047,4.186,4.101c-1.389-1.469-3.35-2.391-5.526-2.391   s-4.137,0.922-5.526,2.39c0.943-2.052,2.424-3.575,4.186-4.1C48.412,78.976,48.556,78.782,48.556,78.563z M42.917,88.359   c0-0.232,0.024-0.458,0.036-0.688c0.346-3.329,3.169-5.934,6.59-5.934s6.243,2.604,6.588,5.935   c0.011,0.229,0.036,0.455,0.036,0.688v3.547h-13.25V88.359z M57.157,91.906v-3.547c0-4.829-2.3-8.936-5.637-10.153   c-0.002-0.514-0.17-0.99-0.477-1.394c0.053-0.159,0.089-0.326,0.089-0.504c0-0.876-0.712-1.589-1.587-1.589   s-1.588,0.713-1.588,1.589c0,0.178,0.036,0.345,0.09,0.504c-0.309,0.403-0.477,0.88-0.479,1.395   c-3.289,1.212-5.639,5.403-5.639,10.152v3.547h-8.189l-0.536-8.874c0.003-0.021,0.013-0.039,0.013-0.06   c0-0.084-0.021-0.163-0.058-0.232l-0.68-3.047v-6.802h0.875v0.761c0,0.273,0.222,0.495,0.495,0.495h1.847   c0.273,0,0.495-0.222,0.495-0.495v-0.761h0.857v0.761c0,0.273,0.222,0.495,0.495,0.495h1.847c0.273,0,0.495-0.222,0.495-0.495   v-0.761h0.854v0.761c0,0.273,0.222,0.495,0.495,0.495h1.847c0.273,0,0.495-0.222,0.495-0.495v-0.761h0.856v0.761   c0,0.273,0.222,0.495,0.495,0.495h1.846c0.273,0,0.495-0.222,0.495-0.495v-0.761h0.858v0.761c0,0.273,0.221,0.495,0.495,0.495   h1.848c0.273,0,0.495-0.222,0.495-0.495v-0.761h0.856v0.761c0,0.273,0.222,0.495,0.495,0.495h1.847   c0.273,0,0.495-0.222,0.495-0.495v-0.761h0.855v0.761c0,0.273,0.222,0.495,0.495,0.495h1.847c0.273,0,0.495-0.222,0.495-0.495   v-0.761h0.857v0.761c0,0.273,0.221,0.495,0.495,0.495h1.847c0.273,0,0.495-0.222,0.495-0.495v-0.761h0.856v0.761   c0,0.273,0.222,0.495,0.495,0.495h1.847c0.273,0,0.495-0.222,0.495-0.495v-0.761h0.856v6.802l-0.708,3.171   c-0.002,0.012,0.002,0.024,0,0.038c-0.002,0.016-0.01,0.029-0.011,0.046l-0.438,8.958H57.157z M66.32,94.011l0.515-10.544h11.989   l0.635,10.544H66.32z"/><path d="M26.236,51.756c1.089,0,1.975-0.883,1.975-1.97s-0.886-1.971-1.975-1.971c-1.088,0-1.973,0.884-1.973,1.971   S25.148,51.756,26.236,51.756z M26.236,48.805c0.543,0,0.985,0.44,0.985,0.981s-0.442,0.98-0.985,0.98   c-0.542,0-0.984-0.439-0.984-0.98S25.694,48.805,26.236,48.805z"/></g><text x="0" y="115" fill="#000000" font-size="5px" font-weight="bold" font-family="'Helvetica Neue', Helvetica, Arial-Unicode, Arial, Sans-serif">Created by Daniel Hammer</text><text x="0" y="120" fill="#000000" font-size="5px" font-weight="bold" font-family="'Helvetica Neue', Helvetica, Arial-Unicode, Arial, Sans-serif">from the Noun Project</text></svg>