<svg xmlns="http://www.w3.org/2000/svg" xmlns:xlink="http://www.w3.org/1999/xlink" version="1.1" x="0px" y="0px" viewBox="0 0 100 125" enable-background="new 0 0 100 100" xml:space="preserve"><g><path d="M93.237,11.394h-3.919V8.207V5.495C89.318,5.222,89.098,5,88.823,5H80.25c-0.272,0-0.494,0.222-0.494,0.495v2.712v3.187   H72.05V8.207V5.495C72.05,5.222,71.828,5,71.556,5h-8.574c-0.272,0-0.494,0.222-0.494,0.495v2.712v3.187h-7.706V8.207V5.495   C54.781,5.222,54.56,5,54.287,5h-8.574c-0.274,0-0.496,0.222-0.496,0.495v2.712v3.187h-7.702V8.207V5.495   C37.515,5.222,37.293,5,37.019,5h-8.574c-0.274,0-0.496,0.222-0.496,0.495v2.712v3.187h-7.703V8.207V5.495   C20.245,5.222,20.024,5,19.75,5h-8.573c-0.272,0-0.494,0.222-0.494,0.495v2.712v3.187h-3.92c-0.273,0-0.495,0.222-0.495,0.495   v7.983c0,0.273,0.222,0.495,0.495,0.495h3.412v74.139c0,0.272,0.222,0.494,0.494,0.494h10.36h4.445h1.528   c0.272,0,0.493-0.222,0.493-0.494V68.019c0-0.904,0.018-1.783,0.044-2.649h4.922v2.773c-0.227-0.173-0.369-0.318-0.372-0.322   c-0.162-0.171-0.422-0.204-0.621-0.083c-0.198,0.123-0.284,0.369-0.205,0.589l2.25,6.203c0.07,0.197,0.257,0.327,0.466,0.327   c0.207,0,0.394-0.13,0.464-0.327l2.25-6.203c0.081-0.22-0.005-0.466-0.204-0.589c-0.202-0.123-0.459-0.089-0.62,0.081   c-0.004,0.003-0.146,0.149-0.375,0.323V65.37h4.977v2.773c-0.227-0.173-0.369-0.318-0.372-0.322   c-0.162-0.171-0.422-0.204-0.621-0.083c-0.198,0.123-0.284,0.369-0.205,0.589l2.25,6.203c0.07,0.197,0.256,0.327,0.466,0.327   c0.207,0,0.394-0.13,0.464-0.327l2.252-6.203c0.08-0.22-0.006-0.467-0.206-0.59c-0.198-0.122-0.459-0.089-0.62,0.083   c-0.004,0.003-0.146,0.148-0.375,0.322V65.37h4.975v2.76c-0.218-0.167-0.352-0.306-0.354-0.309   c-0.162-0.171-0.422-0.204-0.621-0.083c-0.2,0.123-0.286,0.369-0.205,0.589l2.25,6.201c0.07,0.195,0.256,0.325,0.466,0.325   c0.207,0,0.394-0.13,0.464-0.325l2.25-6.201c0.081-0.22-0.006-0.467-0.206-0.59c-0.198-0.122-0.459-0.089-0.62,0.083   c-0.004,0.003-0.151,0.153-0.387,0.331V65.37h4.975v2.772c-0.227-0.173-0.369-0.317-0.373-0.321   c-0.161-0.171-0.422-0.204-0.62-0.083c-0.199,0.123-0.287,0.369-0.206,0.589l2.252,6.201c0.07,0.195,0.257,0.325,0.466,0.325   c0.207,0,0.394-0.13,0.464-0.325l2.25-6.201c0.081-0.22-0.005-0.467-0.205-0.59c-0.199-0.122-0.459-0.089-0.621,0.083   c-0.003,0.003-0.146,0.147-0.374,0.32V65.37h4.977v2.772c-0.229-0.173-0.369-0.318-0.373-0.322   c-0.162-0.171-0.422-0.205-0.62-0.082c-0.199,0.123-0.285,0.369-0.206,0.589l2.252,6.202c0.072,0.196,0.257,0.326,0.466,0.326   c0.207,0,0.394-0.13,0.464-0.326l2.248-6.202c0.081-0.22-0.005-0.467-0.205-0.59c-0.199-0.122-0.459-0.089-0.621,0.083   c-0.003,0.003-0.144,0.147-0.372,0.32V65.37h4.932c0.025,0.866,0.043,1.745,0.043,2.649v26.487c0,0.272,0.221,0.494,0.495,0.494   h1.527h4.446h10.358c0.274,0,0.496-0.222,0.496-0.494V20.367h3.41c0.273,0,0.495-0.221,0.495-0.495v-7.983   C93.732,11.616,93.511,11.394,93.237,11.394z M80.746,5.99h7.583v1.722h-7.583V5.99z M63.478,5.99h7.583v1.722h-7.583V5.99z    M46.207,5.99h7.585v1.722h-7.585V5.99z M28.938,5.99h7.587v1.722h-7.587V5.99z M11.673,5.99h7.583v1.722h-7.583V5.99z    M7.257,12.384h3.426v1.104c0,0.273,0.222,0.495,0.494,0.495c0.274,0,0.496-0.222,0.496-0.495v-1.6V8.702h7.583v3.187v1.6   c0,0.273,0.222,0.495,0.494,0.495c0.274,0,0.495-0.222,0.495-0.495v-1.104h7.703v1.104c0,0.273,0.222,0.495,0.496,0.495   c0.272,0,0.493-0.222,0.493-0.495v-1.6V8.702h7.587v3.187v1.6c0,0.273,0.222,0.495,0.494,0.495c0.274,0,0.496-0.222,0.496-0.495   v-1.104h7.702v1.104c0,0.273,0.222,0.495,0.496,0.495c0.272,0,0.494-0.222,0.494-0.495v-1.6V8.702h7.585v3.187v1.6   c0,0.273,0.221,0.495,0.495,0.495c0.272,0,0.494-0.222,0.494-0.495v-1.104h7.706v1.104c0,0.273,0.222,0.495,0.494,0.495   c0.274,0,0.496-0.222,0.496-0.495v-1.6V8.702h7.583v3.187v1.6c0,0.273,0.222,0.495,0.495,0.495c0.272,0,0.494-0.222,0.494-0.495   v-1.104h7.706v1.104c0,0.273,0.222,0.495,0.494,0.495c0.274,0,0.496-0.222,0.496-0.495v-1.6V8.702h7.583v3.187v1.6   c0,0.273,0.222,0.495,0.494,0.495c0.274,0,0.495-0.222,0.495-0.495v-1.104h3.425v4.319H7.257V12.384z M15.903,20.367v5.312h-4.738   v-5.312H15.903z M79.466,87.174v-5.842h9.371v5.842H79.466z M66.314,26.667v5.844h-0.086c-2.832-2.374-6.152-4.305-9.983-5.844   H66.314z M77.517,26.667v5.844H67.304v-5.844H77.517z M88.837,66.676h-4.729v-5.843h4.729V66.676z M88.837,73.509h-9.371v-2.752   c0-1.052-0.018-2.078-0.045-3.09h9.416V73.509z M83.119,66.676h-3.73c-0.073-2.027-0.2-3.976-0.389-5.843h4.119V66.676z    M79.466,74.499h3.653v5.844h-3.653V74.499z M84.108,74.499h4.729v5.844h-4.729V74.499z M78.507,40.334h10.33v5.842h-10.33V40.334z    M84.108,47.167h4.729v5.843h-4.729V47.167z M88.837,39.344h-4.729v-5.843h4.729V39.344z M83.119,39.344H72.906v-5.843h10.213   V39.344z M71.916,33.501v5.295c-1.332-1.95-2.846-3.714-4.558-5.295H71.916z M77.517,40.334v5.842h-1.771   c-0.809-2.103-1.755-4.045-2.841-5.842H77.517z M83.119,47.167v5.843h-5.341c-0.457-2.067-1.016-4.01-1.668-5.843H83.119z    M88.837,54v5.844h-9.943C78.661,57.8,78.357,55.854,77.98,54H88.837z M88.837,32.512h-10.33v-5.844h10.33V32.512z M83.119,25.678   H72.906v-5.312h10.213V25.678z M71.916,25.678H61.702v-5.312h10.214V25.678z M60.712,25.678h-6.893   c-0.056,0-0.106,0.015-0.158,0.032c-1.02-0.344-2.074-0.662-3.16-0.958v-4.386h10.211V25.678z M49.512,24.749   c-1.078,0.293-2.124,0.609-3.137,0.95c-0.035-0.008-0.066-0.021-0.102-0.021h-6.975v-5.312h10.213V24.749z M11.165,87.174v-5.842   h9.369v5.842H11.165z M21.504,26.667v5.844H11.165v-5.844H21.504z M32.707,26.667v5.844H22.494v-5.844H32.707z M27.106,39.344   H16.894v-5.843h10.213V39.344z M21.504,46.177H11.165v-5.842h5.192c0.014,0.001,0.026,0.008,0.042,0.008   c0.014,0,0.026-0.007,0.04-0.008h5.064V46.177z M15.903,53.01h-4.738v-5.843h4.738V53.01z M20.579,67.666   c-0.026,1.013-0.045,2.038-0.045,3.09v2.752h-9.369v-5.843H20.579z M11.165,74.499h4.738v5.844h-4.738V74.499z M16.894,74.499   h3.641v5.844h-3.641V74.499z M20.611,66.676h-3.718v-5.843h4.107C20.813,62.7,20.685,64.649,20.611,66.676z M15.903,66.676h-4.738   v-5.843h4.738V66.676z M15.903,39.344h-4.738v-5.843h4.738V39.344z M21.108,59.844h-9.943V54h10.855   C21.643,55.854,21.339,57.8,21.108,59.844z M22.223,53.01h-5.329v-5.843h6.996C23.237,49,22.68,50.943,22.223,53.01z    M24.257,46.177h-1.763v-5.842h4.604C26.011,42.131,25.063,44.074,24.257,46.177z M28.096,38.779v-5.278h4.548   C30.937,35.077,29.427,36.836,28.096,38.779z M33.771,32.512h-0.075v-5.844h10.06C39.924,28.207,36.604,30.138,33.771,32.512z    M38.309,25.678H28.096v-5.312h10.213V25.678z M27.106,25.678H16.894v-5.312h10.213V25.678z M11.165,88.164h4.738v5.846h-4.738   V88.164z M16.894,88.164h3.641v5.846h-3.641V88.164z M56.488,34.661v5.621h-4.975v-7.541   C53.294,33.287,54.948,33.927,56.488,34.661z M66.539,65.37v3.286c-0.169,0.049-0.343,0.086-0.523,0.086   c-0.185,0-0.36-0.037-0.529-0.086V65.37v-0.99v-1.054v-0.99v-7.995v-0.99v-1.053v-0.99v-7.996v-0.989v-0.711   c0.188,0.233,0.371,0.47,0.55,0.711c0.171,0.228,0.342,0.455,0.503,0.689v0.3v7.996v0.99v1.053v0.99v7.995v0.99v1.054V65.37z    M64.757,69.445c0.072,0.033,0.156,0.047,0.233,0.073c0.637,0.214,1.405,0.215,2.045,0c0.077-0.026,0.163-0.041,0.235-0.074   l-0.338,0.935l-0.917,2.53l-0.92-2.53L64.757,69.445z M58.53,65.37v3.286c-0.168,0.049-0.343,0.086-0.523,0.086   c-0.185,0-0.36-0.037-0.529-0.086V65.37v-0.99v-1.054v-0.99v-7.995v-0.99v-1.053v-0.99v-7.996v-0.989v-1.053v-0.99v-5.124   c0.357,0.186,0.709,0.379,1.053,0.578v4.546v0.99v1.053v0.989v7.996v0.99v1.053v0.99v7.995v0.99v1.054V65.37z M56.75,69.447   c0.072,0.032,0.156,0.045,0.232,0.072c0.636,0.215,1.406,0.215,2.044,0c0.077-0.026,0.163-0.041,0.235-0.074l-0.339,0.935   l-0.916,2.528l-0.919-2.528L56.75,69.447z M50.523,65.37v3.29c-0.165,0.047-0.335,0.083-0.511,0.083   c-0.19,0-0.369-0.039-0.545-0.09V65.37v-0.99v-1.054v-0.99v-7.995v-0.99v-1.053v-0.99v-7.996v-0.989v-1.053v-0.99v-7.824   c0.179-0.05,0.352-0.104,0.532-0.152c0.178,0.047,0.348,0.1,0.523,0.149v7.827v0.99v1.053v0.989v7.996v0.99v1.053v0.99v7.995v0.99   v1.054V65.37z M48.756,69.447c0.066,0.03,0.146,0.042,0.218,0.067c0.635,0.218,1.404,0.221,2.044,0.009   c0.083-0.027,0.174-0.043,0.25-0.078l-0.34,0.935l-0.915,2.528l-0.918-2.528L48.756,69.447z M42.512,65.37v3.286   c-0.169,0.049-0.343,0.086-0.523,0.086c-0.184,0-0.359-0.036-0.527-0.085V65.37v-0.99v-1.054v-0.99v-7.995v-0.99v-1.053v-0.99   v-7.996v-0.989v-1.053v-0.99v-4.541c0.344-0.199,0.694-0.391,1.051-0.579v5.119v0.99v1.053v0.989v7.996v0.99v1.053v0.99v7.995v0.99   v1.054V65.37z M40.731,69.447c0.071,0.032,0.158,0.046,0.235,0.072c0.636,0.215,1.402,0.215,2.041,0   c0.077-0.026,0.163-0.041,0.237-0.074l-0.34,0.935l-0.917,2.531l-0.92-2.531L40.731,69.447z M34.505,65.37v3.286   c-0.169,0.049-0.345,0.086-0.525,0.086c-0.183,0-0.358-0.036-0.527-0.085V65.37v-0.99v-1.054v-0.99v-7.995v-0.99v-1.053v-0.99   v-7.996v-0.287c0.167-0.239,0.339-0.47,0.512-0.702c0.177-0.237,0.356-0.47,0.541-0.7v0.7v0.989v7.996v0.99v1.053v0.99v7.995v0.99   v1.054V65.37z M32.723,69.447c0.072,0.032,0.158,0.046,0.235,0.072c0.637,0.215,1.404,0.215,2.043,0   c0.077-0.026,0.161-0.041,0.235-0.074l-0.34,0.935l-0.917,2.531l-0.92-2.531L32.723,69.447z M40.471,51.31h-4.977v-7.996h4.977   V51.31z M35.494,52.299h4.977v1.053h-4.977V52.299z M40.471,42.325h-4.977v-1.053h4.977V42.325z M35.494,54.342h4.977v7.995h-4.977   V54.342z M48.478,51.31h-4.975v-7.996h4.975V51.31z M43.503,52.299h4.975v1.053h-4.975V52.299z M48.478,42.325h-4.975v-1.053h4.975   V42.325z M43.503,54.342h4.975v7.995h-4.975V54.342z M56.488,51.31h-4.975v-7.996h4.975V51.31z M51.514,52.299h4.975v1.053h-4.975   V52.299z M56.488,42.325h-4.975v-1.053h4.975V42.325z M51.514,54.342h4.975v7.995h-4.975V54.342z M64.497,51.31h-4.977v-7.996   h4.977V51.31z M59.521,52.299h4.977v1.053h-4.977V52.299z M64.497,42.325h-4.977v-1.053h4.977V42.325z M59.521,54.342h4.977v7.995   h-4.977V54.342z M70.988,53.352h-3.459v-1.053h3.188C70.812,52.646,70.902,52.996,70.988,53.352z M67.529,54.342h3.692   c0.533,2.445,0.896,5.105,1.096,7.995h-4.788V54.342z M67.529,51.31v-6.746c1.188,2.006,2.158,4.246,2.91,6.746H67.529z    M59.521,40.281v-3.948c1.8,1.139,3.397,2.451,4.804,3.948H59.521z M48.478,40.281h-4.975v-5.616   c1.538-0.734,3.194-1.375,4.975-1.922V40.281z M40.471,40.281h-4.795c1.404-1.494,3-2.805,4.795-3.943V40.281z M32.462,51.31   h-2.901c0.75-2.494,1.719-4.728,2.901-6.73V51.31z M29.282,52.299h3.18v1.053h-3.45C29.1,52.996,29.189,52.646,29.282,52.299z    M28.779,54.342h3.683v7.995h-4.777C27.885,59.447,28.247,56.787,28.779,54.342z M27.572,64.38   c0.014-0.356,0.035-0.704,0.055-1.054h4.835v1.054H27.572z M35.494,64.38v-1.054h4.977v1.054H35.494z M43.503,64.38v-1.054h4.975   v1.054H43.503z M51.514,64.38v-1.054h4.975v1.054H51.514z M59.521,64.38v-1.054h4.977v1.054H59.521z M67.529,64.38v-1.054h4.844   c0.02,0.35,0.041,0.698,0.057,1.054H67.529z M73.34,62.86c0-0.011,0.006-0.019,0.006-0.029c0-0.019-0.009-0.034-0.011-0.052   c-0.251-4.101-0.819-7.761-1.721-11.016c-0.018-0.061-0.035-0.122-0.051-0.182c-2.977-10.532-9.507-16.785-20.335-19.947   c-0.029-0.015-0.063-0.02-0.097-0.029c-0.336-0.097-0.661-0.201-1.004-0.292c-0.084-0.022-0.17-0.022-0.255,0   c-0.363,0.097-0.717,0.201-1.07,0.304c-0.009,0.002-0.018,0.004-0.026,0.007c-7.236,2.11-12.542,5.613-16.159,10.839   c-0.039,0.037-0.067,0.082-0.094,0.129c-1.754,2.57-3.114,5.547-4.085,8.988c-0.018,0.061-0.033,0.122-0.051,0.182   c-0.171,0.612-0.33,1.236-0.477,1.878c-0.012,0.056-0.026,0.109-0.04,0.166c-0.604,2.708-1,5.681-1.202,8.924   c-0.008,0.033-0.021,0.064-0.021,0.1c0,0.021,0.009,0.037,0.013,0.056c-0.039,0.636-0.069,1.282-0.094,1.939   c-0.002,0.017-0.009,0.032-0.009,0.048c0,0.012,0.006,0.023,0.007,0.035c-0.035,1.014-0.058,2.044-0.058,3.109V94.01h-1.032h-3.951   v-6.341v-6.832v-6.834v-3.247c0-17.917,3.968-29.891,12.821-37.393c0.004-0.004,0.009-0.008,0.015-0.012   c4.123-3.49,9.304-6.016,15.641-7.713c19.958,5.348,28.477,18.85,28.477,45.119v3.247v6.834v6.832v6.341h-3.95h-1.033V68.019   C73.493,66.225,73.44,64.51,73.34,62.86z M79.466,88.164h3.653v5.846h-3.653V88.164z M88.837,94.01h-4.729v-5.846h4.729V94.01z    M88.837,25.678h-4.729v-5.312h4.729V25.678z M92.743,19.377H7.257v-1.685h85.486V19.377z"/></g><text x="0" y="115" fill="#000000" font-size="5px" font-weight="bold" font-family="'Helvetica Neue', Helvetica, Arial-Unicode, Arial, Sans-serif">Created by Daniel Hammer</text><text x="0" y="120" fill="#000000" font-size="5px" font-weight="bold" font-family="'Helvetica Neue', Helvetica, Arial-Unicode, Arial, Sans-serif">from the Noun Project</text></svg>