<?xml version="1.0" encoding="utf-8"?>
<!-- Generator: Adobe Illustrator 16.0.3, SVG Export Plug-In . SVG Version: 6.00 Build 0)  -->
<!DOCTYPE svg PUBLIC "-//W3C//DTD SVG 1.1//EN" "http://www.w3.org/Graphics/SVG/1.1/DTD/svg11.dtd">
<svg version="1.1" id="Layer_1" xmlns="http://www.w3.org/2000/svg" xmlns:xlink="http://www.w3.org/1999/xlink" x="0px" y="0px"
	 width="960px" height="560px" viewBox="0 0 960 560" enable-background="new 0 0 960 560" xml:space="preserve">
<path fill="none" stroke="#000000" stroke-miterlimit="10" d="M894.352,424.336c0-1.344,1.345-3.136-0.447-4.928
	s-4.032-14.784-8.064-21.952s-35.84-69.44-53.312-90.496c-17.473-21.056-68.992-68.096-101.248-85.568
	C699.024,204.368,626,184.656,615.696,183.76c-10.305-0.896-22.4-3.584-22.849-4.928c-0.447-1.344-4.928-3.584-11.2-4.032
	c0,0-4.479,0-5.823,0c-1.345,0-2.688,0.448-3.584,1.344c-0.896,1.344-5.376,5.376-5.376,5.376s-2.688,4.032-0.896,6.272
	c1.792,2.24,4.032,4.48,4.032,5.376c0,0.448,1.792,1.344,1.792,0.448c0-0.896-2.24-4.48-2.24-5.824c0-1.344,0-2.688,0.896-2.688
	c0.896,0,1.344-0.896,1.344-1.344c0-0.448,4.928-2.688,4.928-2.24c0,0.448,1.344,1.344,3.136,0.896c1.792,0,4.48-0.448,5.376-0.896
	c2.688-1.344,8.064,4.928,8.96,5.824c0.896,0.896,2.24,3.584,3.585,4.032c1.344,0.448,4.031,1.792,5.823,2.688
	s4.48-0.896,12.544,0.896c8.064,1.344,21.057,8.96,24.192,10.752s29.568,12.544,39.872,31.36s14.336,36.288,11.647,45.249
	c-2.688,8.959-3.584,13.888-11.647,18.815c-8.064,4.928-12.544,7.616-15.232,8.96c-3.584,2.688-19.264,5.824-21.504,4.48
	c-2.24-1.345-2.24-3.584-1.344-4.929c1.344-3.136,6.271-1.792,6.271-1.792c-0.447-2.24-0.896-4.031-0.896-4.928
	c0.448-1.344,1.792-1.344,1.792-1.344c0-1.792-3.136-4.032-4.48-5.824c-0.896-1.344,1.792-1.344,1.792-1.344
	c-0.896-2.24-2.239-4.48-1.344-6.271c0.896-1.345,2.688,0,3.136,0c0.448,0,0.896-1.793,3.137-1.793c1.792,0,3.584,0.896,6.72,2.688
	c0,0-7.168-7.168-9.408-11.2c-2.24-4.032-2.24-10.304-2.24-11.648s1.345-2.688,3.584-2.688c2.24,0.448,3.137,0.448,4.032,0.896
	c0.896,0.448,1.344,1.344,2.688,1.344c1.344,0,1.344-1.792,2.688-1.792s2.24,0.896,3.584,0c1.344-0.896,3.584,0.896,4.48,0.896
	c0.896,0.448-10.305-8.96-17.473-12.096c-7.168-3.136-10.752-2.688-15.231-6.72c-4.48-4.032-9.408-9.856-9.408-11.648
	c0-0.896,1.344,0.448,1.792-1.792c0.448-2.24,0.448-3.584,2.688-4.032c2.239-0.448,3.584-0.896,4.479-2.24
	c0.896-1.344,3.136-3.136,5.376-3.584c2.24-0.448,8.064,0,10.752,1.344c2.688,1.344,3.584-0.448,0-1.792
	c-3.136-1.344-5.376-4.48-12.992-4.928c-7.615-0.448-4.031-1.344-8.96-1.344c-4.928,0-8.512,0.448-10.304,0
	c-1.792-0.448-4.928-1.344-5.824-0.448c-0.896,0.448-3.136,1.344-0.896-0.896c2.239-2.24,5.824-6.72,5.824-8.96
	s-1.792-1.792-2.688,0s-3.136,2.688-4.032,3.584c-0.896,0.896-4.032,1.344-5.376,1.792c-4.479,0.448-12.992,1.792-15.231,2.24
	c-2.24,0.448-6.721-0.448-8.064-0.448s-2.24,1.344-4.032,0.448c-1.792-0.896-2.688-0.896-3.584,0
	c-0.896,0.896-2.688,1.792-3.136,1.792c-2.24-0.896,1.792-6.72,2.688-6.72c0.447,0-0.896-1.344-2.688-0.896
	c-1.344,0.448-1.792,1.344-2.688,1.792c-0.896,0.448-1.345,0.448-2.688,1.344c-1.344,1.344-1.792,0.896-4.032,0.896
	c-2.239-0.448-3.136,0.448-4.031,0.896c-0.896,0.448-2.24,0.448-3.137,0c-0.896-0.896-2.688,0.896-4.479,0s-1.792,2.688-3.584,2.24
	c-1.792-0.448-1.792,0-4.032,1.792s-2.24-1.344-4.032,0.448c-1.792,1.792-0.896,4.032-4.031,2.24
	c-3.137-1.344-3.137,0.896-3.137,1.792s0.448,2.688-2.688,3.136c-3.136,0.448,0,4.032-1.345,4.032
	c-1.344,0.448-1.791,0.896-1.791,1.344c0,0.495-4.671,2.812-5.713,4.229c-1.474,2.003-3.584,1.777-4.144,2.043
	c-0.75,0.356-0.896,1.344-1.792,0.448c-1.344-0.448-0.896-0.448-1.344,2.24c-0.896,2.688-1.344,2.688-0.896,4.928
	c0.448,1.792-1.792,3.136-0.447,4.928c1.344,1.792,1.791,2.24,1.791,4.032s0.896,6.272,1.793,7.168
	c0.896,1.344,2.239,1.344,2.688,3.136c0,1.792,0.448,3.584-0.448,4.032c-0.896,0.896-0.896,4.032,0,4.032
	c1.345,0,1.792,0,2.24,0.448c0.448,0.448,1.792,4.928,3.136,5.376c1.344,0.448,1.792-7.168,3.137-8.064
	c1.791-0.896,1.344,2.688,2.688,2.688c1.344-0.448,1.792-2.688,2.688-4.032c0.896-1.792,3.584-3.136,4.928-4.48
	c1.344-1.344,4.032-3.584,6.271-4.032c0.896,4.48,11.2,47.936-10.752,81.088c-4.479,6.72-0.447,10.752-1.344,12.544
	c-0.896,1.792-1.344,7.168-2.24,8.063c-0.896,0.896-0.896,4.929,1.345,2.688c2.239-2.688,3.136-5.824,3.584-7.168
	c0.447-1.344,0.896-4.032,2.688-8.064c1.792-3.584,3.584-1.792,4.48-5.376c0.896-3.584,4.479-9.408,4.479-9.408
	s4.032,1.793,5.376,4.929s5.376,11.647,3.136,15.231c-2.239,3.137-1.344,8.064-0.447,8.064c0.896,0,3.584-4.928,4.479-9.408
	c0.896-4.032,1.344-6.271,1.792-8.96s5.824-6.72,5.824-6.72s0.896,0,1.792,0.448c-0.896,12.096,1.792,28.224,2.688,31.808
	c0.896,3.584,2.24,11.2,4.48,15.232c2.24,3.584,2.688,6.271,1.344,9.407c-1.792,3.137-8.96,25.088-10.304,27.328
	s-3.584,5.824-4.48,8.96c-0.896,3.137,0,3.137-0.447,5.376c-0.448,1.792-1.345,1.792-1.345,3.584s1.345,4.032,0.896,4.929
	c-0.448,0.896,0,4.928-1.344,8.512c-1.345,3.584-3.137,8.063-3.584,9.408c-0.448,0.896-2.688,4.479-2.24,5.824
	c0.448,1.344-1.344,4.031-1.792,5.375c-0.448,0.896,0,7.169,3.584,8.064c0,0,0-4.48,2.24-4.928c0,0,1.344,6.72,2.688,7.168
	l0.448-1.344c1.344,0.447,2.688-1.792,2.688-3.137c0-0.896,0.896-0.896,2.688-0.896c2.24,0,5.824-3.136,4.928-6.72
	c-0.896-3.584-0.447-2.688,0-3.584c0.448-1.345,0.896-2.688,1.345-4.032c0.447-1.792,1.344-2.688,2.239-1.792
	c0.896,0.896-0.896,2.688-0.447,4.928c0.447,2.24,4.479,3.584,3.584,6.272c0,0,0.447,1.344,3.136-1.345
	c2.688-2.688,1.792-3.584,2.24-4.928c0.896-1.344,1.792-4.928,0.896-6.72c-0.896-1.792-2.24-3.584-1.344-4.929
	c0.896-1.344,0-3.136-1.344-5.376c-1.345-2.239-1.345-3.584-2.24-5.823c-0.896-1.792-2.688-2.24-1.792-4.48
	c0.896-2.24-0.896-2.688,0.448-3.584c1.344-0.896,3.584-6.72,5.823-8.064c2.24-1.344,9.408-4.479,11.2-6.72
	c1.344-2.24,4.48-3.584,5.376-4.032c0.896-0.447-0.448-1.791,0.896-3.584c1.792-1.791,3.584-1.791,5.376-1.791
	s12.544-1.345,14.784-0.896c2.239,0.448,6.72,0.896,8.063,2.24s1.344,3.136,2.24,4.928c0.896,1.792,3.584,5.824,4.032,8.96
	c0.447,3.136,4.031,8.064,4.928,10.304c0.896,2.24,4.928,12.097,4.479,18.368c-0.447,1.792-4.031,4.929-4.031,7.168
	c-0.448,2.24-2.688,2.688-3.584,3.584c-0.896,0.896-3.137,2.688-3.137,4.032s-5.376,1.344-8.063,4.928
	c-3.136,3.584-4.928,5.824-4.928,8.064s2.239,1.344,3.136,0c0.896-1.344,4.032-0.896,5.824-1.344c1.344,0,3.584-0.448,5.376-1.345
	c1.344-0.896-0.896,4.032,0,4.929c0.447,0.896,3.136-0.448,4.928-1.792c2.24-1.345,2.688-0.896,4.032-0.896
	c1.344,0,3.136-2.688,4.479-2.24c1.344,0,3.136,2.688,3.136,4.032c0.448,1.344,2.24,0.896,3.584-0.896
	c1.345-1.792,2.24-2.24,4.032-4.032s0.448-4.032,0.896-5.376c0-1.344,0.896-4.032,1.792-6.72c0.896-2.24,2.688-8.96,2.239-14.784
	c0-1.344-0.447-2.24-0.447-3.136c0.896-0.448,1.792-0.896,3.136-1.792c1.792-0.896,2.688-0.448,4.032-0.448
	c1.344,0,2.688-2.688,3.584-2.688c1.344,0,0.447,2.24,0.896,3.584c0.448,1.345,1.792,1.345,3.584,0
	c1.792-1.344,4.48-8.512,6.272-12.096s3.584-10.304,3.136-15.231c-0.448-4.929-2.24-6.721-2.688-10.752
	c-0.447-4.032,0.448-23.297-0.447-26.881c2.688,0,4.479,0.896,5.376,1.345c2.688,1.792-1.792,13.439-0.448,21.951
	c0.896,6.272,1.792,8.513,7.168,8.96c2.24,0.448,11.647,2.688,15.232,2.688c3.584,0,2.239,1.344,2.239,1.344
	c-0.896,1.792-5.376,7.168-7.616,13.44c-2.239,6.271-2.688,18.815,0,21.952c2.688,3.136,6.721,4.928,8.064,3.584
	c0,0,4.928,2.239,7.616,2.688c2.688,0.448,0.896-2.688,0.448-3.136c0,0,1.344-0.896,4.928-0.896s5.824-1.791,2.688-3.136
	c-3.136-1.344-1.344-4.479-0.447-4.928c0.896-0.448,4.031-5.376,1.792-8.512c-2.24-3.137-2.24-5.376-2.688-7.616
	s-1.792-4.928,0-5.824c2.688-1.344,6.272-10.752,6.72-12.544c0.448-1.792,2.688-9.855-1.344-9.855s-12.992-3.137-12.544-6.272
	c0.896-4.032,4.928-5.376,6.272-5.376c1.792,0,7.168,0.448,9.855,0.896c2.688,0.448,17.024,2.688,19.264,3.137
	c2.24,0.447,22.4,8.063,26.881,12.992c4.479,5.376,15.231,16.128,13.439,23.743c-0.448,1.792-3.136-1.344-4.479,0.448
	c0,0,1.792,2.24,1.344,3.584c-0.448,0.896-5.376-0.448-8.064-1.344c-2.239-0.896-3.584,0.896-2.239,0.896
	c1.792,0,7.168,3.137,3.136,3.585c-4.032,0.447-1.792,1.791-3.584,1.344c-1.792-0.448-15.232-1.792-13.44-0.448
	c1.792,1.792,6.721,2.688,4.48,4.479c-1.344,1.345-0.448,3.584-2.24,3.584s-3.136,1.793-5.376,1.345s-9.408-1.792-11.647-1.345
	c-2.24,0-0.448,1.345,1.344,1.345c1.344,0.448,3.136,2.24,2.688,3.136c-0.448,1.344-2.688,4.48-4.928,4.48s-4.928-0.896-7.168-1.345
	c-2.688-0.448-4.032,1.345-3.136,1.345c0.447,0,4.479,2.239,4.031,4.479c-0.447,2.24-1.792,4.48-4.031,6.72
	c-2.24,2.24-7.616,0.896-9.856,1.345c-2.24,0-2.688,0.896-2.24,2.239c1.792,4.032-2.688,8.064-7.168,8.513
	c-4.479,0.447-8.063,2.688-6.271,2.688c2.239,0,6.271-0.448,5.376,1.792c-2.688,6.72-13.889,4.032-12.992,5.376
	s2.24,6.272-2.24,7.616c-4.479,1.344-6.271,3.136-8.063,3.584c-2.24,0.896-1.792,1.792-0.448,1.792s2.688,1.344,2.24,2.688
	c-0.448,1.344-10.752,8.063-12.992,9.407c-1.792,1.345-0.896,2.24,0.896,1.345c1.792-0.448,2.688,0,2.24,2.688
	c-0.448,2.688-2.688,11.2-1.792,11.648c0.896,0.447,1.792,0.447,3.584-1.792c1.344-2.688,17.473-18.368,26.88-24.192
	c9.408-5.824,35.393-20.16,44.353-23.744c19.264-7.615,27.775-9.855,36.735-18.368c8.961-8.512,9.408-13.888,10.752-17.92
	c1.345-4.031,2.688-4.928,2.688-8.96c0.448-4.479-0.896-8.96,0.896-12.992c2.239-4.031,2.688-7.168,1.344-9.407
	c-1.344-2.24-1.792-2.688-0.896-3.137c0.896-0.447,2.24-0.896,1.792-1.792c-0.448-0.896-0.448-2.239-1.344-3.136
	c-0.896-0.896,0.448-3.136,0-4.479c-0.448-1.345-3.584-1.345-2.688-3.137c1.345-1.792,3.137-2.239,3.137-2.239
	c-2.24-1.792-6.272-0.448-6.272-3.137c0-2.239,1.792-4.479,1.792-4.479c-2.688-1.792-9.408-4.032-7.168-5.824
	c1.344-1.344,4.929-0.448,1.344-2.24c-3.584-1.344-10.752-2.239-9.855-3.584c0.896-1.344,1.792-1.792,4.479-2.239
	c2.688-0.448-10.752-1.792-10.304-3.584s5.376-3.137,2.688-3.137c-2.688,0-11.648,1.345-14.784-0.896c0,0,1.792-2.24,3.136-2.688
	c1.345-0.448-8.512-0.896-8.063-2.688c0,0,1.344-3.136,4.031-4.032c2.688-0.896-16.575-0.896-17.92-6.271
	c-0.896-3.137-1.344-4.929,1.345-8.064c2.688-3.136,8.063-5.376,15.68-2.688c4.032,1.345,7.168,2.688,8.063,4.929
	c1.345,2.239,0.896,3.584,4.032,2.239c3.136-1.344,8.512,1.345,11.648,4.032c4.031,4.48,11.647,19.265,12.096,21.504
	c0.896,2.24,4.928,7.616,5.824,9.856c1.344,2.24,2.24,6.72,1.792,9.855c-0.448,3.137,1.344,4.032,0,5.824
	c-1.792,1.792-0.896,3.136,0.896,2.24c1.792-0.896,3.584-3.584,4.032-4.032c0.448-1.344-0.896-4.479,0.448-4.928
	c2.24-0.448,17.472,27.328,19.712,34.048c1.792,6.272,6.271,22.848,8.063,24.64c1.345,1.792,3.584,12.545,1.345,17.024
	c-2.24,4.479-1.345,3.584,1.344,1.344c2.688-2.239,2.24-7.616,2.688-9.855c0.448-2.24-1.344-8.513-0.447-9.408
	c0.896-0.896,1.792-6.272-1.792-8.512c-3.584-2.688-3.137-6.272-2.688-8.064s0.448-12.096,0.896-13.888
	c0.447-1.792,1.344-4.032-0.448-5.824c-1.344-1.792-1.792-8.96-0.448-9.856c1.344-1.344,5.376-1.344,7.168,0.896
	s3.584,4.032,4.48,6.271c0.896,2.24,1.344,4.929,1.792,9.408c0,1.792-0.896,5.824,0.447,8.064c1.345,2.24,1.345,6.271,0.448,8.063
	c-0.896,1.792,0,5.824-1.792,8.064c-1.792,1.792,0,3.136,2.24,1.344s3.584-12.544,4.032-14.784c0.447-2.239,0.447-7.615,0.447-9.407
	c0-1.345-1.344-4.032-0.896-5.377c0.448-0.896-0.448-1.791-1.344-4.031c-0.896-2.24-1.345-5.376-1.345-6.721
	c0-1.344,0.448-5.375,2.688-6.271c1.792-0.448,4.928,1.344,6.272,2.688c2.239,2.239,4.479,7.615,4.928,9.855
	c0.896,2.24,0.448,7.168,0.448,7.168c-0.896,0.448-1.792,2.24,0.896,3.584c2.688,1.344,4.928,5.376,3.584,10.752
	s-3.584,9.856-0.448,7.616c3.137-2.24,3.584-6.272,4.032-8.064C894.8,431.504,894.352,425.68,894.352,424.336z M669.904,422.544
	c-0.448,1.344-5.376,5.376-5.376,7.616c-0.448,1.792-2.24,3.136-4.032,4.032c0-2.24,0-4.032-0.448-5.376
	c-0.896-3.137,0.448-11.648-1.344-14.336c-1.792-3.137-1.344-7.616-1.792-9.856s1.792-5.376,4.032-5.824c0,0,0.447,0,0.447-0.448
	c2.24,4.032,4.48,7.616,4.48,8.064c0.896,0.896,0.448,2.688,0.896,3.584c0.448,1.344,0.448,4.032,1.345,4.928
	C669.904,416.271,670.352,421.2,669.904,422.544z"/>
</svg>
