<svg xmlns="http://www.w3.org/2000/svg" xmlns:xlink="http://www.w3.org/1999/xlink" version="1.1" x="0px" y="0px" viewBox="202 130 100 125" enable-background="new 202 130 100 100" xml:space="preserve"><path d="M299.4,195.7c0-0.3,0.3-0.7-0.1-1.1c-0.4-0.4-0.9-3.3-1.8-4.9s-8-15.5-11.9-20.2c-3.9-4.7-15.4-15.2-22.6-19.1  c-7.2-3.8-23.5-8.2-25.8-8.4c-2.3-0.2-5-0.8-5.1-1.1c-0.1-0.3-1.1-0.8-2.5-0.9c0,0-1,0-1.3,0s-0.6,0.1-0.8,0.3  c-0.2,0.3-1.2,1.2-1.2,1.2s-0.6,0.9-0.2,1.4c0.4,0.5,0.9,1,0.9,1.2c0,0.1,0.4,0.3,0.4,0.1c0-0.2-0.5-1-0.5-1.3c0-0.3,0-0.6,0.2-0.6  c0.2,0,0.3-0.2,0.3-0.3s1.1-0.6,1.1-0.5s0.3,0.3,0.7,0.2c0.4,0,1-0.1,1.2-0.2c0.6-0.3,1.8,1.1,2,1.3c0.2,0.2,0.5,0.8,0.8,0.9  c0.3,0.1,0.9,0.4,1.3,0.6c0.4,0.2,1-0.2,2.8,0.2c1.8,0.3,4.7,2,5.4,2.4s6.6,2.8,8.9,7s3.2,8.1,2.6,10.1c-0.6,2-0.8,3.1-2.6,4.2  c-1.8,1.1-2.8,1.7-3.4,2c-0.8,0.6-4.3,1.3-4.8,1c-0.5-0.3-0.5-0.8-0.3-1.1c0.3-0.7,1.4-0.4,1.4-0.4c-0.1-0.5-0.2-0.9-0.2-1.1  c0.1-0.3,0.4-0.3,0.4-0.3c0-0.4-0.7-0.9-1-1.3c-0.2-0.3,0.4-0.3,0.4-0.3c-0.2-0.5-0.5-1-0.3-1.4c0.2-0.3,0.6,0,0.7,0  c0.1,0,0.2-0.4,0.7-0.4c0.4,0,0.8,0.2,1.5,0.6c0,0-1.6-1.6-2.1-2.5s-0.5-2.3-0.5-2.6s0.3-0.6,0.8-0.6c0.5,0.1,0.7,0.1,0.9,0.2  s0.3,0.3,0.6,0.3s0.3-0.4,0.6-0.4s0.5,0.2,0.8,0s0.8,0.2,1,0.2c0.2,0.1-2.3-2-3.9-2.7c-1.6-0.7-2.4-0.6-3.4-1.5  c-1-0.9-2.1-2.2-2.1-2.6c0-0.2,0.3,0.1,0.4-0.4c0.1-0.5,0.1-0.8,0.6-0.9s0.8-0.2,1-0.5c0.2-0.3,0.7-0.7,1.2-0.8  c0.5-0.1,1.8,0,2.4,0.3c0.6,0.3,0.8-0.1,0-0.4c-0.7-0.3-1.2-1-2.9-1.1c-1.7-0.1-0.9-0.3-2-0.3c-1.1,0-1.9,0.1-2.3,0  c-0.4-0.1-1.1-0.3-1.3-0.1c-0.2,0.1-0.7,0.3-0.2-0.2s1.3-1.5,1.3-2c0-0.5-0.4-0.4-0.6,0c-0.2,0.4-0.7,0.6-0.9,0.8s-0.9,0.3-1.2,0.4  c-1,0.1-2.9,0.4-3.4,0.5s-1.5-0.1-1.8-0.1s-0.5,0.3-0.9,0.1c-0.4-0.2-0.6-0.2-0.8,0c-0.2,0.2-0.6,0.4-0.7,0.4  c-0.5-0.2,0.4-1.5,0.6-1.5c0.1,0-0.2-0.3-0.6-0.2c-0.3,0.1-0.4,0.3-0.6,0.4c-0.2,0.1-0.3,0.1-0.6,0.3c-0.3,0.3-0.4,0.2-0.9,0.2  c-0.5-0.1-0.7,0.1-0.9,0.2c-0.2,0.1-0.5,0.1-0.7,0c-0.2-0.2-0.6,0.2-1,0c-0.4-0.2-0.4,0.6-0.8,0.5c-0.4-0.1-0.4,0-0.9,0.4  c-0.5,0.4-0.5-0.3-0.9,0.1s-0.2,0.9-0.9,0.5c-0.7-0.3-0.7,0.2-0.7,0.4s0.1,0.6-0.6,0.7c-0.7,0.1,0,0.9-0.3,0.9  c-0.3,0.1-0.4,0.2-0.4,0.3c0,0.2-0.5,0.1-0.3-0.2c0.2-0.3,0.1-0.4-0.2-0.3s-0.8-0.1-1-0.2c-0.2-0.1-0.2-0.4-0.5-0.4  c-0.3,0-0.7-1-0.4-1.2c0.3-0.2-0.3-0.2-0.4,0c-0.1,0.2-0.8-0.9-0.8-0.6c0,0.6-0.6,0.5-0.6,0.5c0-0.4-0.6-0.9-1.3-1.2  c-0.7-0.3-1.8-0.3-2.3-1.2c-0.6-0.8-0.9-0.7-1.1-0.9c-0.3-0.4-0.7-0.8-0.7-1c0-0.2-0.3-0.8-0.5-0.9c-0.2-0.1-1.2-1.6-1.4-1.9  c-0.2-0.3-0.4-0.3-0.8-0.1c-0.3,0.2-0.4,1.2-0.4,1.7c0,0.2,0.2,0.7,0.5,1c0.2,0.3,0.6,0.8,0.7,1c0.1,0.1,0.4,0.6,0.6,0.2  s-0.3-0.4-0.3-0.8s-0.5-0.5-0.4-0.7c0.1-0.2,0.1-0.5,0.1-0.5c0-0.2,0.2,0.1,0.4,0.8c0.1,0.2,0.6,0.9,0.8,0.9  c0.2,0.1,0.2,0.4,0.2,0.7s0.1,0.5,0.3,0.8c0.1,0.2,0.8,0.5,1.2,0.9c0.4,0.4,1.4,0.9,1.7,1.2c0.3,0.3,1.7,1.3,2.1,1.4  c0.4,0,0.7,0.6,1.2,0.9c0.5,0.3,0.3,0.7,0.3,1.1c0,0,0.9-0.2,1.1,0.4c0.1,0.1-0.2,0.3-0.4,0.1c-0.3-0.1-0.2-0.1-0.3,0.5  c-0.2,0.6-0.3,0.6-0.2,1.1c0.1,0.4-0.4,0.7-0.1,1.1c0.3,0.4,0.4,0.5,0.4,0.9s0.2,1.4,0.4,1.6c0.2,0.3,0.5,0.3,0.6,0.7  c0,0.4,0.1,0.8-0.1,0.9c-0.2,0.2-0.2,0.9,0,0.9c0.3,0,0.4,0,0.5,0.1c0.1,0.1,0.4,1.1,0.7,1.2c0.3,0.1,0.4-1.6,0.7-1.8  c0.4-0.2,0.3,0.6,0.6,0.6c0.3-0.1,0.4-0.6,0.6-0.9c0.2-0.4,0.8-0.7,1.1-1s0.9-0.8,1.4-0.9c0.2,1,2.5,10.7-2.4,18.1  c-1,1.5-0.1,2.4-0.3,2.8c-0.2,0.4-0.3,1.6-0.5,1.8c-0.2,0.2-0.2,1.1,0.3,0.6c0.5-0.6,0.7-1.3,0.8-1.6c0.1-0.3,0.2-0.9,0.6-1.8  c0.4-0.8,0.8-0.4,1-1.2c0.2-0.8,1-2.1,1-2.1s0.9,0.4,1.2,1.1s1.2,2.6,0.7,3.4c-0.5,0.7-0.3,1.8-0.1,1.8c0.2,0,0.8-1.1,1-2.1  c0.2-0.9,0.3-1.4,0.4-2c0.1-0.6,1.3-1.5,1.3-1.5s0.2,0,0.4,0.1c-0.2,2.7,0.4,6.3,0.6,7.1c0.2,0.8,0.5,2.5,1,3.4  c0.5,0.8,0.6,1.4,0.3,2.1c-0.4,0.7-2,5.6-2.3,6.1c-0.3,0.5-0.8,1.3-1,2c-0.2,0.7,0,0.7-0.1,1.2c-0.1,0.4-0.3,0.4-0.3,0.8  c0,0.4,0.3,0.9,0.2,1.1c-0.1,0.2,0,1.1-0.3,1.9c-0.3,0.8-0.7,1.8-0.8,2.1c-0.1,0.2-0.6,1-0.5,1.3c0.1,0.3-0.3,0.9-0.4,1.2  c-0.1,0.2,0,1.6,0.8,1.8c0,0,0-1,0.5-1.1c0,0,0.3,1.5,0.6,1.6l0.1-0.3c0.3,0.1,0.6-0.4,0.6-0.7c0-0.2,0.2-0.2,0.6-0.2  c0.5,0,1.3-0.7,1.1-1.5s-0.1-0.6,0-0.8c0.1-0.3,0.2-0.6,0.3-0.9c0.1-0.4,0.3-0.6,0.5-0.4c0.2,0.2-0.2,0.6-0.1,1.1s1,0.8,0.8,1.4  c0,0,0.1,0.3,0.7-0.3c0.6-0.6,0.4-0.8,0.5-1.1c0.2-0.3,0.4-1.1,0.2-1.5c-0.2-0.4-0.5-0.8-0.3-1.1s0-0.7-0.3-1.2  c-0.3-0.5-0.3-0.8-0.5-1.3c-0.2-0.4-0.6-0.5-0.4-1c0.2-0.5-0.2-0.6,0.1-0.8c0.3-0.2,0.8-1.5,1.3-1.8c0.5-0.3,2.1-1,2.5-1.5  c0.3-0.5,1-0.8,1.2-0.9c0.2-0.1-0.1-0.4,0.2-0.8c0.4-0.4,0.8-0.4,1.2-0.4c0.4,0,2.8-0.3,3.3-0.2s1.5,0.2,1.8,0.5  c0.3,0.3,0.3,0.7,0.5,1.1c0.2,0.4,0.8,1.3,0.9,2c0.1,0.7,0.9,1.8,1.1,2.3c0.2,0.5,1.1,2.7,1,4.1c-0.1,0.4-0.9,1.1-0.9,1.6  c-0.1,0.5-0.6,0.6-0.8,0.8c-0.2,0.2-0.7,0.6-0.7,0.9s-1.2,0.3-1.8,1.1c-0.7,0.8-1.1,1.3-1.1,1.8c0,0.5,0.5,0.3,0.7,0  c0.2-0.3,0.9-0.2,1.3-0.3c0.3,0,0.8-0.1,1.2-0.3c0.3-0.2-0.2,0.9,0,1.1c0.1,0.2,0.7-0.1,1.1-0.4c0.5-0.3,0.6-0.2,0.9-0.2  c0.3,0,0.7-0.6,1-0.5c0.3,0,0.7,0.6,0.7,0.9c0.1,0.3,0.5,0.2,0.8-0.2c0.3-0.4,0.5-0.5,0.9-0.9c0.4-0.4,0.1-0.9,0.2-1.2  c0-0.3,0.2-0.9,0.4-1.5c0.2-0.5,0.6-2,0.5-3.3c0-0.3-0.1-0.5-0.1-0.7c0.2-0.1,0.4-0.2,0.7-0.4c0.4-0.2,0.6-0.1,0.9-0.1  c0.3,0,0.6-0.6,0.8-0.6c0.3,0,0.1,0.5,0.2,0.8s0.4,0.3,0.8,0c0.4-0.3,1-1.9,1.4-2.7c0.4-0.8,0.8-2.3,0.7-3.4  c-0.1-1.1-0.5-1.5-0.6-2.4c-0.1-0.9,0.1-5.2-0.1-6c0.6,0,1,0.2,1.2,0.3c0.6,0.4-0.4,3-0.1,4.9c0.2,1.4,0.4,1.9,1.6,2  c0.5,0.1,2.6,0.6,3.4,0.6s0.5,0.3,0.5,0.3c-0.2,0.4-1.2,1.6-1.7,3s-0.6,4.2,0,4.9c0.6,0.7,1.5,1.1,1.8,0.8c0,0,1.1,0.5,1.7,0.6  c0.6,0.1,0.2-0.6,0.1-0.7c0,0,0.3-0.2,1.1-0.2s1.3-0.4,0.6-0.7c-0.7-0.3-0.3-1-0.1-1.1c0.2-0.1,0.9-1.2,0.4-1.9s-0.5-1.2-0.6-1.7  c-0.1-0.5-0.4-1.1,0-1.3c0.6-0.3,1.4-2.4,1.5-2.8c0.1-0.4,0.6-2.2-0.3-2.2c-0.9,0-2.9-0.7-2.8-1.4c0.2-0.9,1.1-1.2,1.4-1.2  c0.4,0,1.6,0.1,2.2,0.2c0.6,0.1,3.8,0.6,4.3,0.7s5,1.8,6,2.9c1,1.2,3.4,3.6,3,5.3c-0.1,0.4-0.7-0.3-1,0.1c0,0,0.4,0.5,0.3,0.8  c-0.1,0.2-1.2-0.1-1.8-0.3c-0.5-0.2-0.8,0.2-0.5,0.2c0.4,0,1.6,0.7,0.7,0.8s-0.4,0.4-0.8,0.3c-0.4-0.1-3.4-0.4-3-0.1  c0.4,0.4,1.5,0.6,1,1c-0.3,0.3-0.1,0.8-0.5,0.8s-0.7,0.4-1.2,0.3s-2.1-0.4-2.6-0.3c-0.5,0-0.1,0.3,0.3,0.3c0.3,0.1,0.7,0.5,0.6,0.7  c-0.1,0.3-0.6,1-1.1,1s-1.1-0.2-1.6-0.3c-0.6-0.1-0.9,0.3-0.7,0.3c0.1,0,1,0.5,0.9,1c-0.1,0.5-0.4,1-0.9,1.5  c-0.5,0.5-1.7,0.2-2.2,0.3c-0.5,0-0.6,0.2-0.5,0.5c0.4,0.9-0.6,1.8-1.6,1.9s-1.8,0.6-1.4,0.6c0.5,0,1.4-0.1,1.2,0.4  c-0.6,1.5-3.1,0.9-2.9,1.2c0.2,0.3,0.5,1.4-0.5,1.7c-1,0.3-1.4,0.7-1.8,0.8c-0.5,0.2-0.4,0.4-0.1,0.4c0.3,0,0.6,0.3,0.5,0.6  c-0.1,0.3-2.4,1.8-2.9,2.1c-0.4,0.3-0.2,0.5,0.2,0.3c0.4-0.1,0.6,0,0.5,0.6c-0.1,0.6-0.6,2.5-0.4,2.6s0.4,0.1,0.8-0.4  c0.3-0.6,3.9-4.1,6-5.4c2.1-1.3,7.9-4.5,9.9-5.3c4.3-1.7,6.2-2.2,8.2-4.1c2-1.9,2.1-3.1,2.4-4c0.3-0.9,0.6-1.1,0.6-2  c0.1-1-0.2-2,0.2-2.9c0.5-0.9,0.6-1.6,0.3-2.1c-0.3-0.5-0.4-0.6-0.2-0.7c0.2-0.1,0.5-0.2,0.4-0.4s-0.1-0.5-0.3-0.7s0.1-0.7,0-1  c-0.1-0.3-0.8-0.3-0.6-0.7c0.3-0.4,0.7-0.5,0.7-0.5c-0.5-0.4-1.4-0.1-1.4-0.7c0-0.5,0.4-1,0.4-1c-0.6-0.4-2.1-0.9-1.6-1.3  c0.3-0.3,1.1-0.1,0.3-0.5c-0.8-0.3-2.4-0.5-2.2-0.8s0.4-0.4,1-0.5s-2.4-0.4-2.3-0.8c0.1-0.4,1.2-0.7,0.6-0.7s-2.6,0.3-3.3-0.2  c0,0,0.4-0.5,0.7-0.6s-1.9-0.2-1.8-0.6c0,0,0.3-0.7,0.9-0.9s-3.7-0.2-4-1.4c-0.2-0.7-0.3-1.1,0.3-1.8s1.8-1.2,3.5-0.6  c0.9,0.3,1.6,0.6,1.8,1.1c0.3,0.5,0.2,0.8,0.9,0.5c0.7-0.3,1.9,0.3,2.6,0.9c0.9,1,2.6,4.3,2.7,4.8c0.2,0.5,1.1,1.7,1.3,2.2  c0.3,0.5,0.5,1.5,0.4,2.2c-0.1,0.7,0.3,0.9,0,1.3c-0.4,0.4-0.2,0.7,0.2,0.5c0.4-0.2,0.8-0.8,0.9-0.9c0.1-0.3-0.2-1,0.1-1.1  c0.5-0.1,3.9,6.1,4.4,7.6c0.4,1.4,1.4,5.1,1.8,5.5c0.3,0.4,0.8,2.8,0.3,3.8c-0.5,1-0.3,0.8,0.3,0.3c0.6-0.5,0.5-1.7,0.6-2.2  c0.1-0.5-0.3-1.9-0.1-2.1c0.2-0.2,0.4-1.4-0.4-1.9c-0.8-0.6-0.7-1.4-0.6-1.8s0.1-2.7,0.2-3.1c0.1-0.4,0.3-0.9-0.1-1.3  c-0.3-0.4-0.4-2-0.1-2.2c0.3-0.3,1.2-0.3,1.6,0.2s0.8,0.9,1,1.4s0.3,1.1,0.4,2.1c0,0.4-0.2,1.3,0.1,1.8s0.3,1.4,0.1,1.8  c-0.2,0.4,0,1.3-0.4,1.8c-0.4,0.4,0,0.7,0.5,0.3c0.5-0.4,0.8-2.8,0.9-3.3s0.1-1.7,0.1-2.1c0-0.3-0.3-0.9-0.2-1.2  c0.1-0.2-0.1-0.4-0.3-0.9c-0.2-0.5-0.3-1.2-0.3-1.5c0-0.3,0.1-1.2,0.6-1.4c0.4-0.1,1.1,0.3,1.4,0.6c0.5,0.5,1,1.7,1.1,2.2  c0.2,0.5,0.1,1.6,0.1,1.6c-0.2,0.1-0.4,0.5,0.2,0.8c0.6,0.3,1.1,1.2,0.8,2.4c-0.3,1.2-0.8,2.2-0.1,1.7c0.7-0.5,0.8-1.4,0.9-1.8  C299.5,197.3,299.4,196,299.4,195.7z M249.3,195.3c-0.1,0.3-1.2,1.2-1.2,1.7c-0.1,0.4-0.5,0.7-0.9,0.9c0-0.5,0-0.9-0.1-1.2  c-0.2-0.7,0.1-2.6-0.3-3.2c-0.4-0.7-0.3-1.7-0.4-2.2c-0.1-0.5,0.4-1.2,0.9-1.3c0,0,0.1,0,0.1-0.1c0.5,0.9,1,1.7,1,1.8  c0.2,0.2,0.1,0.6,0.2,0.8c0.1,0.3,0.1,0.9,0.3,1.1C249.3,193.9,249.4,195,249.3,195.3z"/><text x="202" y="245" fill="#000000" font-size="5px" font-weight="bold" font-family="'Helvetica Neue', Helvetica, Arial-Unicode, Arial, Sans-serif">Created by Nathan Thomson</text><text x="202" y="250" fill="#000000" font-size="5px" font-weight="bold" font-family="'Helvetica Neue', Helvetica, Arial-Unicode, Arial, Sans-serif">from the Noun Project</text></svg>