<svg xmlns="http://www.w3.org/2000/svg" xmlns:xlink="http://www.w3.org/1999/xlink" version="1.1" x="0px" y="0px" viewBox="0 0 200 250" enable-background="new 0 0 200 200" xml:space="preserve"><g><rect x="60" y="58" width="73" height="7"/><path d="M61.5,67l-9.6,22.8l11.9,10.3L68,89.4C59.6,82.5,65.1,67,65.1,67H61.5z"/><path d="M125,89.4l4.2,10.7l11.9-10.3L131.5,67h-3.6C127.9,67,133.4,82.5,125,89.4z"/><path d="M138.1,71.9c0,0,0.6,3.1,1.8-0.2c1.3-3.3,3-2.4,4.6,0.2c1.7,2.6-0.9,2.2-3,2.8s-3,4.1,0.4,6.8c3.3,2.8,7.9-6.5,5.7-14   c-2.2-7.6-8.3-4.8-8.9-3.1c-0.6,1.7,1.8,1.1-1.1,3.3C134.8,69.8,138.1,71.9,138.1,71.9z"/><path d="M53.8,81.5c3.3-2.8,2.4-6.3,0.4-6.8c-2-0.6-4.6-0.2-3-2.8s3.3-3.5,4.6-0.2s1.8,0.2,1.8,0.2s3.3-2,0.4-4.2   c-3-2.2-0.6-1.7-1.1-3.3s-6.6-4.4-8.9,3.1C45.9,75,50.5,84.2,53.8,81.5z"/><path d="M136.2,147.1l10.5,0.9c0,0,5-6.4-0.9-14.6c-5.9-8.2,5.9,6.4,5.5,10c-0.5,3.6,8.7-16.4-1.8-23.7c0,0,3.6-4.1,6.4,0   c0,0,0-28.7-7.7-26c-7.7,2.7-15.5,13.2-16,17.8s-3.2-1.4-7.3-5.5s-13.2-14.6-26.9-4.6c0,0-5.5,0.9-6.8-1.4c-1.4-2.3-2.3,0-6.4-1.4   s-17.8,3.2-21.4,12.3l-3-4.1l-5.3,3.6v-7.3l-2.2-3.6c0,0-9.8,0.9-12.1,10.9c0,0,2.9-1.4,7.9,1.4c0,0-10.9-2.7-7.2,14.6   c0,0,0.9-8.2,6.4-9.1c0,0-8.6,15.5-3.2,22.8l1.8,3.2l2.7-7.3l1.8,11.4c0,0,4.1,4.1,6.8,0.5c2.7-3.6,3.4,3,3.4,3   s13.8-12.4,14.7-15.2s1.9,4.5,1.9,4.5l5.5-5.5l1.4,3.6l4.6-3.2l3.6,3.2l3.6-3.6l5,3.2l2.7-2.7l9.6,5l0.9-3.6   c0,0,17.8,13.2,19.6,14.6C136.2,152.6,136.2,147.1,136.2,147.1z M95.6,121.1c0,0-0.9-5.5-6.4-5.5c0,0,13.2-1.4,16.4,0.9   C105.7,116.6,95.2,118,95.6,121.1z M110.2,109.3c-5.9-1.4-3.2,4.6-3.2,4.6c-8.7-5.9-21.9-1.8-21.9-1.8c-4.6,1.4-5-1.8-5-1.8   c-1.4-3.2-4.1,0-4.1,0c0-5.5,6.8-3.6,8.7-6.4c1.3-2,3.9,1.4,5.2,3.3c-0.4-1.9,3-2.9,3-2.9c-1.8,0.9,1.8,3.6,1.8,3.6l3.6-0.9   c0-4.6,4.6-4.1,4.6-4.1c-4.6,1.4-0.5,3.6-0.5,3.6l6.4-1.4C108.8,105.2,116.1,110.7,110.2,109.3z"/><circle cx="96.5" cy="41.4" r="4.1"/><path d="M81.1,33.1C70.8,36.9,63.6,44,62.9,53h23.9C87.5,49,88,41.4,81.1,33.1z"/><path d="M132,53c-0.7-9-8.5-16.7-19.6-20.4c-7.3,8.5-6.9,16.4-6,20.4H132z"/><path d="M91,48.2V53h9.6l-0.7-5.1C99.9,47.9,95,50,91,48.2z"/><path d="M102.5,39.1c2.7-5.9,3.2-10.5,3.2-10.5c-10.5,6.8-18.2,0.5-18.2,0.5l2.3,11.4C94.3,29.1,102.5,39.1,102.5,39.1z"/><polygon points="95.2,7.8 89.7,26 100.6,26  "/><path d="M61.9,154C43.7,154,41.4,143,41.4,143c-3.2-3.2-2.3,4.6-2.3,4.6c-2.3-1.8-0.5,2.3-0.5,2.3c1.4,5.5,15.5,12.3,20.5,11.8   c5-0.5,1.8-3.6,1.8-3.6C63.7,157.1,61.9,154,61.9,154z"/><path d="M36.4,156.2c0,0-9.6,5-6.8,16.9c0,0,1.4-5.9,5-6.4s-8.7,7.7-3.6,17.8c0,0,3.2-12.3,8.2-12.3c0,0,0,11.8-9.1,17.3   c0,0,14.6-7.3,16-13.7c0,0,0.9,4.6-5.9,9.6c0,0,16.9-2.7,18.2-18.7C58.3,166.7,46.9,167.2,36.4,156.2z"/><path d="M155.3,149.9c0,0,1.8-4.1-0.5-2.3c0,0,0.9-7.7-2.3-4.6c0,0-2.3,10.9-20.5,10.9c0,0-1.8,3.2,0.9,4.1c0,0-3.2,3.2,1.8,3.6   C139.8,162.2,154,155.3,155.3,149.9z"/><path d="M159.4,166.7c3.6,0.5,5,6.4,5,6.4c2.7-11.8-6.8-16.9-6.8-16.9c-10.5,10.9-21.9,10.5-21.9,10.5c1.4,16,18.2,18.7,18.2,18.7   c-6.8-5-5.9-9.6-5.9-9.6c1.4,6.4,16,13.7,16,13.7c-9.1-5.5-9.1-17.3-9.1-17.3c5,0,8.2,12.3,8.2,12.3   C168.1,174.5,155.8,166.3,159.4,166.7z"/><path d="M88.8,85.1c-10.4,5.4-11.8,0.4-15.5-0.8c0,0,3.6,8.6,14.9,2.8l1.4,10.2l4.2-3.6l2-17.1L91.6,76l1.6-1.1l-1.6-0.6l-7.6-0.9   l-6.4-7l-7.1,2.9L73,70l-2.1,3.3l3-2.6l7.8,6.4l0.9,0.1c-0.7,0.3-1.2,1-1.2,1.9c0,1,0.8,1.9,1.8,2l-0.7,0l-5.5-2.5l5.4,4.1l6.8-1.9   L83.9,81c0.9-0.2,1.6-1,1.6-2c0-0.7-0.3-1.3-0.8-1.6l4.5,0.5l1.1-0.8C92.9,78.7,95.4,81.6,88.8,85.1z"/><path d="M117.8,66.4l-6.4,7l-7.6,0.9l-1.6,0.6l1.5,1.1l-4.7,0.5l2,17.1l4.2,3.6l1.4-10.2c11.4,5.8,14.9-2.8,14.9-2.8   c-3.8,1.2-5.2,6.2-15.5,0.8c-6.9-3.6-3.9-6.6-1.1-8.3l1.4,1l4.5-0.5c-0.5,0.4-0.8,1-0.8,1.6c0,1,0.7,1.8,1.6,2l-5.2-0.2l6.8,1.9   l5.4-4.1l-5.5,2.5l-0.7,0c1-0.1,1.8-1,1.8-2c0-0.8-0.5-1.5-1.2-1.9l0.9-0.1l7.8-6.4l3,2.6l-2.1-3.3l2.6-0.8L117.8,66.4z"/></g><text x="0" y="215" fill="#000000" font-size="5px" font-weight="bold" font-family="'Helvetica Neue', Helvetica, Arial-Unicode, Arial, Sans-serif">Created by Marco Hernandez</text><text x="0" y="220" fill="#000000" font-size="5px" font-weight="bold" font-family="'Helvetica Neue', Helvetica, Arial-Unicode, Arial, Sans-serif">from the Noun Project</text></svg>