<svg xmlns="http://www.w3.org/2000/svg" xmlns:xlink="http://www.w3.org/1999/xlink" version="1.1" x="0px" y="0px" viewBox="0 0 167.724 260.48625000000004" style="enable-background:new 0 0 167.724 208.389;" xml:space="preserve"><g><path d="M103.965,193.021c-2.949-0.786-5.757-1.915-8.403-3.321c0.352,1.615,0.697,3.261,1.033,4.967   c1.596,8.105,8.703,13.721,16.663,13.721c1.089,0,2.195-0.105,3.305-0.324c8.214-1.616,13.855-8.902,13.697-16.993   c-4.659,1.969-9.608,3.106-14.601,3.279C111.722,194.486,107.788,194.04,103.965,193.021z"/><path d="M76.421,158.775c1.248,0.186,2.517,0.256,3.77,0.213c3.035-0.105,5.937-0.881,8.522-2.199   c3.021-1.539,5.61-3.819,7.454-6.667c-0.087-0.093-0.172-0.188-0.255-0.287l-11.968-3.26l-7.711-2.101l-27.673-7.538l-7.309-1.991   c1.06,3.261,2.455,6.224,4.129,8.895c-1.478,3.434-2.994,7.286-4.501,11.597c0.759-0.088,1.579-0.141,2.481-0.141   c7.634,0,18.666,3.536,24.249,8.543c0.447-1.257,0.892-2.461,1.332-3.612c1.696,0.39,3.437,0.679,5.213,0.874l-0.633-2.759   L76.421,158.775z"/><path d="M99.286,38.96c1.555-0.987,2.464-2.171,2.464-3.553c0-0.18-0.011-0.356-0.018-0.535C128.201,25.476,115.787,0,115.787,0   s-3.692,19.564-21.027,22.658c-3.981-2.958-9.344-4.774-15.248-4.774c-5.904,0-11.267,1.816-15.248,4.774   C46.929,19.563,43.238,0,43.238,0S30.822,25.476,57.291,34.872c-0.007,0.179-0.017,0.355-0.017,0.535   c0,1.381,0.908,2.564,2.461,3.551C67.51,43.9,91.508,43.901,99.286,38.96z M79.513,20.801c1.473,0,2.667,1.193,2.667,2.666   c0,1.473-1.194,2.667-2.667,2.667c-1.473,0-2.667-1.194-2.667-2.667C76.846,21.994,78.04,20.801,79.513,20.801z"/><path d="M39.788,158.661c-2.123,0.488-3.647,1.492-4.158,3.145c-2.351,7.605-4.602,16.341-6.56,26.296   c-1.815,9.211,4.183,18.15,13.393,19.963c1.109,0.219,2.216,0.324,3.305,0.324c7.96,0,15.067-5.615,16.663-13.721   c1.733-8.813,3.694-16.385,5.685-22.826c0.502-1.624-0.164-3.282-1.588-4.857C61.534,161.464,47.097,156.981,39.788,158.661z"/><path d="M31.46,130.208l9.127,2.486l8.889,2.421l27.81,7.575l5.308,1.446l14.53,3.958c0.381,0.642,0.964,1.163,1.687,1.464   c-2.083,3.986-5.391,7.124-9.345,9.098c-3.983,1.988-8.624,2.796-13.338,2.096c0.041,0.181,0.097,0.356,0.141,0.536   c2.277,9.397,7.567,17.686,15.048,23.349c1.17,0.885,2.391,1.708,3.664,2.458c2.919,1.719,6.091,3.085,9.502,3.994   c8.775,2.338,17.69,1.379,25.601-2.111c0.958-0.423,1.903-0.877,2.829-1.373c4.152-2.224,7.971-5.159,11.26-8.717   c-8.866-3.474-14.488-12.02-14.101-21.068c0.799,0.016,1.566-0.237,2.189-0.7l1.664-6.24c-0.31-0.713-0.851-1.313-1.551-1.699   c4.166-8.036,13.296-12.654,22.715-11.255c-3.315-14.476-13.752-26.442-28.354-30.335c-2.58-0.688-5.171-1.078-7.747-1.217   c-10.4-0.563-20.52,3.19-28.439,10.046c-1.22,1.056-2.396,2.173-3.505,3.372c8.843,3.464,14.458,11.977,14.104,20.997   c-0.778-0.098-1.543,0.064-2.193,0.43l-17.584-4.789l-4.207-1.146l-24.143-6.576l-13.847-3.771l-6.795-1.851   c-0.2,1.462-0.36,2.961-0.465,4.509C31.855,128.494,31.695,129.367,31.46,130.208z"/><path d="M1.14,122.116l2.509,0.669c0.458,0.771,1.206,1.372,2.142,1.622l0.302,0.08c0.252-3.103,0.645-6.118,1.191-9.029   c-0.641-0.01-1.261,0.144-1.801,0.448l-2.508-0.668c-0.814-0.215-1.644,0.25-1.854,1.041l-1.07,4.012   C-0.162,121.081,0.327,121.898,1.14,122.116z"/><path d="M14.371,99.496c-0.012,0.025-0.022,0.053-0.034,0.078c-2.003,4.324-3.579,9.104-4.694,14.321   c-0.139,0.648-0.274,1.301-0.398,1.963c-0.545,2.915-0.944,5.967-1.191,9.152c-0.025,0.325-0.063,0.639-0.085,0.966   c-0.024,0.362-0.028,0.721-0.019,1.077c0.165,5.595,4.554,10.256,10.253,10.64c0.25,0.018,0.501,0.025,0.748,0.025   c4.073,0,7.683-2.247,9.58-5.625c0.417-0.742,0.754-1.535,0.991-2.374c0.205-0.725,0.345-1.48,0.397-2.262   c0.135-1.991,0.343-3.864,0.612-5.632c0.11-0.725,0.235-1.425,0.367-2.115c0.81-4.254,1.993-7.855,3.413-10.925   c0.004-0.007,0.007-0.015,0.01-0.021l0.002,0.001c0,0,0.001-0.001,0.001-0.001c2.175-4.664,4.89-8.175,7.982-11.014   c-2.22,6.588-3.462,13.723-3.462,20.988c0,1.394,0.058,2.746,0.146,4.074l15.122,4.119l22.412,6.104l5.592,1.523l16.671,4.541   c0.113-0.041,0.232-0.08,0.349-0.114c-0.399-7.591-5.381-14.417-12.821-17.331l-2.729-1.068l1.99-2.151   c0.536-0.58,1.088-1.141,1.649-1.688c7.759-7.563,17.957-12.059,28.328-12.418c1.003-0.035,2.005-0.03,3.006,0.011   c-1.648-7.334-4.499-14.198-8.263-20.088c0.376-0.465,0.632-0.973,0.811-1.488c5.653,0.24,11.492,1.264,17.239,3.636   c6.674,2.777,13.345,7.305,19.832,15.27c3.827,4.718,10.756,5.438,15.474,1.612c4.718-3.827,5.44-10.756,1.612-15.474   c-8.632-10.669-18.583-17.661-28.521-21.743c-9.347-3.859-18.57-5.203-26.786-5.35c-0.309-0.429-0.584-0.839-0.764-1.224   c-0.475-1.004-1.111-1.837-1.673-2.573c-0.415-0.545-0.809-1.063-1.027-1.511c-0.562-1.151-1.362-2.047-2.005-2.768   c-0.388-0.432-0.787-0.882-0.933-1.173c-0.213-0.424-0.167-0.755-0.041-1.46c0.394-2.234-0.252-3.77-1.915-4.58   c-0.309-1.601-0.787-3.155-1.425-4.635c-5.987,3.632-17.686,3.877-20.662,3.877c-0.368,0-0.869-0.004-1.477-0.017   c-0.586-0.013-1.271-0.035-2.029-0.071c-4.818-0.229-12.624-1.038-17.158-3.79c-0.516,1.203-0.939,2.464-1.247,3.784   c-0.072,0.309-0.133,0.618-0.191,0.927c-2.799,1.033-2.735,3.354-2.706,4.247c0.017,0.561,0.029,0.933-0.24,1.473   c-0.105,0.175-0.588,0.588-0.909,0.859c-0.825,0.701-1.851,1.576-2.492,2.885c-0.296,0.606-0.623,1.225-0.954,1.848   c-0.432,0.811-0.87,1.637-1.269,2.48c-0.418,0.886-0.738,1.773-1.05,2.631c-0.25,0.688-0.487,1.338-0.749,1.921   c-0.3,0.666-0.627,1.311-0.944,1.934c-0.418,0.825-0.851,1.679-1.192,2.52c-0.322,0.794-0.412,1.578-0.384,2.316   c-4.74,2.032-9.55,4.727-14.096,8.348C24.13,83.961,18.404,90.775,14.37,99.494l0.002,0.001   C14.371,99.495,14.371,99.496,14.371,99.496z M92.846,67.832c-0.008,0.027-0.014,0.048-0.021,0.075   c-0.559,2.092-0.756,2.666-2.252,2.088c-0.311-0.12-0.533-0.237-0.702-0.358c-0.781-0.559-0.358-1.197-1.534-2.514   c-0.448-0.501-1.019-0.971-1.599-1.458c-0.183-0.153-0.364-0.308-0.546-0.467c-0.224-0.196-0.444-0.396-0.654-0.607   c-0.326-0.327-0.706-0.588-1.095-0.831c-0.148-0.093-0.295-0.19-0.444-0.277c-0.561-0.326-1.121-0.626-1.577-0.994   c-1.269-1.022-2.136-1.882-2.961-1.882c-0.826,0-2.006,0.472-3.274,1.493c-0.697,0.562-1.415,1.235-2.129,1.939   c-0.101,0.099-0.201,0.199-0.301,0.298c-0.106,0.105-0.211,0.208-0.316,0.313c-0.302,0.303-0.583,0.621-0.857,0.94   c-0.05,0.058-0.099,0.116-0.147,0.174c-0.506,0.598-0.98,1.197-1.447,1.718c-1.184,1.325-1.067,1.641-1.975,2.091   c-0.189,0.094-0.408,0.192-0.71,0.309c-1.353,0.522-1.085,0.05-1.42-1.591c-0.041-0.197-0.085-0.403-0.146-0.634   c0-0.001-0.001-0.003-0.001-0.004c-0.187-0.7-0.539-1.58-0.577-2.699c-0.005-0.164-0.024-0.317-0.014-0.492   c0.056-0.919,0.836-1.875,1.101-3.105c0.259-1.201,0.507-2.175,1.018-3.077c0.588-1.04,0.823-2.29,1.627-2.992   c0.881-0.771,1.973-1.306,2.95-1.753c1.098-0.502,2.332-0.422,3.325-0.633c1.518-0.32,2.726-0.803,3.294-0.803   c0.568,0,1.772,0.49,3.288,0.811c0.994,0.209,2.286,0.002,3.385,0.504c0.979,0.447,1.674,1.492,2.556,2.263   c0.803,0.703,1.769,1.343,2.356,2.384c0.511,0.902,0.983,1.963,1.242,3.166c0.058,0.268,0.08,0.527,0.094,0.783   c0.051,0.921-0.112,1.764-0.068,2.483c0.08,1.345,0.714,2.491,0.539,3.29C92.849,67.797,92.85,67.816,92.846,67.832z    M75.913,70.848c-0.431-1.088-0.522-2.28-0.817-3.307c-0.129-0.448-0.27-0.877-0.407-1.295c0.058-0.06,0.112-0.127,0.171-0.186   c0.363-0.365,0.736-0.733,1.11-1.091c0.259-0.247,0.517-0.488,0.772-0.716c0.235-0.21,0.469-0.412,0.697-0.597   c0.925-0.742,1.611-0.984,1.91-1.036c0.265,0.144,0.787,0.576,1.179,0.903c0.188,0.153,0.385,0.316,0.59,0.482   c0.017,0.014,0.031,0.026,0.049,0.04c0.422,0.339,0.864,0.605,1.302,0.86c0.084,0.048,0.168,0.101,0.251,0.149   c0.512,0.292,0.992,0.572,1.331,0.886c-0.079,0.494-0.173,1.005-0.324,1.531c-0.295,1.027-0.467,2.165-0.897,3.254   c-0.161,0.406-0.297,0.833-0.437,1.262c-0.213,0.658-0.434,1.32-0.766,1.924c-0.543,0.986-1.401,1.697-2.102,2.572   c-0.7-0.875-1.33-1.712-1.873-2.699c-0.342-0.623-0.77-1.214-1.146-1.819C76.279,71.602,76.067,71.234,75.913,70.848z    M47.227,69.239c0.549-1.351,1.396-2.804,2.101-4.369c0.643-1.428,1.088-3.041,1.781-4.509c0.702-1.485,1.532-2.913,2.21-4.303   c0.771-1.58,2.747-2.442,3.381-3.709c0.181-0.363,0.296-0.697,0.374-1.01c0.392,5.305,2.67,10.25,6.296,13.995   c0.293,0.303,0.595,0.598,0.905,0.884c0.108,0.576,0.261,1.071,0.391,1.485c0.052,0.165,0.102,0.32,0.14,0.467   c0.04,0.149,0.063,0.273,0.092,0.406c0.068,0.313,0.12,0.6,0.158,0.847c0.101,0.658,0.41,2.663,2.488,2.663   c0.533,0,1.027-0.163,1.481-0.34c1.041-0.402,1.59-0.729,2.063-1.213c0.941,0.379,1.922,0.693,2.932,0.948   c0.014,0.034,0.022,0.068,0.036,0.102c0.325,0.82,0.798,1.533,1.217,2.164c0.219,0.33,0.44,0.659,0.63,1.003   c0.591,1.072,1.25,1.966,2.063,2.982l1.563,1.956l1.563-1.956c0.217-0.271,0.451-0.522,0.686-0.775   c0.532-0.576,1.137-1.229,1.607-2.085c0.438-0.797,0.707-1.629,0.943-2.361c0.104-0.318,0.207-0.63,0.325-0.936   c1.131-0.266,2.234-0.621,3.303-1.054c0.363,0.496,0.922,0.962,1.9,1.34c0.612,0.236,1.122,0.346,1.604,0.346   c2.075,0,2.719-1.681,3.182-3.349c0.048-0.173,0.096-0.347,0.142-0.518c0.194-0.736,0.093-1.441-0.061-2.09   c1.596-1.461,2.988-3.16,4.119-5.058c1.158-1.944,2.043-4.095,2.583-6.417c0.12-0.518,0.216-1.036,0.299-1.553   c0.737,1.01,1.885,1.973,2.522,3.28c0.677,1.388,1.984,2.573,2.687,4.057c0.025,0.055,0.058,0.106,0.085,0.16   c0.708,1.396,1.917,2.585,2.537,3.962c0.705,1.568-0.641,3.935-0.091,5.289c0.769,1.889,2.273,3.117,2.51,4.18   c0.281,1.264-1.349,2.029-2.487,3.677c-0.603,0.873-0.266,2.747-0.745,4.108c-0.101,0.285-0.243,0.541-0.433,0.766   c-0.051,0.061-0.085,0.132-0.144,0.187c-1.047,0.977-3.276,0.834-4.642,1.873c-1.174,0.895-2.652,1.473-4.041,2.4   c-1.249,0.834-2.235,2.178-3.643,3.031c-1.296,0.789-3.132,0.727-4.552,1.525c-1.335,0.75-2.159,2.496-3.593,3.25   c-1.363,0.717-2.802,1.366-4.246,2.082c-1.387,0.686-2.753,2.123-4.207,2.805c-1.455-0.681-2.709-2.34-4.096-3.026   c-1.444-0.716-3.295-0.567-4.657-1.282c-1.434-0.754-1.942-3.103-3.275-3.852c-1.422-0.799-3.213-0.809-4.512-1.598   c-1.116-0.679-2.489-0.88-3.634-1.351c-0.298-0.123-0.584-0.258-0.842-0.431c-1.389-0.928-1.78-3.078-2.956-3.973   c-1.364-1.039-3.387-1.045-4.434-2.021c-0.171-0.159-0.324-0.328-0.466-0.502c-0.956-1.173-1.316-2.622-1.98-3.583   c-1.135-1.646-0.831-2.529-0.55-3.792c0.222-1.005-1.189-3.077-0.689-4.899C47.176,69.444,47.186,69.34,47.227,69.239z"/></g><text x="0" y="223.389" fill="#000000" font-size="5px" font-weight="bold" font-family="'Helvetica Neue', Helvetica, Arial-Unicode, Arial, Sans-serif">Created by Gan Khoon Lay</text><text x="0" y="228.389" fill="#000000" font-size="5px" font-weight="bold" font-family="'Helvetica Neue', Helvetica, Arial-Unicode, Arial, Sans-serif">from the Noun Project</text></svg>