<?xml version="1.0" encoding="utf-8"?>
<!-- Generator: Adobe Illustrator 16.0.3, SVG Export Plug-In . SVG Version: 6.00 Build 0)  -->
<!DOCTYPE svg PUBLIC "-//W3C//DTD SVG 1.1//EN" "http://www.w3.org/Graphics/SVG/1.1/DTD/svg11.dtd">
<svg version="1.1" id="Layer_1" xmlns="http://www.w3.org/2000/svg" xmlns:xlink="http://www.w3.org/1999/xlink" x="0px" y="0px"
	 width="120px" height="100px" viewBox="0 0 120 100" enable-background="new 0 0 120 100" xml:space="preserve">
<g>
	<path fill="#F4DAB8" d="M37.688,45.89c-0.9-2.357-3.758-5.831-3.809-5.106c-1.047-0.791-2.33-1.581-3.611-2.372
		c-3.964-2.504-5.363-2.899-11.309-6.325c-4.428-2.504-6.527-3.822-9.208-5.667c-3.964-3.03-6.877-6.061-8.743-8.169
		c2.68,5.928,5.596,10.145,7.927,13.044c5.945,7.378,8.161,6.061,15.153,14.493c4.429,5.272,7.107,8.171,11.653,10.937
		C35.835,56.762,39.246,49.978,37.688,45.89z"/>
	<path fill="#F4DAB8" d="M109.648,27.58c-2.564,1.976-4.777,3.165-9.208,5.669c-5.945,3.427-7.345,3.829-11.308,6.333
		c-1.281,0.79-2.564,1.596-3.612,2.387c0-0.181-1.408,17.269-1.168,16.18c0.233-0.134,0.467-0.267,0.585-0.397
		c4.546-2.768,5.71-5.666,10.141-10.938c7.11-8.432,9.21-7.114,15.153-14.493c2.448-3.031,5.362-7.246,7.927-13.043
		C116.41,21.516,113.612,24.549,109.648,27.58z"/>
	<path fill="#E9AD8D" d="M36,51.142c0-0.394-0.865-0.921-1.333-1.316c-0.7-0.529-1.25-1.187-1.949-1.713
		c-1.282-1.055-2.548-2.241-3.831-3.427c-2.563-2.24-5.119-4.611-7.918-6.72c-2.682-2.109-5.59-3.954-8.271-6.062
		c-2.683-2.109-5.244-4.48-7.692-6.984c2.331,2.636,4.78,5.008,7.461,7.248c2.682,2.24,5.479,4.216,8.162,6.457
		c2.68,2.107,5.129,4.611,7.691,6.984c1.283,1.185,2.448,2.504,3.731,3.688c0.698,0.66,1.159,1.188,1.741,1.846
		C34.376,51.801,36,52.987,36,53.646v-0.397c0-0.262,0-0.659,0-0.92C36,51.933,36,51.537,36,51.142z"/>
	<path fill="#E9AD8D" d="M108.966,29.462c-2.797,2.108-5.595,4.084-8.394,6.194c-2.681,2.108-5.361,4.348-7.925,6.72
		c-1.283,1.186-2.683,2.371-3.963,3.426l-1.983,1.713c-0.468,0.396-0.932,0.923-1.398,1.318c-0.117,0.395-0.117,0.789-0.117,1.186
		c-0.116,0.263-0.116,0.526-0.116,0.79l-0.116,0.527c0.583-0.658,1.865-1.976,2.448-2.503l1.98-1.714
		c1.282-1.186,2.564-2.503,3.848-3.689c2.448-2.371,5.013-4.744,7.693-6.985c2.681-2.24,5.478-4.216,8.161-6.456
		c1.28-1.186,2.563-2.371,3.846-3.558c1.282-1.186,2.564-2.502,3.729-3.952c-1.164,1.317-2.446,2.503-3.729,3.689
		C111.646,27.354,110.364,28.409,108.966,29.462z"/>
</g>
<g>
	<g>
		<path fill="#FFFA97" d="M49.481,53.087l2.099,0.134C50.881,53.087,50.182,52.956,49.481,53.087z"/>
		<path d="M49.428,53.092l0.057-0.055c0.187-0.179,0.367-0.252,0.546-0.303c0.178-0.045,0.355-0.064,0.526,0.003
			c0.171,0.071,0.336,0.242,0.509,0.288c0.172,0.05,0.351,0.001,0.531-0.075l-0.068,0.537c-0.189,0.063-0.373,0.108-0.546,0.104
			c-0.171,0.019-0.336,0.026-0.497-0.004c-0.154-0.03-0.307-0.07-0.469-0.159c-0.156-0.057-0.324-0.148-0.526-0.292L49.428,53.092z
			 M49.472,53.038c0.148-0.179,0.332-0.307,0.526-0.398c0.19-0.074,0.389-0.102,0.588-0.116c0.38,0.05,0.737,0.165,1.044,0.431
			l2.043,1.764l-2.111-1.227c-0.169-0.099-0.34-0.169-0.518-0.142c-0.177,0.022-0.362,0.171-0.541,0.221
			c-0.179,0.045-0.352,0.003-0.523-0.063c-0.171-0.074-0.34-0.169-0.503-0.37l-0.043-0.054L49.472,53.038z"/>
	</g>
	<g>
		<path fill="#FFFA97" d="M86.202,41.372c0-0.923-0.119-1.834-0.119-1.834s-0.115-1.558-0.464-3.007
			c-0.816-4.348-2.565-8.256-4.897-11.683c-2.099-3.03-4.546-4.903-7.46-6.749c-3.497-2.372-7.578-3.1-11.772-3.1
			c-0.351,0-0.816,0-1.168,0c-0.348,0-0.814,0-1.164,0c-6.295,0-12.239,2.441-16.669,7.316c-1.982,2.24-3.73,4.292-5.013,7.19
			c-0.466,1.055-2.648,8.458-2.915,11.988c-0.266,3.531,0.934,16.272,1.166,16.403c1.283,4.744,3.497,9.586,7.461,13.801
			c1.398,1.452,3.381,3.146,5.945,4.729l2.127,1.57l0.67,0.393l1.981,0.921l-1.399-1.847c-0.932-1.053-1.748-2.241-2.446-3.559
			c-3.497-6.456-2.565-13.571-1.632-17.393c0.116,0,0.116,0.131,0.232,0.131l0.815-3.558c0.7-1.844,1.399-3.161,1.981-3.82
			c0.584-0.79,1.283-1.319,1.283-1.319c1.398-1.316,2.68-1.976,3.846-2.502c0.232-0.133,0.467-0.265,0.584-0.265
			c1.166-0.657,2.447-1.712,5.012-3.689c2.914-2.371,4.431-4.216,5.479-5.401s1.283-1.582,1.98-1.582
			c3.031,0,6.528,8.433,7.693,15.943c0.467,4.35,0.467,8.696-0.35,13.046c-0.011,0.025,0,0.001,0,0.001s-0.273,3.345-0.467,4.216
			c-0.193,0.87-2.331,6.981-3.496,9.354c4.313-2.898,6.064-4.141,8.043-8.302C86.457,57.437,86.277,41.315,86.202,41.372z"/>
		<path d="M86,41.602l0.07-0.226c-0.11-2.076-0.369-4.108-0.939-6.102c-0.261-1.001-0.47-2.016-0.88-2.958
			c-0.375-0.956-0.679-1.932-1.185-2.833c-0.477-0.91-0.877-1.858-1.461-2.708c-0.568-0.875-1.026-1.753-1.715-2.542l-0.96-1.218
			c-0.34-0.383-0.711-0.728-1.064-1.093c-0.68-0.752-1.499-1.373-2.287-2.022c-0.786-0.649-1.684-1.171-2.511-1.757l-1.328-0.804
			l-1.35-0.667c-1.851-0.833-3.84-1.349-5.859-1.592l-1.521-0.134l-1.528-0.04L59.93,14.91l-0.754,0.002l-0.775,0.044l-1.55,0.088
			l-1.487,0.247l-0.743,0.123l-0.733,0.203l-1.466,0.406l-1.415,0.56l-0.707,0.28l-0.674,0.353l-1.35,0.703l-1.273,0.833
			l-0.638,0.417l-0.593,0.477l-1.184,0.959c-0.719,0.714-1.481,1.401-2.138,2.167c-1.399,1.549-2.592,3.167-3.647,4.915
			l-0.701,1.351l-0.176,0.338c-0.025,0.046-0.068,0.135-0.079,0.146l-0.063,0.184l-0.253,0.733
			c-0.361,0.977-0.608,1.962-0.902,2.944c-0.301,0.977-0.542,1.979-0.784,2.981c-0.243,1.001-0.517,1.999-0.648,3.011
			c-0.144,1.018-0.4,2-0.385,3.039c-0.024,1.011,0.015,2.054,0.046,3.082c0.082,2.063,0.213,4.128,0.369,6.19l0.273,3.089
			l0.164,1.541l0.096,0.766l0.057,0.377l0.031,0.187c0.017,0.043-0.005,0.02-0.031,0.065l0.085,0.11l0.409,1.402
			c0.125,0.472,0.306,0.925,0.458,1.387c0.155,0.462,0.317,0.921,0.51,1.368c0.188,0.449,0.356,0.907,0.561,1.349l0.627,1.319
			c0.205,0.441,0.464,0.855,0.693,1.285c0.234,0.427,0.479,0.848,0.756,1.248l0.806,1.217l0.884,1.161
			c0.282,0.396,0.616,0.752,0.936,1.118c0.327,0.355,0.631,0.749,0.977,1.074c0.354,0.337,0.699,0.687,1.06,1.014l1.104,0.944
			c0.37,0.313,0.772,0.591,1.156,0.888c0.758,0.61,1.609,1.091,2.41,1.641l0.016,0.01l2.134,1.564l-0.02-0.013l0.672,0.392
			l-0.02-0.011l1.986,0.913l-0.296,0.366l-1.408-1.84l0.012,0.015l-0.871-1.105l-0.435-0.553c-0.132-0.193-0.248-0.397-0.372-0.596
			l-0.733-1.2c-0.244-0.436-0.402-0.844-0.607-1.267l-0.583-1.258c-0.16-0.439-0.288-0.897-0.433-1.347
			c-0.135-0.451-0.296-0.899-0.407-1.356l-0.258-1.382c-0.078-0.461-0.197-0.918-0.214-1.388l-0.115-1.4
			c-0.091-0.934-0.015-1.871-0.029-2.807c0.097-0.93,0.111-1.871,0.28-2.792c0.119-0.929,0.312-1.845,0.51-2.76l0.068-0.315
			l0.311,0.018c0.091,0.006,0.194,0.035,0.275,0.081c0.055,0.037,0.091,0.073,0.132,0.115c-0.007-0.012-0.012-0.014-0.031-0.024
			c-0.037-0.032-0.097-0.05-0.145-0.042l-0.381,0.303l0.792-3.563l0.007-0.03l0.01-0.024l0.408-1.019
			c0.126-0.342,0.301-0.671,0.453-1.006c0.146-0.336,0.336-0.661,0.522-0.987c0.165-0.33,0.431-0.639,0.654-0.955l-0.024,0.03
			l0.65-0.734c0.205-0.254,0.462-0.468,0.716-0.683l-0.037,0.031l0.907-0.775c0.303-0.258,0.648-0.463,0.971-0.696
			c0.325-0.233,0.686-0.402,1.027-0.605c0.348-0.19,0.707-0.346,1.059-0.521l-0.039,0.02l0.306-0.167
			c0.035-0.024,0.135-0.063,0.228-0.092c0.093-0.029,0.188-0.052,0.281-0.069l-0.23,0.061c0.8-0.571,1.617-1.066,2.404-1.693
			l2.369-1.84c0.722-0.606,1.516-1.293,2.238-1.953c0.699-0.688,1.406-1.363,2.063-2.109c0.675-0.729,1.313-1.492,1.984-2.25
			c0.181-0.193,0.345-0.394,0.614-0.594c0.253-0.203,0.666-0.35,0.992-0.34l0.032-0.002l0.095,0.008l0.012,0.002l0.046,0.007
			l0.093,0.016l0.186,0.031c0.123,0.02,0.239,0.028,0.403,0.109c0.3,0.129,0.634,0.272,0.825,0.451
			c0.902,0.681,1.543,1.534,2.084,2.412c0.549,0.879,1.009,1.795,1.421,2.727c0.411,0.933,0.786,1.878,1.109,2.839
			c0.337,0.957,0.628,1.928,0.891,2.906c0.268,0.977,0.498,1.963,0.696,2.957c0.109,0.495,0.186,0.996,0.273,1.496l0.064,0.375
			c0.027,0.203,0.024,0.271,0.038,0.413l0.058,0.749c0.061,1.004,0.198,1.984,0.183,3.01c-0.004,1.016,0.069,2.036,0.001,3.047
			c-0.07,1.011-0.097,2.025-0.205,3.033l-0.434,3.013l-0.03,0.103v-0.001l0.005-0.014l0.021-0.075l-0.924-0.345l0.213,0.041L77,63.3
			l0,0v-0.002l1.005-2.66l-0.399,2.902l-0.23,1.778l-0.269,1.806c-0.061,0.308-0.049,0.585-0.183,0.917l-0.297,0.842l-0.582,1.683
			c-0.201,0.56-0.369,1.124-0.599,1.681l-0.686,1.669l-1.371,3.332l-0.586-0.513c1.377-0.921,2.764-1.827,4.024-2.857
			c0.301-0.271,0.614-0.53,0.906-0.81l0.827-0.884l0.738-0.961l0.647-1.032c0.396-0.721,0.782-1.422,1.121-2.187
			c0.351-0.755,0.659-1.502,0.955-2.275c0.59-1.539,1.09-3.114,1.523-4.708c0.863-3.19,1.457-6.454,1.901-9.736
			c0.22-1.642,0.39-3.291,0.516-4.944c0.062-0.827,0.112-1.654,0.149-2.482l-0.041-1.243L86,41.994v-0.311V41.602z M86,41.379
			c0,0.008,0.136,0.016,0.133,0.024l0.066,0.043l0.036,0.079l0.022,0.156l0.016,0.312l0.01,0.624l-0.009,1.247
			c-0.016,0.831-0.045,1.661-0.086,2.491c-0.083,1.66-0.212,3.318-0.39,4.972c-0.346,3.309-0.905,6.6-1.735,9.83
			c-0.415,1.615-0.898,3.215-1.476,4.784c-0.286,0.78-0.602,1.572-0.939,2.327c-0.324,0.758-0.727,1.521-1.12,2.257l-0.661,1.086
			l-0.765,1.024c-0.278,0.322-0.574,0.63-0.86,0.945c-0.304,0.299-0.626,0.574-0.938,0.861c-1.297,1.089-2.683,2.02-4.051,2.962
			l-1.084,0.748l0.498-1.26l1.29-3.269l0.646-1.631c0.217-0.543,0.379-1.121,0.571-1.68l0.556-1.689l0.277-0.845
			c0.101-0.22,0.086-0.557,0.135-0.829l0.203-1.726l0.147-1.766l0.955,0.242l-0.224,0.009L77,63.714v0.003l0.199,0.042l-0.813-0.344
			l0.075-0.075l0.033-0.015l0.022-0.021l-0.023,0.102l0.417-2.935c0.104-0.982,0.128-1.974,0.196-2.96
			c0.064-0.988-0.01-1.973-0.007-2.959c0.016-0.979-0.125-1.99-0.187-2.984l-0.06-0.749c-0.01-0.107-0.021-0.29-0.03-0.334
			l-0.063-0.366c-0.087-0.487-0.162-0.976-0.271-1.458c-0.196-0.97-0.423-1.935-0.687-2.889c-0.259-0.956-0.546-1.904-0.877-2.835
			c-0.316-0.937-0.684-1.854-1.082-2.753c-0.399-0.898-0.844-1.775-1.357-2.593c-0.495-0.827-1.099-1.599-1.793-2.128
			c-0.18-0.167-0.326-0.192-0.472-0.291c-0.091-0.095-0.554-0.114-0.591-0.144c-0.179,0.003-0.257,0.038-0.401,0.136
			c-0.137,0.094-0.303,0.278-0.462,0.45c-0.66,0.737-1.313,1.506-2.003,2.244c-0.673,0.754-1.417,1.459-2.151,2.17
			c-0.761,0.683-1.485,1.305-2.301,1.981l-2.387,1.831c-0.784,0.618-1.683,1.165-2.52,1.748l-0.23,0.061
			c-0.009,0.017-0.016,0.027-0.024,0.032c-0.008,0.005-0.013-0.005-0.069,0.029l-0.259,0.14l-0.016,0.009l-0.023,0.011
			c-0.336,0.165-0.685,0.313-1.012,0.491c-0.318,0.188-0.66,0.343-0.961,0.558c-0.3,0.216-0.623,0.401-0.905,0.641l-0.85,0.717
			l-0.034,0.028l-0.003,0.003l-0.321,0.275c-0.11,0.087-0.196,0.209-0.296,0.311l-0.583,0.636l-0.014,0.016l-0.01,0.015
			c-0.189,0.272-0.41,0.504-0.572,0.82c-0.174,0.297-0.355,0.591-0.499,0.915c-0.149,0.318-0.319,0.625-0.446,0.957l-0.408,0.982
			l0.017-0.055l-0.838,3.552l-0.076,0.323l-0.306-0.02C48.574,57.03,48.471,57,48.39,56.954c-0.055-0.037-0.091-0.074-0.132-0.116
			c0.007,0.012,0.012,0.013,0.031,0.023c0.037,0.032,0.097,0.049,0.144,0.042l0.378-0.297c-0.204,0.889-0.404,1.78-0.532,2.685
			c-0.178,0.897-0.202,1.813-0.31,2.721c0.004,0.91-0.084,1.826-0.006,2.735l0.094,1.364c0.009,0.458,0.121,0.902,0.19,1.353
			l0.233,1.347c0.102,0.441,0.25,0.868,0.373,1.304c0.133,0.432,0.246,0.868,0.395,1.299l0.566,1.266
			c0.193,0.41,0.368,0.869,0.575,1.239l0.702,1.173c0.119,0.194,0.229,0.396,0.355,0.584l0.418,0.54l0.835,1.081l0.013,0.015
			l1.391,1.854l0.587,0.782l-0.883-0.416L51.832,78.6l-0.011-0.005l-0.009-0.006l-0.668-0.397l-0.011-0.007l-0.009-0.006
			l-2.12-1.584l0.015,0.01c-0.807-0.564-1.663-1.059-2.426-1.684c-0.387-0.305-0.789-0.589-1.163-0.911l-1.117-0.974
			c-0.361-0.333-0.7-0.684-1.052-1.024c-0.363-0.351-0.656-0.738-0.987-1.105c-0.32-0.374-0.654-0.736-0.937-1.14l-0.883-1.183
			l-0.804-1.237c-0.276-0.407-0.519-0.835-0.752-1.269c-0.234-0.432-0.499-0.848-0.708-1.293l-0.643-1.327
			c-0.209-0.444-0.382-0.905-0.575-1.357c-0.197-0.45-0.365-0.912-0.524-1.378c-0.157-0.465-0.343-0.922-0.472-1.396l-0.422-1.413
			l0.085,0.11c-0.064-0.078-0.133-0.223-0.146-0.306l-0.034-0.196l-0.062-0.39l-0.102-0.773l-0.175-1.546l-0.3-3.094
			c-0.191-2.063-0.358-4.128-0.476-6.2c-0.05-1.04-0.107-2.066-0.1-3.125c-0.033-1.04,0.209-2.087,0.339-3.118
			c0.12-1.046,0.378-2.051,0.606-3.066c0.228-1.014,0.453-2.029,0.745-3.036c0.283-1.005,0.527-2.034,0.869-3.006l0.241-0.738
			l0.06-0.185l0.097-0.199l0.176-0.354l0.709-1.415c1.069-1.803,2.341-3.532,3.711-5.063c0.686-0.809,1.463-1.517,2.208-2.262
			l1.223-1.002l0.614-0.499l0.66-0.437l1.32-0.873l1.407-0.726l0.704-0.361l0.738-0.288l1.476-0.572l1.528-0.414l0.765-0.205
			l0.789-0.125l1.578-0.247l1.55-0.078l0.775-0.039l0.798,0.002l1.552,0.005l1.575,0.052l1.571,0.149
			c2.087,0.266,4.149,0.813,6.071,1.694l1.422,0.731l1.314,0.826c0.853,0.621,1.745,1.161,2.545,1.842
			c0.8,0.679,1.624,1.324,2.325,2.123c0.359,0.384,0.741,0.754,1.08,1.15l0.943,1.233c0.666,0.787,1.17,1.755,1.713,2.625
			c0.579,0.87,0.975,1.842,1.429,2.779c0.486,0.923,0.783,1.933,1.137,2.914c0.39,0.975,0.464,1.99,0.698,2.998
			C85.823,37.215,86,39.309,86,41.369V41.379z"/>
	</g>
</g>
<path d="M74.005,73.117c-0.583,0.789-0.722,1.054-1.188,1.579c-0.466,0.527-1.525,1.715-3.974,5.009l-0.24,0.264
	c-1.632,2.237-2.798,3.688-4.78,4.741c-1.282,0.792-2.682,1.187-3.615,1.187c-0.933,0-2.332-0.525-3.615-1.187
	c-1.979-1.054-3.146-2.504-4.777-4.741l-0.816-1.057c-0.349-0.525-0.816-1.187-1.166-1.578l0.854,0.006l1.244,1.047l0.7,0.923
	c1.515,2.107,2.564,3.424,4.429,4.48c1.283,0.789,2.564,1.053,3.147,1.053c0.582,0,1.865-0.395,3.147-1.053
	c1.865-1.057,2.798-2.373,4.429-4.48l0.233-0.264c2.564-3.294,3.497-4.479,4.08-5.14c0.466-0.525,0.583-0.789,1.05-1.448
	c1.748-2.899,2.331-4.568,2.914-6.416c0.233-0.789,0.994-2.883,0.994-2.883l-0.015,4.039C77.039,67.198,74.356,72.541,74.005,73.117
	z"/>
<path fill="#F4DAB8" d="M69.647,34.509c-0.697,0-0.932,0.396-1.98,1.582s-2.565,3.03-5.479,5.401
	c-2.564,1.977-3.846,3.032-5.012,3.689c-0.117,0-0.352,0.132-0.584,0.265c-1.166,0.526-2.447,1.186-3.846,2.502
	c0,0-0.699,0.529-1.283,1.319c-0.582,0.659-1.281,1.977-1.981,3.82c0.7-0.131,1.399,0,2.099,0.134
	c0.816,0.13,1.515,0.394,2.215,0.922c0.35,0.262,0.699,0.526,1.049,0.92c0.351,0.397,0.699,0.792,0.934,1.318
	c-0.467,0.396-0.816,0.658-1.283,0.792c-0.465,0.264-0.932,0.264-1.281,0.397c-0.816,0.261-1.633,0.13-2.332,0
	c-0.815-0.134-1.516-0.397-2.215-0.926c-0.116,0-0.116-0.131-0.232-0.131c-0.934,3.821-1.865,10.937,1.632,17.393
	c0.698,1.317,1.515,2.505,2.446,3.558l1.399,1.846l-1.981-0.923l0.7,0.923c1.515,2.107,2.564,3.424,4.429,4.48
	c1.283,0.789,2.564,1.053,3.147,1.053c0.582,0,1.865-0.395,3.147-1.053c1.865-1.057,2.798-2.373,4.429-4.48l0.233-0.264
	c2.564-3.294,3.497-4.479,4.08-5.14c0.466-0.525,0.583-0.789,1.05-1.448c1.748-2.899,2.448-4.875,3.03-6.723
	c0.234-0.789,0.467-1.448,0.815-2.237c0.816-4.35,0.816-8.696,0.35-13.046C76.176,42.941,72.679,34.509,69.647,34.509z
	 M56.797,69.427C56.914,68.901,57,68.372,57,67.979c0,0.525,0,1.053,0,1.448c0,0.132,0.264,0.352,0.379,0.484
	c0.117,0.132,0.38,0.089,0.38,0.089s0,0,0.116,0s0.467-0.089,0.699-0.089c0.35,0.132,0.583,0.155,0.816,0.283
	c0.232,0.134,0.466-0.031,0.583,0.101L60.09,70c0.116,0,0.116,0,0.116,0c0.115,0,0.115,0,0.115,0s0,0.438,0.118,0.306
	c0.116-0.132,0.349-0.177,0.582-0.311c0.351-0.128,0.583-0.195,0.815-0.195c0.234,0,0.583,0.2,0.7,0.2s0.117,0,0.117,0l0.116-0.089
	c0.116-0.133,0.116-0.242,0.116-0.506c0.116-0.525,0-0.912,0-1.438c0.234,0.525,0.351,0.927,0.467,1.452
	c0,0.265,0.116,0.531,0,0.926c0,0.264-0.116,0.828-0.232,0.961C63.003,71.568,62.771,72,62.654,72c-0.234,0-0.467,0-0.583,0
	s-0.351-0.432-0.467-0.297c-0.115,0.13-0.232,0.047-0.349,0.178c-0.117,0-0.234,0.023-0.352,0.157
	c-0.231,0.13-0.349,0.077-0.583,0.077c-0.231,0-0.465-0.027-0.582-0.158c-0.116-0.134-0.232-0.146-0.349-0.277
	c-0.117-0.264-0.233,0.16-0.351,0.029c-0.116,0-0.349,0.291-0.466,0.291s-0.35,0-0.583,0c-0.116,0-0.351-0.562-0.466-0.692
	c-0.233-0.134-0.365-0.479-0.599-0.743C56.811,70.17,56.797,69.69,56.797,69.427z M63.354,77.464
	c-1.049,0.262-1.981,0.397-3.032,0.397c-1.048,0-1.979-0.136-3.029-0.397c-0.468-0.264-1.05-0.395-1.515-0.659
	c-0.467-0.264-1.05-0.658-1.518-1.053c0.468-0.528,1.051-0.792,1.518-1.056c0.465-0.264,1.047-0.525,1.515-0.656
	c1.05-0.267,1.981-0.396,3.029-0.396c1.051,0,1.983,0.129,3.032,0.656c1.05,0.267,1.981,0.659,3.03,1.582
	C65.335,76.675,64.403,77.2,63.354,77.464z M73.028,55.854c-0.35,0.396-0.699,0.659-1.049,0.923c-0.7,0.396-1.517,0.793-2.215,0.923
	c-0.7,0.131-1.517,0.131-2.331,0c-0.468-0.13-0.815-0.264-1.282-0.397c-0.35-0.13-0.816-0.395-1.283-0.789
	c0.233-0.525,0.583-0.923,0.934-1.317c0.35-0.395,0.697-0.659,1.049-0.923c0.698-0.395,1.515-0.789,2.214-0.923
	c0.7-0.13,1.516-0.13,2.332,0c0.467,0.134,0.815,0.264,1.282,0.396c0.35,0.133,0.816,0.396,1.282,0.791
	C73.729,55.063,73.377,55.46,73.028,55.854z"/>
<path fill="#E9AD8D" d="M60.321,72.095c-0.231,0-0.465-0.017-0.582-0.146c-0.116-0.134-0.232-0.143-0.349-0.274
	c-0.117-0.264-0.233,0.164-0.351,0.034c-0.116,0-0.349,0.292-0.466,0.292s-0.35,0-0.583,0c-0.116,0-0.351-0.562-0.466-0.692
	c-0.233-0.134-0.315-0.479-0.549-0.743c-0.115-0.395-0.18-0.833-0.18-1.098C56.914,68.941,57,68.372,57,67.979
	c0,0.525,0,1.053,0,1.448c0,0.132,0.264,0.352,0.379,0.484c0.117,0.132,0.38,0.089,0.38,0.089s0,0,0.116,0s0.467-0.089,0.699-0.089
	c0.35,0.132,0.583,0.155,0.816,0.283c0.232,0.134,0.466-0.031,0.583,0.101L60.09,70c0.116,0,0.116,0,0.116,0
	c0.115,0,0.115,0,0.115,0s0,0.438,0.118,0.306c0.116-0.132,0.349-0.177,0.582-0.311c0.351-0.128,0.583-0.195,0.815-0.195
	c0.234,0,0.583,0.2,0.7,0.2s0.117,0,0.117,0l0.116-0.089c0.116-0.133,0.116-0.242,0.116-0.506c0.116-0.525,0-0.912,0-1.438
	c0.234,0.525,0.351,0.927,0.467,1.452c0,0.265,0.116,0.531,0,0.926c0,0.264-0.116,0.828-0.232,0.961
	C63.003,71.568,62.771,72,62.654,72c-0.234,0-0.467,0-0.583,0s-0.351-0.432-0.467-0.297"/>
<path fill="#E9AD8D" d="M61.604,71.539c-0.115,0.131-0.232,0.13-0.349,0.261c-0.117,0-0.234,0.064-0.352,0.197
	c-0.231,0.131-0.349,0.098-0.583,0.098"/>
<path fill="#F7C6C6" d="M63.354,77.464c-1.049,0.262-1.981,0.397-3.032,0.397c-1.048,0-1.979-0.136-3.029-0.397
	c-0.468-0.264-1.05-0.395-1.515-0.659c-0.467-0.264-1.05-0.658-1.518-1.053c0.468-0.528,1.051-0.792,1.518-1.056
	c0.465-0.264,1.047-0.525,1.515-0.656c1.05-0.267,1.981-0.396,3.029-0.396c1.051,0,1.983,0.129,3.032,0.656
	c1.05,0.267,1.981,0.659,3.03,1.582C65.335,76.675,64.403,77.2,63.354,77.464z"/>
<path fill="#FFFFFF" d="M73.028,55.854c-0.35,0.396-0.699,0.659-1.049,0.923c-0.7,0.396-1.517,0.793-2.215,0.923
	c-0.7,0.131-1.517,0.131-2.331,0c-0.468-0.13-0.815-0.264-1.282-0.397c-0.35-0.13-0.816-0.395-1.283-0.789
	c0.233-0.525,0.583-0.923,0.934-1.317c0.35-0.395,0.697-0.659,1.049-0.923c0.698-0.395,1.515-0.789,2.214-0.923
	c0.7-0.13,1.516-0.13,2.332,0c0.467,0.134,0.815,0.264,1.282,0.396c0.35,0.133,0.816,0.396,1.282,0.791
	C73.729,55.063,73.377,55.46,73.028,55.854z"/>
<ellipse fill="#3FA9F5" cx="69.236" cy="55.598" rx="1.534" ry="1.598"/>
<ellipse cx="69.282" cy="55.46" rx="0.557" ry="0.581"/>
<path fill="#FFFFFF" d="M49.481,53.087c0,0,1.399,0,2.099,0.134c0.816,0.13,1.515,0.394,2.215,0.922
	c0.35,0.262,0.699,0.526,1.049,0.92c0.351,0.397,0.699,0.792,0.934,1.318c-0.467,0.396-0.816,0.658-1.283,0.792
	c-0.465,0.264-0.932,0.264-1.281,0.397c-0.816,0.261-1.633,0.13-2.332,0c-0.815-0.134-1.516-0.397-2.215-0.926
	c-0.116,0-0.232-0.131-0.232-0.131L49.481,53.087z"/>
<ellipse fill="#3FA9F5" cx="51.866" cy="55.598" rx="1.534" ry="1.598"/>
<ellipse cx="51.911" cy="55.46" rx="0.558" ry="0.581"/>
</svg>
