<svg xmlns:dc="http://purl.org/dc/elements/1.1/" xmlns:cc="http://creativecommons.org/ns#" xmlns:rdf="http://www.w3.org/1999/02/22-rdf-syntax-ns#" xmlns:svg="http://www.w3.org/2000/svg" xmlns="http://www.w3.org/2000/svg" version="1.1" x="0px" y="0px" viewBox="0 0 100 125"><g><path d="m 91.172581,50.856079 c -1.207974,0.398528 -2.194977,-0.251364 -3.402951,-0.486136 0,0 0.265165,-1.281631 1.988737,-1.016467 1.278721,0.196726 1.414214,1.502603 1.414214,1.502603 z M 79.955357,47.589286 c 1.934147,1.200631 4.881255,2.406582 6.603553,2.801777 l -1.201768,0.144652 -6.089285,-0.866072 c 0.151398,-0.771221 0.0485,-1.796738 0.6875,-2.080357 z m -44.823263,2.943877 c 1.809195,2.586336 14.124154,3.903824 21.659965,-6.017504 -5.796494,0.638263 -7.677219,-2.723476 -8.673791,-4.461498 -0.31944,0.168011 -0.74985,0.455527 -1.08397,0.49833 0.236132,0.433867 1.064357,2.294927 0.821679,4.615167 -0.242678,2.32024 -0.616534,5.793519 -5.618974,6.500953 -4.492308,0.726721 -6.087376,-2.549502 -6.187185,-3.944005 -0.09981,-1.394503 0.13083,-2.109394 0.505078,-2.841054 0.374248,-0.731661 0.609005,-1.006955 1.104853,-1.357391 0.495848,0.501874 0.463758,1.622658 0.69448,2.335976 0.230722,0.713318 0.604196,1.572073 2.211613,1.611835 1.607417,0.03976 1.707239,-1.22081 1.608026,-2.211613 -0.09921,-0.990803 -0.664842,-2.441222 -1.862468,-3.125159 -0.432082,0.09218 -2.480741,0.327444 -4.819889,-0.230874 -2.438036,1.385261 -2.849005,5.713309 -0.359417,8.626837 z m -10.65156,-4.235349 c -2.042995,-1.306258 -5.260872,-3.47424 -6.756903,-8.419578 -0.707685,-2.33935 -1.154704,-5.280912 -0.704468,-8.130092 0.450235,-2.849181 1.797726,-5.605981 3.42906,-7.575809 2.588553,-3.125665 9.443125,-6.026609 15.728739,-3.490855 0.298893,2.240859 0.828104,4.215825 2.877878,7.074277 1.899949,1.976214 2.157594,2.452665 5.306699,4.024202 -0.449947,2.443672 -0.881119,4.285295 -2.256593,5.653688 -1.375474,1.368393 -6.087987,2.477577 -8.607484,0.850709 -2.519497,-1.626868 -3.226101,-4.930644 -0.600708,-6.868656 -0.420047,4.33946 3.142116,4.832163 4.912483,3.432968 1.770367,-1.399195 1.116477,-3.958073 0.381435,-5.199874 -0.735042,-1.241801 -3.387399,-3.052395 -5.950235,-2.664702 -2.562836,0.387693 -4.375415,1.188154 -5.519716,4.552301 -1.144301,3.364147 0.775197,5.898618 2.261051,7.38953 -3.210754,2.16034 -5.000642,6.80954 -4.501238,9.371891 z M 85.15625,25.875 c -0.04722,0.02039 -0.233586,-0.115394 -0.360485,0.0054 -0.656571,0.624782 -2.040502,1.326433 -2.639515,1.525888 -0.241175,0.0803 -3.107109,1.329385 -4.09375,1.4375 -0.285151,0.03125 -1.991147,0.75924 -2.4375,1.71875 -0.260244,0.55944 -0.476536,1.280032 0.25,2.125 0.230699,0.268257 1.076304,0.555563 1.5625,0.28125 0.457084,-0.257888 0.867122,-1.159089 -1.28125,-1.8125 0.661115,-1.095353 1.632288,-1.01297 2.46875,-0.9375 1.397558,0.126098 2.189404,1.37883 2,3.09375 -0.147023,1.331191 -1.322406,2.224215 -2.46875,2.65625 -1.384821,0.521911 -4.049107,-0.4375 -4.40625,-0.4375 -0.357143,0 -1.25,0.625 -1.25,0.625 1.342666,0.787 1.9884,2.073667 2.3125,2.625 0.324101,0.551332 0.224846,3.964146 0.71875,5.90625 0.493904,1.942109 1.71875,4.90625 1.71875,4.90625 l 1.28125,0.21875 c 0,0 0.868502,-2.90067 2.0625,-3.28125 1.502538,-0.478926 2.943318,-2.452024 2.625,-3.1875 -0.571461,-1.320364 -0.78125,-2.90625 -0.78125,-2.90625 0,0 -0.203681,-2.563635 -0.53125,-3.5 -0.32757,-0.936364 -0.08102,-2.896064 1.21875,-4.125 -0.846804,-0.471323 -2.099189,-1.367408 -2.3125,-2.34375 0.662129,1.633836 3.068255,2.698986 3.5625,2.53125 0.18906,-0.06416 0.618054,-0.627378 0.703857,-0.958113 -0.715075,-0.641443 -0.458266,-0.566969 -0.580158,-0.993634 0.176313,0.300932 0.932984,0.281672 0.92631,0.459376 -0.01102,0.293414 0.476948,-0.271849 0.637491,-0.632629 0.699894,0.572698 1.09375,0.1875 1.09375,0.1875 l 0.53125,-2.5 c 0,0 0.550424,0.01553 0.78125,-0.15625 0.230826,-0.171783 1.08929,-1.366072 1,-1.8125 -0.08929,-0.446429 -3.401786,-0.59821 -3.9375,-0.6875 -0.26786,-0.04464 -0.327777,-0.05164 -0.375,-0.03125 z m 0.07322,2.196653 c 0.326976,0.06916 0.956744,0.250045 1.011374,0.43593 -0.273604,-0.09492 -0.451204,-0.05452 -0.397097,0.336167 -0.311652,-0.199124 -0.562573,-0.505496 -0.614277,-0.772097 z m -0.578952,-4.4709 c 1.25,1.190476 0.316105,1.41956 0.317899,2.008927 l 4.654045,0.707284 c 0.247736,-0.474252 1.654207,-1.479871 0.869924,-2.971923 -0.594801,-1.131574 -2.672545,-1.214893 -3.682379,-1.077774 -1.009834,0.137119 -2.159489,1.333486 -2.159489,1.333486 z m -2.148275,-1.32307 c 2.054328,-0.704682 4.101566,-1.588943 6.783471,-1.474112 0.255527,0.498103 0.305938,1.143289 0.714286,1.774883 -2.897999,-1.082501 -4.44887,-0.241439 -5.477066,0.899202 -0.356429,-0.492267 -1.188122,-0.945776 -2.020691,-1.199973 z m 6.643719,-1.827196 c 0,0 -5.549975,-3.561098 -8.815857,-3.89245 -6.89124,-0.699177 -12.769683,2.796996 -14.064226,3.760606 -1.68763,1.256209 -6.151537,2.629601 -11.919735,4.120152 -5.685818,1.469263 -8.929532,-0.498979 -11.108506,-2.179615 -2.310644,-1.782193 -2.202819,-5.980603 0.3532,-7.772663 1.733124,-1.215116 4.363354,-0.686039 5.340221,0.269267 0.99307,0.971152 0.620927,3.497254 -0.547507,3.997281 -1.206602,0.51636 -3.609021,-0.179981 -1.758313,-3.177398 -1.631436,-0.720631 -4.388331,1.8547 -2.601977,4.959074 1.003387,1.743713 4.413876,2.695477 6.795967,1.176483 2.315917,-1.476797 3.315834,-3.784583 2.194744,-7.727156 -1.085364,-3.816934 -8.004679,-6.2554852 -13.121921,-2.835473 -2.373107,1.586022 -3.902155,4.83528 -3.375037,7.843488 0.73236,4.179507 2.607136,7.25418 6.155585,9.443998 1.121002,0.691792 3.159058,1.938001 4.954475,2.29893 1.279658,0.257248 0.512915,0.505599 2.214791,-1.116102 1.701876,-1.621701 6.469035,-2.676399 9.806425,0.625445 5.336019,-1.058125 7.152674,-1.667289 11.913005,-5.912595 -6.260288,5.638938 -8.084134,5.780798 -10.934966,7.879829 0.43414,1.279917 0.375353,1.942711 0.296252,3.17429 -0.0791,1.231579 -1.368311,2.961774 -3.118044,3.760073 -1.749733,0.798299 -4.469279,0.301285 -5.433512,-0.665157 -0.964233,-0.966442 -1.360395,-2.383021 -1.137736,-3.916199 0.222659,-1.533178 1.57078,-2.957082 2.999819,-3.026739 1.429039,-0.06966 3.050878,0.7912 3.159353,2.229512 0.08448,1.120196 -1.030136,2.281869 -2.459392,2.049883 -1.105191,-0.179387 -0.985649,-2.348704 1.054571,-2.115645 -1.83954,-1.922472 -3.614504,-0.05984 -3.744131,1.153107 -0.118635,1.110092 0.113287,2.659892 1.861086,3.416328 2.063014,0.89286 5.894028,-0.340185 6.072518,-3.171117 0.17849,-2.830932 -1.23255,-4.752778 -2.034695,-5.240551 -2.24927,-1.36775 -4.992115,-1.52026 -6.70758,-0.779279 -2.378432,1.027344 -3.674569,3.58353 -3.943281,5.911124 -0.268712,2.327594 0.48771,7.463685 5.697044,9.147778 1.411251,0.190741 3.486142,0.36755 4.057242,-0.270098 4.836801,-5.400418 7.786106,-6.88719 10.016728,-8.164931 0.08484,0.397241 -3.778776,2.309646 -9.580995,8.731102 -2.730986,4.101198 -8.932058,8.487322 -14.914751,9.013371 -5.982693,0.526049 -8.678645,-3.718792 -8.994337,-4.642903 -0.315691,-0.924112 -0.853079,-2.087635 -0.353804,-4.302279 0.358923,-1.592087 1.675752,-3.436156 4.844757,-3.321978 5.004288,0.564584 5.325553,7.403883 1.896496,6.631436 -2.693176,-0.460315 -2.20336,-2.970455 -2.549519,-4.02581 -3.095717,3.911896 -0.604693,8.494542 5.041317,7.407455 4.38601,-0.844485 4.770089,-4.346393 4.958303,-6.190728 0.188214,-1.844335 -0.283613,-5.978661 -5.266828,-9.211927 -0.61652,0.732554 -5.491125,3.201812 -9.836752,0.103873 -3.961151,0.109322 -7.38094,5.343458 -7.757721,8.482884 -0.376781,3.139426 -0.03216,7.796866 3.176532,11.863716 2.175365,2.757166 7.869325,7.015196 15.296505,6.768087 7.578235,-0.252134 14.933585,-4.643585 19.624007,-8.956131 3.032291,-2.788 7.543569,-8.814409 7.35982,-9.549404 -0.189403,-0.757614 -3.176857,-6.161478 1.541821,-8.515035 0.48434,0.03006 1.292599,-0.418188 1.741175,-0.702606 -1.74434,-0.99427 -1.718825,-4.058965 -1.641498,-4.735091 0.137089,-1.198671 1.522889,-3.475572 2.785579,-4.233186 1.262691,-0.757614 2.425171,-0.685932 5.036758,-2.289477 -1.773522,1.864174 -3.981728,1.597323 -4.955132,2.547046 -1.889005,1.843049 -3.298314,4.745922 -2.103245,6.923134 1.117019,2.035019 2.647145,2.267318 4.185915,2.355784 1.70912,0.09826 3.21997,-1.241134 3.484931,-2.084369 0.257505,-0.819507 0.316394,-2.254588 -0.723419,-2.861789 -0.698192,-0.407711 -1.465555,-0.447357 -1.465555,-0.447357 0,0 -1.582264,0.09255 -1.571932,0.661708 2.125336,0.474462 1.653986,1.706531 1.228249,2.00619 -0.973479,0.685195 -2.317514,-0.297613 -2.492884,-1.157157 -0.191908,-0.940598 0.124807,-1.993123 1.483662,-2.841054 2.814206,-1.037678 4.187854,-1.318753 6.092482,-2.335977 0.631345,-0.126269 3.045439,-1.621231 1.797091,-2.958735 -0.931854,-0.998406 -1.616714,-1.20297 -2.400026,-1.476466 -0.783313,-0.273497 6.140153,-2.297468 6.98268,-1.666772 z M 71.973369,36.486659 c 1.60971,0.225283 2.904189,2.146574 2.904189,5.555839 0,3.409264 2.272842,7.828682 2.272842,7.828682 l 8.38026,0.925354 c 2.761358,-1.067474 2.65138,0.745899 6.410978,0.1857 1.240214,-0.184798 -0.870332,3.330977 -5.782805,1.267323 0,0 -10.719392,0.851051 -11.439111,0.399543 -1.258134,-0.878461 -3.349886,-6.025876 -3.377698,-6.187185 0,0 -1.641499,-4.16688 -1.894036,-6.060915 -0.118003,-0.885025 0.91567,-4.139624 2.525381,-3.914341 z M 33.208765,81.438447 c 2.842358,1.201537 10.546865,1.401651 15.34509,-0.113578 4.798225,-1.515229 5.061914,-7.455132 6.703412,-11.495742 1.641498,-4.04061 5.099348,-9.225076 7.372191,-11.750458 2.272843,-2.525382 7.260471,-5.618972 7.38674,-8.396892 0.126269,-2.777919 0.551445,-3.226069 0.473509,-5.019197 0.805948,2.563156 3.041215,7.273953 4.103746,8.20749 0.960565,0.171068 1.746807,0.09039 2.714784,0.126277 -0.286832,0.47091 -2.178141,3.693371 -1.925603,5.713676 0.252538,2.020305 -1.436799,8.254236 -3.282996,11.111678 -1.846197,2.857442 -6.822247,8.481691 -9.221359,9.99692 -1.732241,2.1821 -7.812812,6.585579 -11.411262,7.154008 -3.104425,1.776742 -19.930387,0.26523 -21.950693,-2.260152 -1.40165,-0.811775 -0.69155,-2.51808 0.156907,-3.306518 0.848458,-0.788439 2.14527,-1.421579 3.535534,0.03249 z m 0.126269,-0.252538 c 0,0 1.679375,-5.381925 1.515229,-9.975257 -0.14639,-4.096456 -5.106905,-5.099818 -7.323606,-11.364215 -0.575202,2.448169 -0.156901,3.373672 -0.883884,3.4724 -0.726983,0.09873 -0.326374,3.203966 -1.925169,3.413969 -1.374911,0.180596 0.106305,3.964495 -0.663346,4.793519 -0.769651,0.829024 -0.44429,2.509606 0.69448,4.861359 -1.104267,-0.70632 -3.005123,-0.776423 -4.966318,-1.051421 -1.80783,-0.253493 -3.331437,1.000932 -5.268513,0.335026 -1.791537,0.01771 -2.346018,2.305833 -4.043308,2.106601 -1.6581049,-0.194633 -1.9488759,2.038669 -5.1549262,3.02921 4.8779222,0.726604 8.2214092,2.173973 12.1094592,3.409266 5.308757,1.686673 11.868426,0.620435 11.743023,0.757615 0,0 -1.831137,-1.287921 0.126269,-3.661803 1.957406,-2.373882 4.04061,-0.126269 4.04061,-0.126269 z" style="" fill="#000000" fill-opacity="1" stroke="none"/></g><text x="0" y="115" fill="#000000" font-size="5px" font-weight="bold" font-family="'Helvetica Neue', Helvetica, Arial-Unicode, Arial, Sans-serif">Created by Amelia Edwards</text><text x="0" y="120" fill="#000000" font-size="5px" font-weight="bold" font-family="'Helvetica Neue', Helvetica, Arial-Unicode, Arial, Sans-serif">from the Noun Project</text></svg>