<svg xmlns="http://www.w3.org/2000/svg" xmlns:xlink="http://www.w3.org/1999/xlink" version="1.1" x="0px" y="0px" viewBox="0 0 100 125" enable-background="new 0 0 100 100" xml:space="preserve"><g><path d="M48.912,35.585c3.264,0.728,6.567,1.951,10.578,3.915c4.009,1.966,7.136,4.058,10.852,7.265   c3.504,3.025,7.267,7.677,8.92,11.031c1.69,3.428,2.408,6.277,2.312,9.168c-0.049,1.469-0.134,1.979-0.521,3.076   c-1.162,3.307-3.952,5.937-6.579,6.204c-2.984,0.303-5.924-1.297-6.589-3.586c-0.758-2.602,0.766-5.388,2.947-5.388   c0.843,0,1.872,0.554,2.162,1.163c0.206,0.43,0.214,0.597,0.061,1.118c-0.219,0.74-0.63,0.901-1.61,0.627   c-1.302-0.363-2.082,0.125-2.082,1.301c0,1.125,0.827,1.604,2.754,1.598c1.256-0.004,2.054-0.349,2.784-1.2   c0.665-0.775,0.976-1.776,0.935-3c-0.035-1.056-0.206-1.596-0.762-2.403c-0.858-1.247-2.941-2.072-4.794-1.9   c-4.366,0.405-6.739,5.802-4.498,10.226c0.849,1.676,3.06,3.413,4.743,3.729c0.292,0.055,0.521,0.145,0.521,0.205   c0,0.163-1.59,2.678-2.167,3.428C65.756,86.22,62.849,88,59.03,88.194c-2.771,0.142-5.052-0.628-6.673-2.25   c-1.384-1.384-2.003-2.878-1.997-4.822c0.004-1.607,0.457-2.686,1.613-3.842c1.352-1.352,2.541-1.704,4.133-1.223   c2.25,0.68,3.186,2.945,1.775,4.295c-0.842,0.805-1.962,0.402-2.24-0.807c-0.239-1.041-1.085-1.495-2.045-1.098   c-0.583,0.241-0.765,0.577-0.762,1.403c0.006,1.989,1.742,3.416,4.129,3.398c2.407-0.018,4.022-1.76,4.018-4.331   c-0.005-2.388-1.216-4.114-3.574-5.091c-0.669-0.278-1.132-0.345-2.433-0.351c-1.546-0.007-1.651,0.014-2.755,0.546   c-1.377,0.665-2.222,1.372-2.956,2.476c-1.522,2.291-1.818,5.22-0.807,8.006l0.35,0.963l-1.163,0.831   c-2.602,1.859-5.5,3.205-7.975,3.705c-4.332,0.876-9.09-1.215-10.88-4.78c-0.493-0.981-0.523-1.132-0.523-2.648   c0-1.332,0.062-1.756,0.355-2.48c0.685-1.683,2.459-3.163,4.1-3.418c0.765-0.119,2.363,0.262,3,0.715   c0.533,0.38,1.346,1.938,1.346,2.581c0,1.562-1.468,2.645-2.495,1.839c-0.365-0.286-0.413-0.423-0.413-1.173   c0-0.734-0.061-0.909-0.444-1.293c-0.482-0.482-1.087-0.574-1.761-0.266c-0.506,0.232-0.756,0.894-0.771,2.042   c-0.016,1.317,0.569,2.264,1.782,2.885c2.25,1.155,4.948,0.439,5.977-1.584c0.89-1.749,0.705-3.963-0.494-5.954   c-0.688-1.142-1.392-3.015-1.784-4.76c-0.352-1.561-0.354-4.627-0.005-6.046c0.565-2.295,2.544-5.475,4.281-6.877l0.582-0.47   l1.454,0.741c2.664,1.357,4.741,3.152,5.767,4.983l0.463,0.826l1.315-0.095c2.878-0.208,6.635-1.524,8.802-3.082   c1.347-0.968,2.287-1.97,2.175-2.318c-0.052-0.161-0.159-1.041-0.241-1.974c-0.335-3.857,0.508-7.426,2.33-9.857l0.619-0.826   l-0.674,0.101c-1.072,0.16-3.574,0.128-4.255-0.054c-0.582-0.156-1.087-0.625-1.087-1.011c0-0.09,0.176-0.428,0.382-0.735   c0.207-0.306,0.383-0.59,0.383-0.62c0-0.03-0.352,0.043-0.795,0.165c-1.194,0.327-3.326,0.426-3.796,0.177   c-0.652-0.346-0.79-0.824-0.474-1.65l0.275-0.72l-1.394,0.497c-3.596,1.283-5.601,1.012-5.601-0.757   c0-0.383,0.064-0.859,0.146-1.072c0.124-0.327,0.008-0.272-0.804,0.379c-1.102,0.886-2.022,1.366-2.618,1.366   c-1.249,0-2.121-2.647-1.548-4.699c0.529-1.89,1.824-2.801,3.982-2.801C47,35.282,48.163,35.418,48.912,35.585 M76.311,35.558   c-0.051,0.227-0.57,1.576-1.155,3c-1.038,2.525-1.752,3.926-2.526,4.959l-0.391,0.52l-1.791-1.775l0.798-0.842   c0.994-1.049,1.897-2.235,3.164-4.148c1.073-1.622,1.673-2.329,1.871-2.204C76.348,35.11,76.362,35.327,76.311,35.558z    M71.045,30.322c0,0.596-0.935,5.388-1.326,6.796c-0.328,1.178-1.115,3.214-1.245,3.214c-0.094,0-1.361-0.985-1.76-1.368   c-0.076-0.073,0.308-1.012,0.857-2.1c0.548-1.082,1.349-2.854,1.782-3.941C70.611,29.771,71.045,29.104,71.045,30.322z    M66.121,25.348c0.089,1.385-0.291,6.841-0.6,8.633c-0.162,0.933-0.411,2.075-0.559,2.563l-0.268,0.879l-1.209-0.834   c-0.658-0.454-1.241-0.869-1.277-0.91c-0.039-0.042,0.203-0.781,0.54-1.653c0.812-2.1,1.151-3.183,1.715-5.479   c0.431-1.76,1.007-3.728,1.177-4.026C65.832,24.185,66.073,24.598,66.121,25.348z M61.612,20.986   c0.224,0.585-0.158,8.234-0.521,10.469c-0.228,1.393-0.616,3.062-0.714,3.062c-0.169,0-2.65-1.405-2.649-1.5   c0-0.059,0.284-0.903,0.625-1.867c0.609-1.715,1.233-3.995,2.052-7.5C60.999,21.108,61.357,20.318,61.612,20.986z M56.636,20.817   c0.06,3.857-0.146,7.786-0.515,9.857c-0.125,0.704-0.263,1.321-0.304,1.363c-0.074,0.075-2.481-0.98-2.726-1.194   c-0.067-0.059,0.125-0.965,0.426-2.005c0.538-1.861,1.061-4.332,1.838-8.678c0.445-2.495,0.75-3.4,1.042-3.108   C56.528,17.183,56.597,18.261,56.636,20.817z M44.719,5.222C39.315,5.863,34.36,7.347,29.413,9.808   C21.3,13.842,15.184,19.61,12.154,26.083c-1.568,3.351-2.31,6.413-2.431,10.04c-0.127,3.797,0.457,6.631,2.016,9.796   c1.417,2.878,2.715,4.32,5.168,5.747c2.602,1.514,4.611,2.074,6.887,1.921c2.955-0.197,6.382-1.507,8.327-3.181   c1.959-1.686,3.683-4.655,4.096-7.058c0.46-2.678,0.208-4.535-0.918-6.78c-1.43-2.848-3.359-4.3-5.917-4.454   c-1.102-0.066-1.428-0.024-2.464,0.322c-2.25,0.753-3.457,1.827-4.213,3.75c-0.928,2.356-0.773,3.986,0.5,5.265   c0.975,0.979,1.907,1.38,3.223,1.385c1.24,0.005,2.291-0.385,3.076-1.143l0.49-0.472l-0.117,0.521   c-0.502,2.221-2.944,3.77-5.255,3.334c-2.289-0.432-4.458-2.569-5.004-4.926c-0.531-2.296,0.633-5.931,2.539-7.929   c4.591-4.81,13.286-6.279,23.097-3.902c1.179,0.286,2.256,0.561,2.396,0.612c0.21,0.076,0.293-0.092,0.498-0.995   c0.637-2.815,0.95-5.357,1.464-11.878c0.183-2.327,0.307-2.994,0.571-3.084c0.32-0.108,0.481,1.155,0.976,7.645   c0.181,2.373,0.121,8.414-0.091,9.092l-0.104,0.336l-1.316-0.443c-0.72-0.243-1.424-0.444-1.554-0.444   c-0.151,0-0.551,0.628-1.109,1.745l-0.873,1.745l-0.964,0.063c-1.117,0.073-2.382,0.6-3.229,1.344   c-1.462,1.284-2.506,3.674-2.366,5.42c0.083,1.025,0.551,2.249,1.07,2.801l0.331,0.352l-1.332,1.951   c-0.731,1.072-1.331,2.014-1.331,2.09c0,0.077,0.424,0.658,0.949,1.301c0.524,0.643,1.011,1.245,1.087,1.347   c0.093,0.124-0.69,1.309-2.412,3.651c-1.406,1.913-2.528,3.483-2.502,3.504c0.025,0.021,0.458,0.128,0.964,0.237   c0.504,0.109,1.252,0.295,1.661,0.414l0.742,0.214l-0.847,0.888c-3.813,3.999-5.02,9.934-3.217,15.827   c0.078,0.252,0.008,0.267-0.803,0.178c-2.051-0.225-4.23,0.578-5.786,2.133c-1.587,1.589-2.388,3.643-2.388,6.138   c0,2.663,0.837,4.609,2.833,6.585c1.583,1.569,2.893,2.298,5.893,3.283c6.076,1.994,9.863,2.635,15.535,2.631   c7.347-0.007,13.678-1.489,20.143-4.717c13.582-6.781,22.741-19.844,24.562-35.027c0.31-2.587,0.313-7.936,0.006-10.484   c-1.755-14.586-10.177-27.154-22.96-34.265c-5.156-2.869-11.311-4.772-17.357-5.369C52.204,4.921,46.853,4.968,44.719,5.222z"/><path d="M5.374,45.261c-0.004,0.194-0.075,1.041-0.157,1.883c-0.238,2.418-0.192,7.289,0.086,9.168   c0.429,2.893,1.224,4.887,2.482,6.229c1.821,1.944,4.645,2.143,6.083,0.428c1.019-1.214,1.342-2.51,0.953-3.826   c-0.372-1.259-1.188-2.198-2.933-3.371c-1.755-1.181-2.364-1.803-3.604-3.686c-0.937-1.424-1.617-3.107-2.261-5.602   C5.635,44.985,5.389,44.52,5.374,45.261"/><path d="M9.268,67.807c1.872,3.245,4.297,5.983,6.232,7.039c1.132,0.617,2.594,0.713,3.582,0.233   c0.923-0.448,1.378-1.349,1.248-2.466c-0.209-1.775-0.957-2.28-3.375-2.28c-1.668,0-3.002-0.2-3.536-0.53   c-0.172-0.106-0.521-0.262-0.796-0.356c-0.411-0.141-1.607-0.892-3.459-2.171C8.859,67.065,8.87,67.118,9.268,67.807"/></g><text x="0" y="115" fill="#000000" font-size="5px" font-weight="bold" font-family="'Helvetica Neue', Helvetica, Arial-Unicode, Arial, Sans-serif">Created by Kate Kobielsky</text><text x="0" y="120" fill="#000000" font-size="5px" font-weight="bold" font-family="'Helvetica Neue', Helvetica, Arial-Unicode, Arial, Sans-serif">from the Noun Project</text></svg>