<?xml version="1.0" encoding="utf-8"?>
<!-- Generator: Adobe Illustrator 16.0.3, SVG Export Plug-In . SVG Version: 6.00 Build 0)  -->
<!DOCTYPE svg PUBLIC "-//W3C//DTD SVG 1.1//EN" "http://www.w3.org/Graphics/SVG/1.1/DTD/svg11.dtd">
<svg version="1.1" id="Layer_1" xmlns="http://www.w3.org/2000/svg" xmlns:xlink="http://www.w3.org/1999/xlink" x="0px" y="0px"
	 width="960px" height="560px" viewBox="0 0 960 560" enable-background="new 0 0 960 560" xml:space="preserve">
<g>
	<path fill="#FFFFFF" d="M432.149,132.976c0.354,0.847,1.178,1.366,2.047,1.366c0.282,0,0.569-0.054,0.852-0.17
		c1.129-0.466,1.666-1.765,1.196-2.894l-30.496-73.629c-0.466-1.129-1.76-1.68-2.894-1.2c-1.129,0.466-1.667,1.77-1.201,2.898
		L432.149,132.976z"/>
	<path fill="#FFFFFF" d="M591.906,196.358c0.354,0.847,1.178,1.366,2.047,1.366c0.282,0,0.569-0.049,0.847-0.166l70.265-29.102
		c1.129-0.466,1.666-1.77,1.2-2.898c-0.47-1.125-1.765-1.676-2.898-1.196l-70.26,29.102
		C591.969,193.93,591.436,195.225,591.906,196.358z"/>
	<path fill="#FFFFFF" d="M362.956,291.191c-0.466-1.129-1.761-1.676-2.898-1.196l-65.122,26.974
		c-1.129,0.466-1.667,1.766-1.196,2.895c0.354,0.851,1.178,1.371,2.047,1.371c0.282,0,0.569-0.055,0.851-0.171l65.117-26.974
		C362.888,293.623,363.421,292.329,362.956,291.191z"/>
	<path fill="#FFFFFF" d="M524.935,134.221c0.277,0.117,0.564,0.17,0.847,0.17c0.869,0,1.697-0.515,2.047-1.367l30.518-73.678
		c0.467-1.134-0.066-2.433-1.195-2.898c-1.143-0.479-2.438,0.071-2.898,1.2l-30.519,73.678
		C523.268,132.456,523.801,133.75,524.935,134.221z"/>
	<path fill="#FFFFFF" d="M294.936,168.457l70.144,29.053c0.278,0.117,0.564,0.17,0.851,0.17c0.869,0,1.693-0.515,2.047-1.371
		c0.466-1.133-0.067-2.428-1.196-2.894l-70.143-29.053c-1.133-0.484-2.428,0.072-2.898,1.196
		C293.273,166.688,293.807,167.986,294.936,168.457z"/>
	<path fill="#FFFFFF" d="M665.064,316.969l-65.238-27.023c-1.133-0.479-2.428,0.072-2.898,1.201
		c-0.466,1.133,0.072,2.428,1.201,2.895l65.237,27.022c0.278,0.116,0.569,0.171,0.852,0.171c0.864,0,1.693-0.516,2.047-1.371
		C666.73,318.734,666.193,317.435,665.064,316.969z"/>
	<path fill="#FFFFFF" d="M480,125.767c1.223,0,2.218-0.995,2.218-2.218V43.331c0-1.223-0.99-2.218-2.218-2.218
		s-2.218,0.995-2.218,2.218v80.219C477.782,124.777,478.777,125.767,480,125.767z"/>
	<path fill="#FFFFFF" d="M679.383,240.482H606c-1.223,0-2.218,0.995-2.218,2.218c0,1.223,0.995,2.217,2.218,2.217h73.383
		c1.223,0,2.217-0.995,2.217-2.217C681.6,241.477,680.605,240.482,679.383,240.482z"/>
	<path fill="#FFFFFF" d="M356.079,242.7c0-1.223-0.99-2.218-2.217-2.218h-73.244c-1.223,0-2.218,0.99-2.218,2.218
		s0.995,2.217,2.218,2.217h73.248C355.089,244.917,356.079,243.922,356.079,242.7z"/>
	<path fill="#FFFFFF" d="M564.049,158.664c0.436,0.435,1.004,0.654,1.573,0.654c0.564,0,1.133-0.22,1.567-0.654l55.373-55.373
		c0.864-0.865,0.864-2.271,0-3.136s-2.267-0.865-3.132,0l-55.382,55.377C563.18,156.397,563.18,157.799,564.049,158.664z"/>
	<path fill="#FFFFFF" d="M392.756,158.587c0.435,0.435,1.003,0.654,1.568,0.654c0.565,0,1.134-0.22,1.568-0.654
		c0.864-0.865,0.864-2.267,0-3.131l-55.306-55.306c-0.865-0.865-2.267-0.865-3.136,0s-0.864,2.271,0,3.136L392.756,158.587z"/>
	<path fill="#FFFFFF" d="M411.309,143.893c0.425,0.641,1.129,0.986,1.846,0.986c0.421,0,0.851-0.117,1.228-0.372
		c1.021-0.681,1.29-2.056,0.608-3.078l-19.931-29.828c-0.672-1.017-2.052-1.299-3.073-0.614c-1.021,0.681-1.294,2.057-0.609,3.078
		L411.309,143.893z"/>
	<path fill="#FFFFFF" d="M611.721,154.69c-0.672-1.008-2.052-1.299-3.077-0.609l-28.336,18.937
		c-1.026,0.677-1.295,2.056-0.614,3.078c0.426,0.641,1.129,0.986,1.846,0.986c0.421,0,0.847-0.117,1.228-0.376l28.336-18.937
		C612.129,157.082,612.402,155.711,611.721,154.69z"/>
	<path fill="#FFFFFF" d="M351.361,331.323L373,316.861c1.021-0.677,1.291-2.052,0.609-3.073c-0.672-1.013-2.052-1.299-3.078-0.613
		l-21.639,14.461c-1.021,0.681-1.29,2.057-0.609,3.078c0.425,0.641,1.129,0.985,1.846,0.985
		C350.555,331.699,350.985,331.583,351.361,331.323z"/>
	<path fill="#FFFFFF" d="M502.83,127.913c0.147,0.031,0.291,0.045,0.439,0.045c1.034,0,1.962-0.726,2.168-1.779l7.204-36.243
		c0.241-1.205-0.538-2.37-1.743-2.607c-1.178-0.255-2.37,0.533-2.607,1.743l-7.203,36.243
		C500.85,126.506,501.63,127.676,502.83,127.913z"/>
	<path fill="#FFFFFF" d="M357.611,220.573c1.035,0,1.962-0.73,2.168-1.783c0.242-1.201-0.538-2.365-1.738-2.603l-30.805-6.129
		c-1.183-0.25-2.37,0.538-2.607,1.743c-0.242,1.201,0.538,2.37,1.738,2.607l30.805,6.124
		C357.32,220.56,357.463,220.573,357.611,220.573z"/>
	<path fill="#FFFFFF" d="M604.518,269.732l28.25,5.618c0.148,0.032,0.292,0.045,0.439,0.045c1.035,0,1.962-0.73,2.168-1.783
		c0.242-1.2-0.537-2.37-1.742-2.607l-28.251-5.618c-1.191-0.251-2.365,0.538-2.607,1.743
		C602.537,268.325,603.313,269.494,604.518,269.732z"/>
	<path fill="#FFFFFF" d="M456.735,127.931c0.144,0,0.291-0.013,0.439-0.044c1.2-0.238,1.979-1.402,1.738-2.607l-7.2-36.212
		c-0.237-1.209-1.429-1.994-2.607-1.743c-1.2,0.237-1.979,1.402-1.738,2.607l7.2,36.212
		C454.773,127.201,455.696,127.931,456.735,127.931z"/>
	<path fill="#FFFFFF" d="M635.375,211.796c-0.237-1.205-1.424-1.989-2.607-1.743l-30.934,6.156c-1.205,0.237-1.98,1.402-1.743,2.607
		c0.211,1.053,1.134,1.779,2.168,1.779c0.144,0,0.292-0.009,0.439-0.045l30.935-6.151
		C634.838,214.171,635.613,212.997,635.375,211.796z"/>
	<path fill="#FFFFFF" d="M354.484,265.409L326.372,271c-1.201,0.238-1.98,1.407-1.738,2.607c0.206,1.053,1.133,1.783,2.168,1.783
		c0.144,0,0.292-0.014,0.435-0.045l28.112-5.591c1.201-0.238,1.98-1.402,1.743-2.607
		C356.854,265.946,355.671,265.153,354.484,265.409z"/>
	<path fill="#FFFFFF" d="M545.574,144.569c0.376,0.26,0.806,0.376,1.223,0.376c0.717,0,1.42-0.345,1.851-0.985l19.976-29.895
		c0.682-1.021,0.412-2.393-0.609-3.078c-1.025-0.689-2.4-0.407-3.077,0.614l-19.981,29.891
		C544.279,142.513,544.553,143.889,545.574,144.569z"/>
	<path fill="#FFFFFF" d="M348.288,154.69c-0.681,1.021-0.408,2.392,0.609,3.078l28.237,18.87c0.376,0.255,0.806,0.372,1.228,0.372
		c0.717,0,1.42-0.345,1.846-0.986c0.681-1.021,0.408-2.392-0.609-3.073l-28.237-18.87C350.34,153.382,348.96,153.682,348.288,154.69
		z"/>
	<path fill="#FFFFFF" d="M589.361,313.125c-1.026-0.699-2.401-0.407-3.078,0.609c-0.681,1.021-0.412,2.393,0.609,3.078
		l21.751,14.533c0.376,0.255,0.806,0.371,1.228,0.371c0.712,0,1.415-0.345,1.846-0.985c0.676-1.021,0.407-2.393-0.614-3.078
		L589.361,313.125z"/>
	<path fill="#FFFFFF" d="M593.295,366.057c-8.355,0-15.156,6.801-15.156,15.146c0,4.386,2.254,8.243,5.663,10.497
		c0.071,3.897,3.248,7.047,7.163,7.047c3.956,0,7.178-3.222,7.178-7.182c0-3.956-3.222-7.177-7.178-7.177
		c-2.325,0-4.368,1.124-5.685,2.84c-1.649-1.491-2.706-3.629-2.706-6.029c0-5.905,4.812-10.712,10.725-10.712
		c7.697,0,13.96,6.263,13.96,13.973c0,9.919-8.082,17.992-18.01,17.992c-12.714,0-23.059-10.349-23.059-23.063v-9.112h5.13
		c4.328,0,7.845-3.521,7.845-7.849c0-4.332-3.517-7.854-7.845-7.854h-0.959c3.473-3.127,5.699-7.607,5.699-12.634
		c0-7.737-5.197-14.206-12.253-16.298c3.709-4.091,7.096-8.4,10.143-12.912c12.495-18.502,19.237-40.279,19.237-63.024
		c0-62.316-50.7-113.021-113.026-113.021c-62.325,0-113.03,50.705-113.03,113.021c0,22.696,6.72,44.433,19.166,62.917
		c3.033,4.512,6.411,8.821,10.116,12.907c-7.24,1.976-12.606,8.543-12.606,16.41c0,5.026,2.227,9.507,5.698,12.634h-0.493
		c-4.328,0-7.845,3.521-7.845,7.854c0,4.327,3.517,7.849,7.845,7.849h5.125v9.112c0,12.719-10.349,23.063-23.063,23.063
		c-9.937,0-18.014-8.073-18.014-17.992c0-7.71,6.268-13.973,13.973-13.973c5.909,0,10.721,4.802,10.721,10.711
		c0,2.335-0.99,4.418-2.563,5.905c-1.317-1.645-3.311-2.715-5.578-2.715c-3.956,0-7.182,3.221-7.182,7.177
		c0,3.96,3.221,7.182,7.182,7.182c3.951,0,7.172-3.222,7.172-7.182c0-0.014-0.004-0.031-0.004-0.05
		c3.261-2.275,5.407-6.043,5.407-10.317c0-8.346-6.8-15.146-15.156-15.146c-10.151,0-18.408,8.261-18.408,18.408
		c0,12.365,10.071,22.423,22.449,22.423c14.206,0,25.935-10.828,27.351-24.663h163.475c1.421,13.835,13.145,24.663,27.347,24.663
		c12.378,0,22.44-10.058,22.44-22.423C611.689,374.317,603.438,366.057,593.295,366.057z M588.219,391.565
		c0-1.004,0.573-1.851,1.385-2.329c0.407-0.242,0.851-0.417,1.361-0.417c1.51,0,2.737,1.231,2.737,2.741
		c0,1.515-1.228,2.747-2.737,2.747c-0.672,0-1.272-0.278-1.751-0.677C588.617,393.134,588.219,392.407,588.219,391.565z
		 M369.617,394.316c-1.51,0-2.746-1.232-2.746-2.746c0-1.51,1.232-2.742,2.746-2.742c0.488,0,0.932,0.166,1.326,0.395
		c0.829,0.47,1.411,1.33,1.411,2.348c0,0.819-0.376,1.532-0.945,2.038C370.921,394.034,370.312,394.316,369.617,394.316z
		 M401.833,324.862c-4.642-4.834-8.781-10.025-12.405-15.514c-11.612-17.584-17.862-38.165-17.862-59.638
		c0-59.871,48.715-108.582,108.591-108.582c59.87,0,108.586,48.711,108.586,108.582c0,21.544-6.29,42.188-17.965,59.799
		c-3.603,5.43-7.706,10.568-12.302,15.357H401.833V324.862z M388.236,341.94c0-6.877,5.528-12.468,12.369-12.615
		c0.094,0,0.184-0.027,0.277-0.027h6.64h7.563h130.144h7.571h6.183c0.215,0,0.417,0.054,0.627,0.063
		c6.676,0.336,12.02,5.824,12.02,12.585c0,6.966-5.676,12.633-12.642,12.633h-158.1C393.912,354.574,388.236,348.907,388.236,341.94
		z M389.011,365.846c-1.877,0-3.409-1.532-3.409-3.418c0-1.887,1.532-3.423,3.409-3.423h11.868h158.099h12.338
		c1.878,0,3.409,1.536,3.409,3.423c0,1.886-1.531,3.418-3.409,3.418h-7.347h-167.61H389.011z M398.571,370.276h163.185v7.513
		H398.571V370.276z"/>
	<path fill="#FFFFFF" d="M464.772,257.977c0.014,0.013,0.031,0.018,0.045,0.027c3.906,3.893,9.287,6.299,15.214,6.299
		c5.937,0,11.325-2.411,15.228-6.308c0.009-0.009,0.018-0.009,0.027-0.018c0.009-0.009,0.009-0.022,0.022-0.031
		c3.889-3.906,6.294-9.282,6.294-15.214c0-5.914-2.401-11.281-6.268-15.183c-0.022-0.022-0.026-0.054-0.049-0.072
		c-0.027-0.022-0.054-0.031-0.072-0.049c-3.901-3.871-9.265-6.272-15.187-6.272c-5.909,0-11.264,2.396-15.165,6.254
		c-0.027,0.031-0.063,0.036-0.095,0.067c-0.026,0.027-0.035,0.067-0.063,0.094c-3.857,3.898-6.254,9.247-6.254,15.156
		c0,5.922,2.401,11.294,6.281,15.196C464.755,257.936,464.759,257.958,464.772,257.977z M478.907,238.466
		c0.412-0.125,0.828-0.264,1.285-0.264c0.363,0,0.682,0.125,1.021,0.206c0.363,0.094,0.708,0.179,1.035,0.354
		c0.762,0.398,1.371,1.003,1.796,1.751c0.175,0.292,0.305,0.591,0.408,0.923c0.125,0.421,0.26,0.838,0.26,1.291
		c0,0.461-0.13,0.869-0.26,1.286c-0.099,0.332-0.233,0.636-0.403,0.932c-0.43,0.749-1.039,1.357-1.801,1.756
		c-0.318,0.17-0.663,0.269-1.026,0.354c-0.345,0.081-0.663,0.206-1.03,0.206c-0.461,0-0.882-0.13-1.304-0.264
		c-0.39-0.121-0.734-0.296-1.075-0.506c-0.618-0.395-1.12-0.91-1.487-1.546c-0.215-0.376-0.354-0.771-0.457-1.201
		c-0.08-0.336-0.206-0.654-0.206-1.021c0-0.367,0.126-0.681,0.211-1.026c0.099-0.43,0.242-0.824,0.457-1.191
		c0.367-0.632,0.869-1.143,1.487-1.537C478.158,238.762,478.508,238.587,478.907,238.466z M475.533,250.356
		c0.699,0.43,1.47,0.752,2.28,0.981v8.311c-3.064-0.403-5.851-1.586-8.185-3.392L475.533,250.356z M482.249,259.647v-8.212
		c0.852-0.206,1.648-0.538,2.388-0.968l5.797,5.792C488.096,258.062,485.309,259.244,482.249,259.647z M493.561,253.12l-5.747-5.748
		c0.457-0.744,0.802-1.559,1.025-2.424h8.113C496.545,248.004,495.366,250.791,493.561,253.12z M488.839,240.518
		c-0.224-0.869-0.568-1.689-1.025-2.433l5.747-5.752c1.797,2.334,2.984,5.125,3.388,8.185H488.839z M484.628,234.999
		c-0.739-0.43-1.527-0.766-2.379-0.968v-8.216c3.06,0.403,5.847,1.586,8.176,3.387L484.628,234.999z M477.813,225.814v8.319
		c-0.806,0.224-1.572,0.546-2.271,0.972l-5.909-5.905C471.968,227.405,474.754,226.218,477.813,225.814z M466.497,232.333
		l5.959,5.954c-0.399,0.69-0.708,1.434-0.914,2.227h-8.427C463.518,237.454,464.701,234.671,466.497,232.333z M471.542,244.948
		c0.197,0.793,0.511,1.528,0.909,2.222l-5.958,5.95c-1.797-2.334-2.979-5.121-3.378-8.172H471.542L471.542,244.948z"/>
	<path fill="#FFFFFF" d="M566.289,244.254c0.815-0.851,0.815-2.2,0-3.055c-22.718-23.892-53.348-37.05-86.258-37.05
		c-32.914,0-63.544,13.158-86.253,37.05c-0.815,0.851-0.815,2.2,0,3.055c22.705,23.901,53.339,37.055,86.253,37.055
		C512.941,281.313,543.571,268.155,566.289,244.254z M398.469,242.731c16.647-16.898,37.524-27.928,60.318-32.171
		c-10.434,6.913-17.342,18.744-17.342,32.171c0,13.431,6.908,25.271,17.347,32.18C435.993,270.673,415.121,259.638,398.469,242.731z
		 M480.031,208.589c18.829,0,34.151,15.317,34.151,34.142c0,18.83-15.322,34.151-34.151,34.151s-34.151-15.321-34.151-34.151
		C445.88,223.906,461.202,208.589,480.031,208.589z M501.271,274.906c10.438-6.908,17.342-18.749,17.342-32.18
		c0-13.427-6.904-25.258-17.338-32.171c22.794,4.238,43.667,15.268,60.318,32.171C544.946,259.638,524.069,270.673,501.271,274.906z
		"/>
	<path fill="#FFFFFF" d="M395.382,221.881c0.457,0,0.914-0.139,1.308-0.425c24.362-17.795,53.183-27.194,83.342-27.194
		c30.146,0,58.971,9.403,83.346,27.194c0.986,0.712,2.375,0.51,3.096-0.484c0.722-0.99,0.502-2.379-0.483-3.096
		c-25.133-18.35-54.862-28.045-85.958-28.045c-31.1,0-60.825,9.695-85.958,28.045c-0.986,0.721-1.205,2.11-0.484,3.096
		C394.024,221.567,394.701,221.881,395.382,221.881z"/>
</g>
</svg>
