<svg xmlns="http://www.w3.org/2000/svg" xmlns:xlink="http://www.w3.org/1999/xlink" version="1.1" x="0px" y="0px" viewBox="0 0 100 125" enable-background="new 0 0 100 100" xml:space="preserve"><path fill-rule="evenodd" clip-rule="evenodd" d="M80.176,50.278c-1.498-0.346-3.112-0.445-4.471-1.084  c-4.438-2.09-8.811-4.328-13.157-6.602c-4.698-2.458-9.394-4.896-14.591-6.161c-0.658-0.161-1.322-0.305-1.97-0.452  c0-0.092-0.014-0.133,0.001-0.158c1.763-2.943,0.707-2.511,4.033-1.755c6.837,1.555,12.786,5.022,18.611,8.777  c3.71,2.395,7.563,4.566,11.352,6.839c0.093,0.056,0.173,0.138,0.261,0.207C80.223,50.02,80.197,50.149,80.176,50.278z"/><path fill-rule="evenodd" clip-rule="evenodd" d="M43.328,39.275c0.49-0.707,0.863-1.384,1.382-1.92  c0.196-0.203,0.759-0.189,1.104-0.09c4.877,1.407,9.423,3.503,13.447,6.638c4.059,3.161,8.111,6.333,12.142,9.483  c-1.489-0.042-3.079-0.401-4.462-1.207c-3.191-1.861-6.37-3.762-9.424-5.838c-4.283-2.914-8.762-5.369-13.754-6.825  C43.658,39.486,43.566,39.409,43.328,39.275z"/><path fill-rule="evenodd" clip-rule="evenodd" d="M40.572,42.219c1.126-1.542,1.783-1.833,3.466-0.738  c2.865,1.866,5.605,3.919,8.388,5.912c2.353,1.686,4.686,3.397,7.029,5.101c0.113,0.082,0.21,0.187,0.454,0.405  c-3.118-0.413-5.663-1.644-8.087-3.305C48.121,47.06,44.321,44.666,40.572,42.219z"/><path fill-rule="evenodd" clip-rule="evenodd" d="M50.586,53.456c-2.283-0.593-4.521-1.208-6.432-2.887  c-1.996-1.755-4.286-3.173-6.447-4.74c-0.329-0.239-0.65-0.492-1.043-0.792c0.676-0.472,1.222-0.977,1.867-1.25  c0.309-0.13,0.854,0.093,1.203,0.303c2.332,1.406,4.408,3.092,6.229,5.15C47.34,50.797,49.039,52.064,50.586,53.456z"/><path d="M93.923,44.291c-3.391-0.178-6.684-0.969-9.78-2.241c-8.636-3.544-17.178-7.314-25.788-10.92  c-3.402-1.425-6.872-2.697-10.346-3.941c-1.683-0.604-3.372-0.167-4.565,1.072c-1.439,1.492-2.744,3.162-3.865,4.91  c-1.817,2.829-3.373,5.846-5.376,8.541l0.065-3.438l2.354-6.359l0.476,0.826l0.3,1.523l0.458-0.571l0.267-1.227l-0.175-1.525  l-0.649-2.076l0.972,1.49l0.378,0.986l0.363,1.25l0.375-1.174l-0.044-1.338l-0.444-2.54l-1.28-2.955l0.476,0.259l0.922,1.179  l1.32,2.329l0.097,0.022l0.155-0.076l0.04-0.091l-0.512-3.052l-1.348-2.288l-2.071-1.506l-0.011-0.017l0.562,0.033l1.548,0.71  l1.67,1.318l0.113-0.104l-1.263-1.969l-1.121-1.12l-1.838-0.888l-2.266-0.432l-1.247-0.151l0.664-0.236l1.44,0.028l1.597,0.264  l0.052-0.144l-1.362-0.806l-2.079-0.587L33.13,17.26l-1.939,0.112l-1.94,0.529l-0.584,0.206l-0.091,0.013l0.172-0.192l0.841-0.608  l1.354-0.524l-0.028-0.15h-1.391l-2.101,0.56l-2.04,1.317l-0.967,0.122l-2.51-2.032l-0.096-0.002l-0.133,0.104l-0.028,0.081  l0.575,2.195l-2.229,3.117l-0.201,1.327L16.61,27.75l-0.223,0.71l-0.004,0.028l0.005,0.062l0.3,0.655l0.01,0.875l0.019,0.05  l0.072,0.085l0.046,0.026l1.293,0.231l2.02-0.508l0.08-0.053l0.495-0.809l3.39-1.29l1.171,0.17l0.104-0.024l1.536-1.349  l-1.897,3.398l-4.76,2.409l-1.894,2.1l-2.404-3.855l-0.045-0.047l-1.979-1.066l-1.66-0.021l-4.737,1.473l-0.081,0.062l-1.247,2.661  l-0.731,1.168l-0.016,0.04l-0.008,0.095l0.008,0.041l0.637,1.253l0.047,0.039l0.122,0.036l0.062-0.007l3.017-1.586l0.07-0.097  l0.057-0.718L9.468,33.92l-0.229-0.417l2.832-1.354l1.048,0.102l1.552,1.217l-0.312-0.105l-1.301-0.054l-0.084,0.024l-1.124,0.892  l-1.855,3.814l-0.015,0.093l0.205,1.634l1.918,4.324l0.072,0.046l0.162-0.003l0.07-0.048l1.261-3.121l0.004-0.033l-0.004-0.076  l-0.339-0.626l-0.035-0.032l-0.093-0.044l-0.047-0.006l-0.334,0.061l-0.427-1.538l0.331-1.706l0.606-1.016l0.804,0.18l1.597,2.591  l1.472,4.021l0.046,0.064l1.842,1.246l0.81,0.278l0.83,2.654l2.688,4.799l4.067,3.213l2.919,1.94l1.257,1.703l0.449,2.46  l-0.361,2.118l2.54,8.625l0.257,2.196l-4.111,5.416l-2.653,2.299l-0.05,0.085l-0.057,0.985l0.01,0.042l0.05,0.084l0.032,0.03  l0.813,0.396l4.072,0.018l0.075-0.021l0.659-0.472l5.736-9.263l0.021-0.1l-1.161-4.154l0.021-2.242l1.386-1.489l3.643-1.768  l0.055-0.046l1.641-2.676l0.023-0.093l-0.094-2.321l1.411,1.323v2.027l-0.938,2.316l-0.008,0.056l0.088,1.604l1.145,2.006  l3.307,2.899l0.099,0.004l0.137-0.103l0.024-0.094l-1.416-3.139l-0.081-0.976l0.604,1.191l2.923,3.429l2.97,1.619l0.097-0.019  l0.111-0.131l0.001-0.098l-2.38-3.032l-1.28-2.321l-0.067-0.637l0.743,1.293l2.944,3.758l3.943,2.046l2.361,0.018l0.071-0.046  l0.067-0.146l-0.014-0.083l-3.596-4.092l-0.427-0.869l0.888,0.71l2.034,0.815l0.091-0.027l0.099-0.139l-0.003-0.096l-2.144-2.5  l-1.79-4.323l-1.043-2.703l-2.669-2.5l-2.772-1.01l-5.225-0.65l-2.858-4.007l-3.229-2.305l-1.667-1.104l-1.545-2.181l-0.829-2.099  c0.954-0.493,1.865-1.072,2.739-1.729c3.408-2.568,5.942-5.914,8.142-9.518c0.58-0.947,1.338-1.429,2.342-1.267  c2.096,0.339,4.23,0.624,6.237,1.277c7.924,2.584,15.39,6.256,22.848,9.916c3.547,1.739,7.215,2.891,11.197,2.812  c2.094-0.041,4.15-0.312,6.197-1.542C94.187,44.33,94.057,44.298,93.923,44.291z"/><text x="0" y="115" fill="#000000" font-size="5px" font-weight="bold" font-family="'Helvetica Neue', Helvetica, Arial-Unicode, Arial, Sans-serif">Created by m. turan ercan</text><text x="0" y="120" fill="#000000" font-size="5px" font-weight="bold" font-family="'Helvetica Neue', Helvetica, Arial-Unicode, Arial, Sans-serif">from the Noun Project</text></svg>