<svg xmlns="http://www.w3.org/2000/svg" xmlns:xlink="http://www.w3.org/1999/xlink" version="1.1" x="0px" y="0px" viewBox="0 0 100 125" style="enable-background:new 0 0 100 100;" xml:space="preserve"><g><path d="M61,43.4c-0.4,0.2-1.6,0.9-1.4,1.8c0.1,0.8,1,1.2,3,1.5c0.1,0,0.2,0,0.3,0c0.8,0,1.5-0.5,1.8-1.2c0.3-0.7,0.1-1.4-0.6-1.9   C63.2,42.9,62,42.9,61,43.4z M63.5,45c-0.1,0.3-0.4,0.4-0.7,0.4c-1.1-0.1-1.6-0.3-1.8-0.4c0.1-0.1,0.3-0.3,0.7-0.5c0,0,0,0,0,0   c0.5-0.3,1.2-0.3,1.6,0.1C63.6,44.8,63.5,44.9,63.5,45z"/><path d="M56,49.7c-0.6-0.5-1.5-0.5-2.2-0.1h0c-0.3,0.2-1.2,0.6-1,1.4c0.1,0.8,1.1,1,2.1,1.1c0.1,0,0.1,0,0.2,0   c0.6,0,1.1-0.4,1.4-0.9C56.6,50.7,56.5,50.1,56,49.7z M55,50.8c-0.3,0-0.5-0.1-0.6-0.1c0,0,0,0,0,0c0.3-0.1,0.6-0.1,0.8,0   c0,0,0,0,0,0C55.2,50.8,55.1,50.8,55,50.8z"/><path d="M66.1,57.5L66.1,57.5c-0.3,0.2-1.2,0.6-1,1.4c0.1,0.8,1.1,1,2.1,1.1c0.1,0,0.1,0,0.2,0c0.6,0,1.1-0.4,1.4-0.9   c0.2-0.5,0.1-1.1-0.4-1.5C67.6,57.1,66.8,57.1,66.1,57.5z M67.3,58.7c-0.3,0-0.5-0.1-0.6-0.1c0,0,0,0,0,0c0.3-0.1,0.6-0.1,0.8,0   c0,0,0,0,0,0C67.4,58.7,67.4,58.7,67.3,58.7z"/><path d="M87.2,79.4c5.6-2.7,10.5-6.5,10.6-6.5c0.2-0.2,0.3-0.5,0.2-0.8c-0.1-0.3-0.4-0.4-0.7-0.4l-6.1,1.2c2.1-2,5.1-4.7,5.8-5.1   c0.5-0.3,0.7-0.7,0.5-1.1c-0.2-0.5-0.4-0.8-5.1,0.7c1.4-1.6,3.8-3.6,4.9-4.5c0.2-0.2,0.3-0.5,0.2-0.8c-0.1-0.3-0.4-0.4-0.7-0.4   c-0.2,0-5.1,0.9-8.9,5l-0.5,0.5c-3.3,3.5-3.7,4-9.4,4.9c-3.2,0.6-5.5-0.2-6.9-0.9c1.2-0.1,2.8-0.3,4.9-1.1c6-2.3,9.4-4.4,10-6.4   c0.3-0.8,0-1.3-0.1-1.4c-0.1-0.2-0.3-0.3-0.4-0.3c-0.2,0-0.4,0-0.5,0.1c-4.9,3.6-8.2,2.7-10.9,2c-0.8-0.2-1.5-0.4-2.2-0.5   c-3-0.3-8.1,0.7-8.3,0.8c-1.8,0.3-3.7,0.4-5.6,0.4c1.8-0.4,3.5-0.9,4.9-1.5c3.6-1.5,9.6-1.2,9.6-1.2c0.3,0,0.6-0.2,0.7-0.5   c0.1-0.3-0.1-0.6-0.4-0.7c-0.2-0.1-4.1-1.7-10.3-0.3c-5.5,1.2-8,1.3-12,1.1c1.2-0.5,2.3-0.9,2.8-1.1c0.8-0.4,3.5-0.5,5-0.5   c0.3,0,0.6-0.2,0.7-0.6c0-0.3-0.2-0.6-0.5-0.7c-0.6-0.1-6.1-1.4-8.3-0.3c-0.9,0.5-2.7,0.8-4.5,1.1c0.5-0.2,0.8-0.4,1-0.5   c0.6-0.3,3.2-1.2,4.8-1.7c0.3-0.1,0.5-0.4,0.4-0.7c-0.1-0.3-0.4-0.5-0.7-0.5c-0.2,0-3,0.2-5.6,0.8c0.5-0.3,0.8-0.4,0.9-0.5   c0.3-0.2,0.4-0.5,0.2-0.8c-0.1-0.3-0.5-0.4-0.8-0.3c-2.4,0.8-5.1,0.2-5.9-0.3c-0.2-0.1-0.4-0.2-0.6-0.3c3.4-0.8,7.6-1.9,8.7-2.9   c0.6-0.5,0.5-1,0.4-1.2c-0.1-0.2-0.2-0.4-0.7-0.6c1-0.4,2.1-0.8,3.3-1.3c2.5-1,3-1.4,2.8-2.1c-0.1-0.4-0.2-0.7-2.2-0.3   c1.5-0.7,3.1-1.6,4.7-2.5c0.5-0.3,1.5-1.1,1.3-2c0-0.2-0.1-0.4-0.3-0.6c1.1-0.6,1.9-1.1,2.4-1.5c0.6-0.5,0.8-0.9,0.6-1.3   c-0.2-0.4-0.4-0.8-2.8-0.4c2.2-1,4.2-1.9,5-2.7c0.6-0.6,0.5-1.1,0.4-1.3c-0.2-0.4-0.5-0.9-4.6,0.1c1.1-1,1.9-1.6,2.5-1.9   c2.5-1.1,10-6.8,10.6-8.4c0.1-0.3,0-0.5,0-0.7c-0.1-0.2-0.3-0.4-0.6-0.5c-0.2,0-0.4-0.1-1.1,0.1c0.9-1.4,1.6-2.8,1.5-3.4   c-0.1-0.3-0.3-0.5-0.5-0.5c-0.5-0.1-0.8,0.3-1.2,0.7c-0.8,1-2.2,1.7-3.4,2.2c1.9-2.5,3-6,2.8-6.9c-0.1-0.4-0.3-0.6-0.6-0.6   c-0.6-0.1-0.9,0.4-1.1,0.7c-0.2,0.3-0.5,0.7-0.8,1.1c-1.9,2.3-4.5,4-7.5,5c-0.1,0-0.2,0.1-0.4,0.1c-6.7-0.7-12.4,1.2-14.9,5.1   c-1.3,2.1-6.1,6.5-9.8,9.7c-0.3-0.3-0.8-0.4-1.6-0.4c0.9-0.6,1.6-1.1,1.9-1.6c0.4-0.5,0.2-0.9,0.1-1.1c-0.4-0.6-1.3-0.4-3.3,0.1   c-0.2,0.1-0.5,0.1-0.7,0.2c0.4-0.3,0.8-0.6,1.2-0.8c3.4-2.3,4.4-3.1,4.4-3.9c0-0.3-0.1-0.5-0.4-0.7c-0.6-0.4-1.6-0.1-4,0.8   c1.5-0.9,2.5-1.7,2.9-2.4c0.3-0.6,0.1-0.9,0-1.1c-0.5-0.5-1.2-0.1-2.9,0.8c-1.3,0.7-3.1,1.7-4.4,1.9c1.8-1.6,8.1-5.2,10.5-5.9   c3.2-0.9,4.8-2.5,4.9-2.6c0.2-0.2,0.3-0.6,0.1-0.8c-0.2-0.3-0.5-0.3-0.8-0.2C40.3,19,37.6,20,36.7,20c-1,0-4.4,1.5-7.4,3.1   c0.6-0.5,1.1-0.9,1.5-1.1c1.8-0.8,6-4.9,6.2-5c0.2-0.2,0.3-0.6,0.1-0.8c-0.2-0.3-0.5-0.3-0.8-0.2c-1.7,1-3.9,2.1-4.3,2.1   c-0.8,0-4.9,3-7.2,4.8c0.5-1.6,1.5-3.8,2.5-4.7c2-1.8,3.2-4.6,3.3-4.8c0.1-0.3,0-0.6-0.2-0.8c-0.3-0.2-0.6-0.1-0.8,0.1   c-0.2,0.2-3.5,3.4-5.9,6c0.4-0.8,0.8-1.6,1.2-2c1.4-1.5,2.1-4,2.2-4.1c0.1-0.3,0-0.6-0.3-0.7c-0.2-0.2-0.5-0.1-0.8,0   c-0.4,0.3-4.3,3.4-5.2,4.6c-0.4,0.5-3.1,0.9-4.6,1.1c-1.8,0.2-2.8,0.4-3.2,0.7c-0.1,0.1-0.2,0.2-0.4,0.2c-0.9,0.6-2.7,1.7-1.9,5   c0.3,1.1,0.8,2.1,1.2,3c1,2,1.9,3.7,0.7,6.7c0,0,0,0,0,0.1l-2.6,9.5c-0.6,0.2-1.1,0.4-1.4,0.6c-1.8,1-4,3.6-4.1,3.7c0,0,0,0,0,0   c-0.6,0.4-2,1.6-2.3,3c-0.5,1.8,1.1,4.3,1.2,4.6c0.1,0.2,0.3,0.3,0.5,0.3c0,0,0.1,0,0.1,0c0.3,0,0.5-0.2,0.5-0.5l0.3-1.3   C4.9,53,5,52.7,5.2,52.5c1.6,0.4,5.5,1.5,7.3,2.1c1.3,0.4,2.3,1.3,2.8,2.6c0.8,2,1.4,4.4,1.3,5.3c-0.2,1.9,2.4,9.7,3.4,11.7   c1,1.9,2.5,3.3,4,3.8c0.2,0.1,0.4,0.2,0.5,0.2c0.1,0.9,0.2,2,0.1,2.2c-0.1,0.1-0.4,0.3-0.6,0.5c-0.7,0.5-1.7,1.4-1.5,2.6   c0.1,0.8,0.4,1.9,1.2,2.4c0.4,0.3,1,0.3,1.6,0.2c0.2-0.1,0.4-0.1,0.6-0.2c0.1,0.3,0.3,0.5,0.5,0.7c0.8,0.7,1.8,0.7,1.9,0.7   c0.2,0,0.4-0.1,0.5-0.3c0.1-0.2,0.1-0.4,0-0.6l-0.1-0.2c-0.2-0.5-0.3-0.7-0.2-1.2c0-0.1,0-0.2,0.1-0.3c0.2,0.2,0.4,0.4,0.6,0.5   c0.3,0.1,0.6,0.2,0.9,0c0.5-0.2,2-0.8,2-2.2c0-0.2-0.1-0.5-0.4-0.6c-0.2-0.1-0.5-0.1-0.7,0.1c0,0-0.2,0.1-0.3,0.1   c0-0.3-0.1-0.6-0.3-1c-0.1-0.4-0.3-0.7-0.6-1.1c-0.6-0.8-1-1.6-1.3-2.2c0.2,0,0.4,0,0.6,0c2.3,0.1,3.1,0,3.3-0.6   c0-0.1,0.2-0.5-0.2-0.9c0,0-0.1-0.1-0.1-0.1l-1.3-0.9c0-0.1,0-0.1,0-0.2c0-0.6-0.5-0.7-1-0.8c-0.2,0-0.5-0.1-0.8-0.2   c0.2-0.1,0.4-0.2,0.6-0.4c0.2-0.2,0.3-0.5,0.3-0.8c-0.1-0.5-0.6-0.7-1.2-0.9c0.1-0.1,0.2-0.1,0.3-0.2c0.2-0.2,0.2-0.4,0.2-0.6   c0-0.6-0.6-1.2-1.7-2.2l-0.1-0.1c-0.1-0.5-0.3-0.9-0.4-1.2l2.4-0.4c1.5,1,2.3,3,3.1,5c0.9,2.3,1.9,4.6,4.1,4.8c0,1,0,2.2-0.1,2.6   c-0.1,0.1-0.4,0.4-0.7,0.6c-0.8,0.6-2,1.5-1.7,2.9c0.4,2.6,1.5,3.2,2.4,3.2c0.6,0,1.1-0.3,1.4-0.6c0.2,0.4,0.3,0.8,0.6,1   c1,0.8,2.1,0.8,2.2,0.8c0.2,0,0.4-0.1,0.5-0.3c0.1-0.2,0.1-0.4,0-0.6l0-0.1c-0.1-0.2-0.2-0.4-0.4-0.7c-0.3-0.4-0.5-0.8-0.4-1.2   c0-0.1,0.1-0.3,0.2-0.5c0-0.1,0.1-0.2,0.1-0.2c0.3,0.4,0.6,0.8,1,1c0.3,0.2,0.7,0.2,1,0.1c1-0.4,2.3-1,2.3-2.5   c0-0.3-0.1-0.5-0.4-0.6c-0.2-0.1-0.5-0.1-0.7,0.1c-0.1,0.1-0.4,0.3-0.6,0.4c0-0.4,0-0.8-0.2-1.5c-0.1-0.4-0.4-0.8-0.7-1.2   c-0.8-1-1.3-2.1-1.6-2.7c0.6,0,1.4,0,2.1,0c2.3,0.1,3.1,0,3.3-0.6c0-0.1,0.2-0.5-0.2-0.9c0,0-0.1-0.1-0.1-0.1l-1.3-0.9   c0-0.1,0-0.1,0-0.2c0-0.6-0.5-0.7-1-0.8c-0.2,0-0.5-0.1-0.8-0.2c0.2-0.1,0.4-0.2,0.6-0.4c0.3-0.3,0.3-0.6,0.3-0.8   c-0.1-0.5-0.6-0.7-1.2-0.9c0.1-0.1,0.2-0.1,0.3-0.2c0.1-0.1,0.1-0.1,0.2-0.2c3.2,3,6.3,5.2,7.8,6.1c0.7,0.5,1.5,1,2.2,1.6   c8.1,6.1,14.6,6.1,14.8,6.1c0.3,0,0.6-0.3,0.6-0.6c0-0.3-0.2-0.6-0.5-0.7c-1.1-0.3-2.2-1-3.1-1.8c7.4,4.1,16,4.1,16.5,4.1   c0,0,0,0,0,0c2.8,0,10.6-3.4,11-3.5c0.3-0.1,0.4-0.4,0.4-0.7c-0.1-0.3-0.3-0.5-0.6-0.5c0,0-1.2,0-7.6,0.5c-3.1,0.3-6.6-0.6-9.3-1.5   C78.8,80.9,83.8,81,87.2,79.4z M59.4,22.3c3-1,5.7-2.7,7.7-5c-0.7,1.9-2.1,4.3-3.7,5.3c-0.3,0.2-0.4,0.5-0.2,0.8   c0.1,0.3,0.4,0.4,0.7,0.4c0.1,0,2.8-0.6,4.9-2c-0.6,1-1.4,2-2.1,2.6c-0.3,0.2-0.3,0.6-0.1,0.9c0.2,0.3,0.6,0.3,0.9,0.2   c0.8-0.6,1.5-0.9,2-1.2c-2,1.9-6.9,5.7-9.1,6.7c-1,0.5-2.5,1.7-4.6,3.9c-0.2,0.2-0.2,0.5-0.1,0.8c0.1,0.3,0.4,0.4,0.7,0.3   c2.5-0.7,4-1,4.9-1.2c-1.4,1-4.6,2.4-9.1,4c-0.1,0-0.2,0.1-0.2,0.2l-0.4,0.4c-0.2,0.2-0.2,0.5-0.1,0.8c0.1,0.2,0.4,0.4,0.7,0.3   c3.6-0.8,5.5-1.2,6.5-1.2c-1.9,1.2-6.3,3.3-12.7,5.9c-0.1,0-0.2,0.1-0.2,0.1l-0.3,0.3c-0.2,0.3-0.2,0.7,0,0.9   c0.3,0.2,0.7,0.2,0.9,0l0.2-0.2c3.2-1.3,6.8-2.9,9.6-4.3c0.1,0.1,0.2,0.1,0.2,0.1c0.1,0,0.1,0,0.1,0c-0.1,0.2-0.4,0.5-0.7,0.6   c-5.7,3.3-12.1,5.6-12.2,5.6c-0.3,0.1-0.5,0.5-0.4,0.8c0.1,0.3,0.4,0.5,0.8,0.4c1.6-0.4,3.2-0.9,4.7-1.2c-2.1,0.8-3.8,1.4-5,1.7   c-0.3,0.1-0.5,0.4-0.5,0.7c0.1,0.3,0.4,0.6,0.7,0.5c1.5-0.2,2.4-0.2,2.9-0.2c-1.5,0.8-5.5,1.9-9,2.6c-0.1-0.1-0.3-0.2-0.4-0.2   c-0.4,0-2.1-0.5-4.1-1.2c0.4-0.2,0.7-0.4,0.8-0.5c0.2-0.1,0.3-0.4,0.2-0.6c0-0.2-0.2-0.4-0.5-0.5c-2.3-0.6-4.4-1.4-5.1-1.9   c1.8-1.1,6.3-6.3,10.9-11.6c0.7-0.9,1.4-1.6,1.8-2.1c2.4-2.7,6.8-7.8,6.8-7.8C48.2,27.4,50.4,25.2,59.4,22.3z M13.8,33.7   c1.4-3.5,0.3-5.6-0.8-7.7c-0.5-0.9-0.9-1.8-1.1-2.7c-0.6-2.4,0.4-3,1.3-3.6c0.2-0.1,0.3-0.2,0.4-0.3c0.3-0.2,1.6-0.3,2.6-0.5   c2.9-0.4,4.8-0.7,5.5-1.6c0.4-0.6,1.8-1.8,3-2.8c-0.3,0.5-0.6,0.9-0.9,1.3c-1.4,1.5-2.6,5.6-2.7,5.8c-0.1,0.3,0.1,0.6,0.3,0.8   c0.3,0.1,0.6,0,0.8-0.2c0.4-0.5,1.4-1.7,2.7-3.1c-1.2,2.1-2.1,5-1.9,5.6c0.1,0.2,0.3,0.4,0.5,0.5c0.2,0,0.5,0,0.7-0.3   c0.5-0.6,6.7-5.3,7.7-5.6c0.1,0,0.3-0.1,0.5-0.1c-0.9,0.7-1.8,1.4-2.3,1.6c-1.8,0.8-5.3,4.8-5.6,5.3c-0.2,0.3-0.2,0.6,0,0.9   c0.2,0.2,0.6,0.2,0.9,0c1.1-1,3.9-2.6,6.3-3.8c-0.6,0.3-1.1,0.6-1.6,0.9c-5.1,3-5,3.9-4.9,4.3c0,0.2,0.2,0.8,1.1,0.8   c1,0,2.1-0.4,3.3-0.9c-0.3,0.2-0.6,0.4-0.9,0.5c-2.2,1.3-2.6,1.5-2.4,2.2c0,0.1,0.2,0.5,0.8,0.5c0.6,0,1.8-0.5,3.7-1.2   c0.9-0.3,2.1-0.8,3-1.1c-0.8,0.7-2.1,1.5-3,2.1c-2.9,2-3.5,2.4-3.3,3.1c0.2,0.4,0.5,0.5,1.1,0.4c0.9-0.1,1.8-0.4,2.7-0.6   c0.2-0.1,0.5-0.1,0.8-0.2c-0.4,0.3-0.8,0.5-1.1,0.7c-1.3,0.9-1.8,1.2-1.6,1.8c0.2,0.6,0.9,0.4,1.2,0.4c0.8-0.2,1.6-0.2,2.1-0.2   c0,0,0,0.1,0,0.1c-1.6,1.3-2.8,2.4-3.4,2.8c-0.3,0.2-0.6,0.4-0.9,0.6c-1,0.7-2.8,1.3-4.6,1.4c0,0,0-0.1,0-0.1   c0-0.3-0.1-0.6-0.4-0.7c-0.1,0-1.3-0.4-3.7,0C19,41.1,18,41.4,17,41.6c0,0,0,0,0,0c0-0.4-0.3-0.6-0.6-0.6c-1.2,0-4,1.2-4.5,1.4   c-0.2,0-0.4,0.1-0.5,0.1L13.8,33.7z M3.7,52.7c-0.3-0.7-0.5-1.5-0.3-2.1c0.3-1,1.3-1.9,1.8-2.3c0.5,0.2,1.4,0.7,1.9,1   c0.4,0.3,1.1,0.7,1.6,1c-0.4,0.1-0.8,0.2-1.5,0.3C5.2,50.9,4.2,51.3,3.7,52.7z M29.2,82c0.2,0.5,0.2,0.7,0.2,0.8   c0,0.2,0,0.4,0.1,0.5c0.1,0.2,0.3,0.3,0.5,0.4c-0.1,0.1-0.3,0.1-0.4,0.2c-0.2-0.1-0.7-0.9-0.9-1.7c-0.1-0.3-0.4-0.5-0.7-0.4   c-0.3,0.1-0.5,0.3-0.5,0.7c0,0.9-0.2,1.7-0.3,2.2c-0.1,0.3-0.1,0.6,0,0.9c0,0,0,0,0,0c-0.3-0.3-0.5-1.8-0.6-3.3   c0-0.3-0.3-0.6-0.7-0.6c-0.3,0-0.6,0.3-0.6,0.6c0,0.2-0.5,0.8-1,1.3c-0.1,0.1-0.2,0.3-0.2,0.5c0,0.4,0.2,0.7,0.4,0.9   c-0.1,0-0.1,0-0.1-0.1c-0.2-0.1-0.4-0.5-0.6-1.5c-0.1-0.5,0.4-0.9,1.1-1.4c0.5-0.4,0.9-0.7,1-1.1c0.2-0.6,0.1-1.7,0-2.5   c0.2,0,0.4,0,0.6,0c0.2,0,0.4,0,0.7,0c0.2,0.6,0.7,1.9,1.7,3C29,81.5,29.1,81.8,29.2,82z M37.3,84.6c0,0,0.1-0.1,0.1-0.2   c0,0.1,0,0.2,0,0.3C37.4,84.7,37.3,84.6,37.3,84.6z M41.8,82c0.2,0.7,0.1,1,0.1,1c-0.2,0.2-0.2,0.6,0,0.8c0.2,0.2,0.4,0.4,0.6,0.5   c-0.1,0-0.2,0.1-0.4,0.1c-0.3,0-0.8-1-1.2-2c-0.1-0.3-0.4-0.5-0.7-0.4c-0.3,0.1-0.5,0.3-0.5,0.7c0,0.6-0.2,1.2-0.4,1.7   c-0.1,0.3-0.2,0.5-0.3,0.7c-0.1,0.5,0,0.9,0.1,1.3c0,0,0,0,0,0c-0.3-0.3-0.6-2.1-0.7-4c0-0.3-0.3-0.6-0.7-0.6   c-0.3,0-0.6,0.3-0.6,0.6c0,0.2-0.6,1-1.2,1.6c-0.1,0.1-0.2,0.3-0.2,0.5c0,0.6,0.3,1,0.7,1.3c0,0-0.1,0-0.2,0c-0.7,0-1-1.5-1.1-2.1   c-0.1-0.6,0.4-1.1,1.2-1.6c0.5-0.4,1-0.7,1.1-1.2c0.2-0.7,0.2-2.1,0.2-3c0.5,0,1,0,1.6,0c0.3,0.7,0.9,2.1,1.9,3.4   C41.6,81.5,41.7,81.7,41.8,82z M70.1,79.9c0.3,0.2,7.9,4.1,14.5,3.5c1.5-0.1,2.6-0.2,3.6-0.3c-2.6,1-5.5,2-6.9,2   c-3.3,0-13.3-1.1-19.6-6.5c-0.2-0.2-0.6-0.2-0.8,0c-0.2,0.2-0.3,0.6-0.1,0.8c0.1,0.1,1.5,2.4,3.5,4.1c-2.6-0.6-6.3-2.1-10.6-5.3   c-0.8-0.6-1.6-1.1-2.3-1.6c-1.8-1.2-6.2-4.2-9.9-8.4c0.5-2.1-0.8-5.1-1-5.5c-0.2-0.3-0.5-0.5-0.9-0.3c-0.3,0.2-0.5,0.5-0.3,0.9   c0.4,0.7,1.1,2.6,1,4c-0.1,0-0.1,0-0.2,0c-0.3,0.1-0.4,0.3-0.4,0.6c0,0.3,0,0.7,0,1c0,0,0,0,0,0c0,0.1,0,0.1,0,0.2c0,0,0,0.1,0,0.1   c0,0,0.1,0.1,0.1,0.1c0,0,0,0.1,0,0.1c0,0,0,0,0,0l0,0l0,0c0.1,0.1,0.3,0.3,0.4,0.4c0.3,0.3,0.7,0.6,1,0.9c-0.2,0-0.5-0.1-0.9-0.2   c-0.2-0.1-0.4,0-0.5,0.1c-0.2,0.1-0.3,0.3-0.3,0.5c0,0.1,0,0.2,0,0.4c0,0.2,0.1,0.4,0.2,0.6c0.6,0.5,1.4,0.8,2,1   c-0.3,0.1-0.7,0.1-0.9,0.1c-0.3,0-0.5,0.2-0.6,0.4s0,0.6,0.2,0.7c0.8,0.6,1.7,0.9,2.4,1c0,0.2,0.1,0.3,0.3,0.4l0.9,0.6   c-0.4,0-0.8,0-1.1,0c-1,0-2.1,0-2.9,0c-1.1,0.1-2.2,0-3-0.1c0,0-0.1,0-0.1,0c-1.5,0.1-2.2-1.4-3.2-4c-0.9-2.1-1.9-4.5-3.8-5.7   c-0.1-0.1-0.3-0.1-0.4-0.1L26,67.2c-0.2,0-0.4,0.2-0.5,0.3c-0.1,0.2-0.1,0.4,0,0.6c0,0,0.4,0.8,0.7,2c0,0.1,0.1,0.2,0.2,0.3   l0.2,0.2c0.3,0.3,0.7,0.6,1,0.9c0,0,0,0-0.1,0c-0.2,0-0.4,0-0.6,0.2c-0.1,0.2-0.2,0.4-0.2,0.6c0,0.2,0.1,0.5,0.1,0.7   c0,0.2,0.2,0.4,0.4,0.5c0.3,0.1,0.5,0.2,0.7,0.3c-0.1,0-0.3,0.1-0.5,0.1c-0.3,0-0.6,0.3-0.6,0.6c0,0.1,0,0.2,0,0.3   c0,0.3,0.1,0.5,0.3,0.6c0.6,0.4,1.3,0.6,1.8,0.7c0,0.2,0.1,0.3,0.3,0.4l0.9,0.6c-0.4,0-0.8,0-1.1,0c-1,0-2.1,0-2.9,0   c-1.1,0.1-1.6-0.1-1.8-0.2c0,0-0.1-0.1-0.2-0.1c-1.2-0.3-2.4-1.5-3.3-3.2c-1-2.1-3.4-9.5-3.3-10.9c0.2-1.3-0.6-4-1.4-5.9   c-0.6-1.6-2-2.8-3.6-3.3c-1.4-0.4-3.5-1.1-5.3-1.6c2.2-0.3,2.9-1,3-1.1c0.1-0.2,0.2-0.4,0.1-0.6c0-0.2-0.2-0.4-0.4-0.4   c0,0-1.8-0.8-2.6-1.4c-0.5-0.4-1.2-0.7-1.8-1c0.8-0.8,2.1-2.1,3.1-2.7c0.2-0.1,0.7-0.3,1.3-0.5c0.1,0,0.2,0,0.4-0.1   c0.4-0.1,0.9-0.3,1.4-0.4c0,0,0.1,0,0.1,0c0.4-0.2,0.8-0.3,1.3-0.5c0,0.1,0,0.2,0,0.3c0.1,0.3,0.5,0.5,0.8,0.4c0,0,2.2-0.7,4.2-1.2   c-0.4,0.3-0.9,0.6-1.2,1c-0.2,0.3-0.2,0.7,0,0.9c0.3,0.2,0.7,0.2,0.9,0c0.9-0.9,2.1-1.5,3.1-1.8c0,0,0.1,0,0.1,0   c2.6,1,6.1-0.1,7.6-1.2c0.3-0.2,0.6-0.4,0.9-0.7c1.7-1.3,12.4-10.4,14.6-13.8c1.9-2.9,5.8-4.5,10.6-4.6c-6.5,2.4-8.1,4.2-8.2,4.3   c0,0-4.4,5-6.8,7.8c-0.4,0.5-1.1,1.2-1.8,2.1c-2.9,3.5-9.1,10.6-10.7,11.4c-0.7,0.3-0.7,0.8-0.7,1.1c0.1,0.9,1.6,1.8,4.6,2.7   c-0.3,0.1-0.7,0.2-1,0.1c-0.3-0.1-0.7,0.1-0.7,0.5c-0.1,0.3,0.1,0.7,0.4,0.8c0.8,0.3,2.8,0.9,4.4,1.4c-0.1,0-0.2,0-0.3,0   c0,0-0.1,0-0.1,0c-0.1,0-0.2,0.1-0.2,0.1c-0.1,0.1-0.1,0.1-0.2,0.2c0,0.1,0,0.1,0,0.2c0,0.1,0,0.2,0,0.2c0,0.1,0.1,0.2,0.1,0.2   c0.1,0.1,0.1,0.1,0.2,0.2c0,0,0.1,0,0.1,0c0.6,0.1,1.4,0.1,2.2,0.2c0.8,0,2.1,0.1,2.4,0.2c0.7,0.4,1.9,0.8,3.4,0.9   c-1,0.4-1.9,0.7-2.5,0.7c-0.5,0-0.8-0.1-1.2-0.1c-0.3,0-0.6,0.2-0.6,0.4c-0.1,0.3,0,0.6,0.3,0.7c0.2,0.1,0.4,0.2,0.6,0.4   c0.1,0.1,0.2,0.1,0.3,0.1c1.2,0.2,2.9,0.2,4.5-0.4c0.5-0.2,1-0.3,1.6-0.5c-0.8,0.4-2.1,1-3.3,1.3c-0.3,0.1-0.5,0.3-0.5,0.5   c0,0.3,0.1,0.5,0.3,0.6c0.3,0.1,0.6,0.3,0.9,0.4c0.1,0,0.2,0.1,0.3,0.1c1.2-0.1,5.5-0.5,7.4-1.5c0.5-0.2,1.3-0.3,2.2-0.3   c-0.1,0-0.2,0.1-0.2,0.1c-0.6,0.3-3,1.3-5.2,2c-0.3,0.1-0.5,0.4-0.4,0.6c0,0.3,0.2,0.5,0.5,0.6c0.7,0.2,1.4,0.3,2,0.3   c4.5,0.3,7.1,0.3,13.2-1.1c0.2-0.1,0.5-0.1,0.7-0.2c-0.4,0.1-0.8,0.3-1.1,0.4c-3.3,1.4-8.9,2.3-12.2,2c-0.3,0-0.7,0.2-0.7,0.6   c0,0.3,0.2,0.7,0.5,0.7c3.1,0.5,9.1,1.1,13.8,0.3c0.1,0,5.2-1,7.9-0.8c0.6,0.1,1.2,0.2,2,0.4c2.5,0.7,5.8,1.6,10.4-1.1   c-1,1-3.2,2.6-8.6,4.7c-4.3,1.6-6.4,0.9-6.4,0.9c-0.3-0.1-0.6,0-0.8,0.2c-0.2,0.2-0.2,0.6,0,0.8c0.1,0.2,3.4,3.7,9.9,2.6   c6.1-1.1,6.7-1.7,10.1-5.3l0.5-0.5c1.7-1.8,3.6-3,5.2-3.7c-1.6,1.4-3.4,3.2-3.9,4.3C90,68.6,90,68.9,90.2,69   c0.2,0.2,0.4,0.3,0.7,0.2c1.2-0.4,2.6-0.8,3.7-1.1c-2.2,1.9-5.4,4.9-5.9,5.4c-0.2,0.2-0.3,0.5-0.1,0.8c0.1,0.3,0.4,0.4,0.7,0.3   l5.4-1.1c-1.9,1.3-4.8,3.2-8,4.7c-5.4,2.6-16,0.5-16.1,0.5c-0.3-0.1-0.6,0.1-0.7,0.4C69.7,79.4,69.8,79.8,70.1,79.9z"/><path d="M11.3,45.6c-0.1,0-1.4,0-3,1.2C8.1,47,8,47.4,8.2,47.6c0.2,0.3,0.6,0.3,0.9,0.1c0.3-0.2,0.5-0.3,0.7-0.5   c0.1,0.7,0.7,1.2,1.5,1.2c0.8,0,1.5-0.7,1.5-1.5C12.8,46.2,12.1,45.6,11.3,45.6z M11.3,47.2c-0.1,0-0.2-0.1-0.2-0.2c0,0,0,0,0,0   c0-0.1,0-0.1,0-0.2c0.1,0,0.2,0,0.2,0c0.1,0,0.2,0.1,0.2,0.2C11.5,47.1,11.4,47.2,11.3,47.2z"/></g><text x="0" y="115" fill="#000000" font-size="5px" font-weight="bold" font-family="'Helvetica Neue', Helvetica, Arial-Unicode, Arial, Sans-serif">Created by parkjisun</text><text x="0" y="120" fill="#000000" font-size="5px" font-weight="bold" font-family="'Helvetica Neue', Helvetica, Arial-Unicode, Arial, Sans-serif">from the Noun Project</text></svg>