<?xml version="1.0" encoding="utf-8"?>
<!-- Generator: Adobe Illustrator 16.0.3, SVG Export Plug-In . SVG Version: 6.00 Build 0)  -->
<!DOCTYPE svg PUBLIC "-//W3C//DTD SVG 1.1//EN" "http://www.w3.org/Graphics/SVG/1.1/DTD/svg11.dtd">
<svg version="1.1" id="Layer_1" xmlns="http://www.w3.org/2000/svg" xmlns:xlink="http://www.w3.org/1999/xlink" x="0px" y="0px"
	 width="50px" height="50px" viewBox="0 0 50 50" enable-background="new 0 0 50 50" xml:space="preserve">
<g id="bot_playful_star">
	<g transform="translate(0,-952.36218)">
		<path fill="#FFC766" d="M24.948,953.858c-0.443,0.021-0.826,0.314-0.965,0.736l-5.362,16.091H1.444
			c-0.588,0.002-1.066,0.482-1.064,1.073c0.002,0.338,0.162,0.656,0.434,0.855l13.951,10.201l-5.363,16.653
			c-0.182,0.56,0.125,1.162,0.688,1.348c0.326,0.105,0.684,0.048,0.961-0.155L25,990.458l13.951,10.203
			c0.477,0.347,1.146,0.245,1.494-0.23c0.201-0.277,0.26-0.635,0.154-0.962l-5.361-16.653l13.949-10.201
			c0.475-0.35,0.574-1.019,0.225-1.495c-0.199-0.272-0.516-0.433-0.855-0.434H31.379l-5.361-16.091
			C25.869,954.136,25.431,953.833,24.948,953.858z"/>
	</g>
</g>
<g id="playful_star">
	<g transform="translate(0,-952.36218)">
		<path fill="#FFFC80" d="M24.97,964.63c-0.253,0.012-0.471,0.169-0.548,0.398l-3.057,8.717h-9.787
			c-0.336,0.001-0.609,0.262-0.607,0.581c0.002,0.183,0.093,0.355,0.248,0.464l7.949,5.527l-3.057,9.02
			c-0.104,0.303,0.072,0.631,0.392,0.73c0.187,0.058,0.39,0.024,0.549-0.085L25,984.457l7.951,5.525
			c0.27,0.188,0.65,0.133,0.85-0.126c0.115-0.149,0.148-0.344,0.09-0.52l-3.057-9.02l7.949-5.527c0.268-0.19,0.326-0.552,0.127-0.81
			c-0.113-0.146-0.295-0.234-0.488-0.234h-9.787l-3.056-8.717C25.495,964.781,25.245,964.617,24.97,964.63z"/>
	</g>
</g>
</svg>
