<svg xmlns="http://www.w3.org/2000/svg" xmlns:xlink="http://www.w3.org/1999/xlink" version="1.1" x="0px" y="0px" viewBox="0 0 100 125" enable-background="new 0 0 100 100" xml:space="preserve"><g><path d="M85.939,91.373c-0.057-0.228-0.288-0.379-0.498-0.375c-5.822,0.213-9.569-0.855-14.338-4.093   c-3.866-2.626-6.415-5.829-7.909-13.73c0.13,0.015,0.261,0.03,0.378,0.03c0.969,0,1.531-0.46,2.081-0.907   c0.483-0.393,0.982-0.8,1.858-1.03c0.151-0.041,0.274-0.149,0.333-0.295c0.059-0.144,0.045-0.309-0.036-0.441   c-3.184-5.231-4.542-10.374-4.542-17.196c0-1.948,0.132-3.812,0.262-5.614c0.263-3.685,0.489-6.867-0.583-9.16   c-1.178-2.516-3.188-3.57-4.877-3.592c0.308-1.609,0.407-2.971,0.407-4.018c0-4.954-2.164-9.137-6.259-12.095   c-0.152-0.107-0.353-0.125-0.516-0.038c-0.166,0.084-0.27,0.255-0.27,0.439c0,2.358-0.554,3.411-2.193,4.174   c-0.097,0.046-0.176,0.12-0.227,0.214c-1.152,2.143-1.644,4.233-1.644,6.995c0,0.8,0.211,2.344,0.717,4.208   c-1.914-0.266-3.092,0.644-3.77,1.521c-0.581,0.754-0.938,1.792-1.389,3.106c-0.483,1.407-1.085,3.159-2.171,5.028   c-1.493,2.571-4.935,5.079-7.518,5.479c-0.181,0.027-0.332,0.154-0.392,0.327c-0.196,0.569-0.353,1.334-0.439,2.229   c-0.009,0.001-0.019-0.001-0.028,0l-1.083,0.229c-0.301-0.466-0.866-0.729-1.441-0.616l-0.014,0.002   c-0.021-0.511-0.041-1.062-0.06-1.635c-0.043-1.278-0.088-2.602-0.175-3.695c-0.858-10.731-2.062-19.709-8.191-27.597   c0.136-0.314,0.18-0.66,0.127-0.994c1.289-0.62,2.649-0.752,3.772-0.32c1.157,0.442,1.954,1.424,2.306,2.836   c0.05,0.199,0.217,0.347,0.421,0.372c0.02,0.003,0.04,0.004,0.06,0.004c0.182,0,0.35-0.1,0.437-0.262   c1.095-2.052,2.589-3.822,4.44-5.266c0.158-0.123,0.228-0.33,0.173-0.523l-0.368-1.318l1.245,0.762   c0.158,0.099,0.359,0.096,0.519-0.001c0.565-0.35,1.156-0.675,1.755-0.966c0.188-0.092,0.297-0.29,0.275-0.498l-0.185-1.735   l1.179,1.313c0.137,0.153,0.354,0.203,0.544,0.133c2.341-0.889,4.992-1.475,7.882-1.741c0.195-0.019,0.36-0.149,0.424-0.335   l0.206-0.609l0.47,0.632c0.1,0.133,0.251,0.214,0.424,0.199c12.222-0.637,25.845,4.113,32.981,9.151   c0.216,0.152,0.511,0.109,0.674-0.098c0.162-0.207,0.136-0.505-0.062-0.68C69.245,8.884,55.063,3.879,41.184,5.211   c-9.172,0.876-17.305,4.548-22.089,9.911l-0.062-0.066c-0.048-0.053-0.106-0.09-0.172-0.118c-0.004-0.002-0.007-0.007-0.012-0.008   l-4.127-1.635c-0.176-0.068-0.379-0.032-0.519,0.099c-0.141,0.13-0.193,0.329-0.135,0.511l1.328,4.199   c0,0.003,0.003,0.005,0.005,0.007c0.021,0.064,0.054,0.125,0.102,0.178l2.065,2.258c0.335,0.369,0.813,0.581,1.311,0.581   c0.167,0,0.329-0.031,0.486-0.076c4.405,6.101,5.925,14.282,6.741,24.493c0.09,1.11,0.16,3.542,0.207,5.15l0.026,0.894   l-0.244,0.209c-0.206,0.18-0.229,0.492-0.05,0.698c0.178,0.209,0.492,0.229,0.697,0.052l0.494-0.428l2.083,1.045   c0.016,0.008,0.033,0.006,0.05,0.012c0.044,0.017,0.088,0.027,0.133,0.031c0.014,0.002,0.026,0.01,0.04,0.01   c0.012,0,0.021-0.009,0.035-0.01c0.021-0.001,0.042,0.005,0.064,0l0.406-0.083c0.209-0.041,0.428,0.097,0.471,0.312l0.345,1.69   c0.024,0.124,0.062,0.309-0.396,0.495c-0.288,0.116-1.147,0.471-1.147,0.471l0.002,0.002c-0.185,0.078-0.314,0.26-0.308,0.472   c0.156,4.973,0.322,8.528,0.507,10.869c0.962,12.003,2.9,17.986,7.406,22.859c0.68,0.738,0.942,1.484,0.722,2.047   c-0.153,0.393-0.53,0.64-1.032,0.681c-1.326,0.09-2.815-0.949-4.092-2.897c-2.156-3.287-3.601-7.636-4.6-20.129   c-0.252-3.18-0.417-7.345-0.502-12.702l0.356-0.072c0.268-0.055,0.441-0.314,0.387-0.583c-0.054-0.269-0.324-0.447-0.582-0.388   l-1.309,0.264c-0.268,0.054-0.442,0.315-0.388,0.582c0.048,0.236,0.254,0.398,0.484,0.398c0.021,0,0.043-0.004,0.063-0.006   c0.088,5.291,0.252,9.42,0.504,12.586c1.016,12.704,2.514,17.172,4.757,20.594c1.424,2.172,3.092,3.35,4.727,3.35   c0.091,0,0.182-0.002,0.273-0.01c0.88-0.07,1.581-0.56,1.873-1.306c0.365-0.928,0.033-2.05-0.914-3.078   c-4.391-4.749-6.194-10.368-7.147-22.268c-0.18-2.27-0.342-5.708-0.492-10.48c0.272-0.112,0.65-0.267,0.822-0.337   c0.712-0.289,0.944-0.736,1.004-1.108l0.538-0.112c0.053,0.791,0.154,1.617,0.327,2.459l0.092,0.446   c0.606,2.926,1.008,4.86,0.113,10.447c-0.031,0.192,0.053,0.384,0.213,0.49c0.084,0.057,0.18,0.084,0.275,0.084   c0.09,0,0.18-0.024,0.26-0.074c1.99-1.227,4.591-3.805,5.796-5.747c1.667-2.678,2.515-4.988,3.335-7.225l0.159-0.432   c0.697-1.9,1.874-5.104,3.194-7.605c0.416,1.418,1.201,3.123,1.833,4.258c-0.914,1.418-1.774,3.27-2.092,6.776   c-0.067,0.754-0.122,1.582-0.182,2.479c-0.204,3.104-0.459,6.966-1.485,11.521c-0.33,1.468-0.74,2.929-1.137,4.342   c-1.345,4.792-2.615,9.317-0.984,14.029c0.046,0.132,0.146,0.238,0.274,0.295c1.965,0.831,3.793,1.392,5.73,1.392   c1.027,0,2.089-0.167,3.215-0.525c0.196,0.351,0.399,0.693,0.613,1.022c0.063,0.098,0.16,0.17,0.272,0.204   C54.123,94.528,56.211,95,58.704,95c2.152,0,4.605-0.352,7.507-1.29c0.022-0.008,0.037-0.022,0.058-0.032   c2.184,0.545,4.771,0.954,7.589,0.954c3.691,0,7.77-0.698,11.821-2.694C85.888,91.835,85.997,91.6,85.939,91.373z M18.633,20.078   c-0.124-0.04-0.241-0.1-0.332-0.199l-1.732-1.894l1.533-1.404l0.536-0.492l0.491,0.537l0.305,0.334l0.8,0.876l0.14,0.153   c0.204,0.223,0.243,0.531,0.146,0.798c-0.042,0.115-0.103,0.225-0.199,0.313l-0.149,0.136l-0.549,0.5l-0.216,0.195   C19.194,20.123,18.895,20.162,18.633,20.078z M17.751,15.559l-1.644,1.506l-0.78-2.466L17.751,15.559z M41.277,6.196   C48.269,5.53,61.311,6.08,75.149,15.84c-7.55-3.621-17.883-6.386-27.418-5.93l-0.876-1.18c-0.109-0.147-0.294-0.226-0.475-0.193   c-0.182,0.028-0.333,0.155-0.392,0.33l-0.405,1.201c-2.725,0.275-5.245,0.831-7.502,1.652l-1.977-2.203   c-0.144-0.16-0.372-0.205-0.569-0.122c-0.196,0.088-0.313,0.292-0.291,0.506l0.311,2.915c-0.431,0.219-0.855,0.453-1.27,0.701   l-2.062-1.261c-0.175-0.108-0.395-0.097-0.557,0.026s-0.233,0.332-0.178,0.528l0.618,2.214c-1.554,1.257-2.861,2.74-3.896,4.42   c-0.535-1.168-1.412-2.022-2.543-2.456c-1.377-0.527-3.018-0.384-4.551,0.353c-0.006-0.007-0.01-0.015-0.016-0.021l-1.335-1.461   C24.377,10.638,32.304,7.054,41.277,6.196z M27.388,51.087c-0.022-0.012-0.048-0.005-0.071-0.014l-0.013-0.408   c-0.05-1.716-0.118-4.065-0.212-5.2c-0.825-10.345-2.372-18.659-6.877-24.931l0.561-0.511c5.839,7.643,7.007,16.41,7.846,26.881   c0.084,1.071,0.127,2.382,0.171,3.65c0.014,0.437,0.028,0.854,0.044,1.259L27.388,51.087z M32.273,54.331l-0.537,0.111   l-0.147-0.723l0.759-0.161c-0.009,0.251-0.011,0.509-0.008,0.772C32.318,54.333,32.295,54.327,32.273,54.331z M46.878,46.882   c0.535-0.855,1.083-1.549,1.625-1.953c0.219-0.165,0.263-0.475,0.099-0.693c-0.165-0.219-0.474-0.263-0.693-0.1   c-0.656,0.492-1.301,1.315-1.918,2.312c-0.013,0.02-0.023,0.04-0.036,0.06c-1.628,2.652-3.053,6.526-3.931,8.919l-0.158,0.433   c-0.804,2.188-1.633,4.451-3.246,7.044c-0.961,1.545-2.858,3.519-4.557,4.795c0.693-4.929,0.274-6.949-0.291-9.675l-0.091-0.444   c-0.551-2.681-0.387-5.258,0.017-6.673c2.794-0.578,6.352-3.212,7.915-5.904c1.135-1.953,1.753-3.756,2.25-5.204   c0.422-1.229,0.755-2.198,1.236-2.823c0.812-1.053,1.896-1.394,3.303-1.053c0.638,2.02,1.603,4.291,3.002,6.373   c0.095,0.142,0.252,0.219,0.411,0.219c0.095,0,0.191-0.027,0.275-0.085c0.227-0.151,0.287-0.459,0.135-0.686   c-2.732-4.064-3.867-9.237-3.867-11.103c0-2.526,0.436-4.445,1.451-6.385c1.836-0.91,2.437-2.275,2.577-4.024   c3.385,2.74,5.101,6.343,5.101,10.72c0,2.113-0.398,5.537-2.301,9.851c-0.11,0.249,0.003,0.542,0.253,0.652   c0.251,0.111,0.543-0.002,0.652-0.254c0.849-1.926,1.397-3.672,1.76-5.228c1.392-0.088,3.152,0.775,4.198,3.008   c0.963,2.06,0.743,5.123,0.491,8.67c-0.13,1.819-0.264,3.701-0.264,5.685c0,6.785,1.311,11.962,4.369,17.179   c-0.727,0.291-1.211,0.687-1.617,1.018c-0.623,0.508-1.03,0.826-2.025,0.615c-0.209-1.234-0.394-2.576-0.557-4.04   c-1.175-10.54-1.883-13.894-3.422-15.74c1.305-2.542,1.573-4.941,1.573-7.945c0-0.272-0.223-0.494-0.495-0.494   c-0.273,0-0.495,0.222-0.495,0.494c0,2.94-0.256,5.141-1.488,7.523h-9.267C47.975,50.38,47.034,48.141,46.878,46.882z    M60.393,90.397c-1.09-1.695-1.867-4.603-1.857-6.965c0.001-0.273-0.22-0.497-0.493-0.497c-0.266,0.016-0.496,0.219-0.497,0.492   c-0.01,2.619,0.844,5.744,2.078,7.601c0.035,0.053,0.08,0.099,0.133,0.134c0.615,0.422,2.315,1.269,4.734,2.021   c-5.135,1.381-8.725,0.785-11.825-0.126c-2.585-4.056-3.843-9.938-3.843-17.974c0-0.273-0.222-0.496-0.494-0.496   c-0.273,0-0.495,0.223-0.495,0.496c0,7.153,0.99,12.659,3.015,16.748c-2.82,0.847-5.147,0.342-7.882-0.796   c-1.421-4.348-0.21-8.665,1.071-13.231c0.4-1.425,0.814-2.898,1.149-4.391c1.045-4.63,1.302-8.535,1.509-11.672   c0.059-0.89,0.113-1.71,0.18-2.457c0.286-3.151,0.988-4.852,1.958-6.351h9.366c1.416,1.631,2.109,4.924,3.263,15.28   c0.179,1.6,0.385,3.054,0.617,4.391c0.001,0.009,0.003,0.017,0.005,0.025c1.531,8.775,4.257,12.236,8.464,15.094   c4.271,2.9,7.76,4.132,12.507,4.275C72.488,96.011,62.315,91.638,60.393,90.397z"/><path d="M52.677,37.209c-1.796-2.406-3.472-5.11-2.566-9.364c0.811-1.413,1.709-2.072,2.823-2.072c2.075,0,3.128,1.638,3.128,4.866   c0,2.465-0.822,6.216-3.129,9.352c-0.162,0.221-0.114,0.53,0.105,0.692c0.089,0.065,0.191,0.096,0.293,0.096   c0.152,0,0.302-0.069,0.399-0.201c2.448-3.328,3.321-7.316,3.321-9.938c0-4.84-2.239-5.855-4.118-5.855   c-1.505,0-2.723,0.864-3.723,2.641c-0.023,0.043-0.041,0.089-0.052,0.137c-1.03,4.703,0.866,7.752,2.725,10.241   c0.164,0.22,0.476,0.264,0.693,0.1C52.796,37.738,52.84,37.428,52.677,37.209z"/><path d="M50.826,28.852c-0.154-0.067-0.329-0.053-0.47,0.038c-0.141,0.092-0.226,0.247-0.226,0.415c0,1.249,0.784,2.19,1.823,2.19   c0.211,0,0.4-0.135,0.468-0.336l0.327-0.963c0.082-0.242-0.033-0.508-0.269-0.611L50.826,28.852z"/><path d="M53.791,31.495c1.039,0,1.822-0.941,1.822-2.19c0-0.168-0.085-0.323-0.226-0.415c-0.142-0.092-0.318-0.104-0.47-0.038   l-1.653,0.733c-0.234,0.104-0.351,0.369-0.268,0.611l0.326,0.963C53.391,31.36,53.579,31.495,53.791,31.495z"/><path d="M28.15,54.257c-0.055-0.269-0.312-0.444-0.584-0.387l-2.451,0.495c-0.268,0.055-0.439,0.314-0.387,0.584   c0.048,0.234,0.255,0.396,0.484,0.396c0.033,0,0.066-0.003,0.1-0.01l2.451-0.496C28.032,54.785,28.204,54.524,28.15,54.257z"/><path d="M27.997,55.986c0.268-0.055,0.44-0.315,0.387-0.584c-0.056-0.268-0.319-0.446-0.584-0.387l-2.03,0.411   c-0.268,0.055-0.441,0.316-0.387,0.584c0.049,0.233,0.254,0.396,0.484,0.396c0.032,0,0.065-0.003,0.1-0.01L27.997,55.986z"/><path d="M25.401,54.117c0.032,0,0.065-0.003,0.101-0.01l2.029-0.412c0.269-0.054,0.441-0.314,0.387-0.583   c-0.055-0.268-0.314-0.442-0.583-0.387l-2.031,0.411c-0.268,0.055-0.441,0.315-0.387,0.584   C24.966,53.955,25.171,54.117,25.401,54.117z"/></g><text x="0" y="115" fill="#000000" font-size="5px" font-weight="bold" font-family="'Helvetica Neue', Helvetica, Arial-Unicode, Arial, Sans-serif">Created by Daniel Hammer</text><text x="0" y="120" fill="#000000" font-size="5px" font-weight="bold" font-family="'Helvetica Neue', Helvetica, Arial-Unicode, Arial, Sans-serif">from the Noun Project</text></svg>