<svg xmlns="http://www.w3.org/2000/svg" xmlns:xlink="http://www.w3.org/1999/xlink" version="1.1" x="0px" y="0px" viewBox="0 0 24 30" style="enable-background:new 0 0 24 24;" xml:space="preserve"><g><path d="M11.732,7.823L11.732,7.823c0.183,0.097,0.413,0.085,0.585-0.03l3.474-2.334c0.158-0.106,0.252-0.282,0.252-0.472   c0-0.19-0.094-0.367-0.252-0.472l-3.474-2.334c-0.175-0.117-0.399-0.128-0.585-0.03c-0.186,0.099-0.301,0.292-0.301,0.502v1.785   C6.829,4.732,3.25,8.533,3.25,13.167c0,4.825,3.925,8.75,8.75,8.75s8.75-3.925,8.75-8.75c0-2.337-0.91-4.535-2.563-6.187   c-0.222-0.222-0.583-0.222-0.805,0c-0.222,0.222-0.222,0.583,0,0.805c1.438,1.438,2.23,3.349,2.23,5.383   c0,4.197-3.415,7.612-7.612,7.612s-7.612-3.415-7.612-7.612c0-4.001,3.078-7.298,7.043-7.591V7.32   C11.431,7.531,11.546,7.723,11.732,7.823z M12.569,6.252V3.72l1.885,1.266L12.569,6.252z"/></g><text x="0" y="39" fill="#000000" font-size="5px" font-weight="bold" font-family="'Helvetica Neue', Helvetica, Arial-Unicode, Arial, Sans-serif">Created by AlePio</text><text x="0" y="44" fill="#000000" font-size="5px" font-weight="bold" font-family="'Helvetica Neue', Helvetica, Arial-Unicode, Arial, Sans-serif">from the Noun Project</text></svg>