<?xml version="1.0" encoding="utf-8"?>
<!-- Generator: Adobe Illustrator 16.0.3, SVG Export Plug-In . SVG Version: 6.00 Build 0)  -->
<!DOCTYPE svg PUBLIC "-//W3C//DTD SVG 1.1//EN" "http://www.w3.org/Graphics/SVG/1.1/DTD/svg11.dtd">
<svg version="1.1" id="Layer_1" xmlns="http://www.w3.org/2000/svg" xmlns:xlink="http://www.w3.org/1999/xlink" x="0px" y="0px"
	 width="40px" height="40px" viewBox="0 0 40 40" enable-background="new 0 0 40 40" xml:space="preserve">
<g>
	<path fill="#FF1D25" d="M19.473,11.771L19.473,11.771c0.359,0.192,0.813,0.167,1.151-0.058l6.843-4.598
		c0.312-0.208,0.497-0.556,0.497-0.929c0-0.375-0.186-0.722-0.497-0.93L20.624,0.66c-0.345-0.23-0.785-0.252-1.151-0.059
		c-0.367,0.194-0.592,0.574-0.592,0.989v3.515C9.816,5.684,2.768,13.17,2.768,22.297c0,9.502,7.729,17.232,17.232,17.232
		c9.504,0,17.232-7.73,17.232-17.232c0-4.603-1.793-8.932-5.046-12.185c-0.438-0.438-1.149-0.438-1.587,0
		c-0.438,0.437-0.438,1.148,0,1.585c2.832,2.832,4.392,6.596,4.392,10.602c0,8.266-6.726,14.99-14.991,14.99
		S5.009,30.564,5.009,22.299c0-7.879,6.062-14.373,13.872-14.951v3.433C18.881,11.197,19.105,11.575,19.473,11.771z M21.12,8.678
		V3.692l3.712,2.493L21.12,8.678z"/>
</g>
</svg>
