<svg xmlns="http://www.w3.org/2000/svg" xmlns:xlink="http://www.w3.org/1999/xlink" version="1.1" x="0px" y="0px" viewBox="0 0 100 125" enable-background="new 0 0 100 100" xml:space="preserve"><path d="M62.176,46.925c-1.026,0-1.982-0.496-2.557-1.326c-0.878-1.27-1.047-2.443-1.244-3.801c-0.225-1.563-0.506-3.506-2.22-5.974  c-0.121-0.174-0.078-0.413,0.096-0.534c0.174-0.121,0.413-0.078,0.534,0.096c1.818,2.617,2.112,4.659,2.349,6.3  c0.19,1.316,0.34,2.354,1.116,3.476c0.431,0.623,1.151,0.995,1.926,0.995c0.329,0,0.646-0.065,0.943-0.193  c0.456-0.189,0.806-0.545,0.99-1.006c0.178-0.457,0.171-0.955-0.02-1.4c-0.144-0.334-0.416-0.597-0.766-0.741  c-0.315-0.125-0.695-0.122-1.092,0.01c-0.201,0.067-0.418-0.042-0.485-0.243c-0.067-0.201,0.042-0.418,0.243-0.485  c0.57-0.189,1.13-0.187,1.621,0.007c0.541,0.223,0.959,0.631,1.183,1.15c0.271,0.632,0.281,1.337,0.028,1.986  c-0.263,0.657-0.762,1.164-1.405,1.43C63.029,46.839,62.61,46.925,62.176,46.925z"/><path d="M45.169,29.196c-0.012,0-0.023,0-0.035-0.002c-0.211-0.019-0.366-0.206-0.347-0.417c0.29-3.173,1.377-4.927,2.25-6.336  c0.7-1.13,1.252-2.022,1.379-3.38c0.07-0.755-0.242-1.503-0.835-2c-0.252-0.211-0.537-0.366-0.847-0.458  c-0.471-0.148-0.968-0.1-1.405,0.134c-0.43,0.235-0.745,0.622-0.885,1.085c-0.104,0.348-0.065,0.725,0.11,1.06  c0.162,0.298,0.454,0.54,0.843,0.694c0.197,0.078,0.293,0.301,0.215,0.498s-0.301,0.294-0.498,0.215  c-0.558-0.221-0.986-0.583-1.237-1.047c-0.271-0.518-0.329-1.099-0.167-1.641c0.199-0.659,0.644-1.205,1.255-1.539  c0.624-0.334,1.331-0.402,1.996-0.193c0.406,0.122,0.782,0.325,1.114,0.604c0.786,0.66,1.199,1.654,1.106,2.659  c-0.144,1.537-0.768,2.545-1.491,3.711c-0.832,1.342-1.866,3.01-2.139,6.003C45.532,29.047,45.365,29.196,45.169,29.196z"/><path d="M69.764,36.049c-0.477-1.008-0.806-1.561-2.515-2.116c-0.922-0.3-3.273-0.199-5.761-0.093  c-2.009,0.086-4.087,0.175-5.211,0.031c-3.085-0.394-5.722-1.716-7.836-3.931c-0.146-0.153-0.389-0.159-0.542-0.013  c-0.153,0.146-0.159,0.389-0.013,0.542c0.021,0.022,0.044,0.043,0.065,0.066c-0.755,0.818-1.218,1.911-1.218,3.112  c0,0.639,0.131,1.246,0.366,1.799c-0.004-0.006-0.008-0.011-0.012-0.017c-0.789-1.181-1.07-2.599-0.793-3.995  c0.278-1.396,1.082-2.6,2.268-3.393c0.643-0.443,1.35-0.733,2.101-0.862c1.175-0.201,2.465-0.151,3.711-0.103l0.063,0.002  c2.045,0.08,4.16,0.163,5.724-0.877c0.747-0.499,1.197-1.195,1.339-2.067c0.226-1.38-0.712-2.687-2.093-2.915  c-0.553-0.089-1.111,0.04-1.572,0.369c-0.434,0.314-0.73,0.777-0.836,1.31l-0.011,0.063c-0.077,0.463,0.033,0.929,0.308,1.312  c0.275,0.383,0.684,0.636,1.15,0.713c0.209,0.034,0.407-0.107,0.441-0.316c0.035-0.209-0.107-0.407-0.316-0.441  c-0.264-0.044-0.496-0.187-0.652-0.404c-0.155-0.216-0.217-0.478-0.175-0.732l0.009-0.051c0.067-0.336,0.256-0.631,0.53-0.83  c0.293-0.209,0.648-0.292,1-0.235c0.963,0.159,1.617,1.071,1.459,2.034c-0.106,0.654-0.446,1.177-1.008,1.552  c-1.356,0.902-3.345,0.824-5.269,0.749l-0.063-0.002c-1.286-0.049-2.615-0.101-3.87,0.114c-0.862,0.148-1.671,0.48-2.402,0.983  c-1.352,0.903-2.272,2.281-2.59,3.878c-0.318,1.597,0.005,3.22,0.907,4.571c0.848,1.269,2.629,2.221,4.302,2.346  c0.188,0.023,0.379,0.037,0.574,0.037c2.216,0,4.063-1.571,4.494-3.66c0.121,0.018,0.241,0.038,0.362,0.054  c1.189,0.152,3.299,0.062,5.341-0.026c2.311-0.099,4.7-0.201,5.491,0.056c1.474,0.479,1.657,0.866,2.059,1.715  c0.282,0.593,0.315,1.264,0.092,1.89c-0.222,0.623-0.671,1.121-1.267,1.402c-0.456,0.218-0.97,0.244-1.448,0.073  c-0.477-0.17-0.861-0.516-1.079-0.97c-0.165-0.353-0.185-0.747-0.059-1.107c0.13-0.364,0.395-0.656,0.745-0.823  c0.191-0.091,0.273-0.32,0.182-0.511c-0.091-0.191-0.319-0.273-0.511-0.182c-0.535,0.254-0.939,0.701-1.139,1.259  c-0.194,0.553-0.163,1.152,0.089,1.692c0.309,0.641,0.847,1.125,1.514,1.364c0.293,0.105,0.596,0.157,0.898,0.157  c0.39,0,0.778-0.087,1.138-0.26c0.779-0.368,1.369-1.021,1.66-1.837C70.178,37.706,70.135,36.826,69.764,36.049z"/><circle cx="42.22" cy="32.817" r="0.831"/><circle cx="37.713" cy="28.812" r="0.831"/><circle cx="40.205" cy="19.175" r="0.831"/><path d="M68.921,60.733c-4.123,0-7.492,3.226-7.722,7.291c1.491,1.227,3.296,2.021,5.227,2.288  c-0.107-0.567-0.174-1.144-0.193-1.727l0.005,0.004c-0.002-0.04-0.006-0.08-0.006-0.12c0-1.485,1.204-2.689,2.689-2.689  c1.485,0,2.689,1.204,2.689,2.689c0,1.376-1.034,2.509-2.367,2.668l0.001,0.005l0,0c-4.493,0.532-9.061-1.663-11.347-5.883  c-0.564-1.042-0.947-2.134-1.163-3.239l-2.942-16.916l0.729-0.129l2.525,14.319c0.174,0.988,1.117,1.648,2.105,1.474  c0.988-0.174,1.648-1.117,1.474-2.105L57.79,42.589c-0.311-1.765-1.847-3.002-3.579-3l0-0.003h-8.48l0,0.003  c-1.732-0.002-3.268,1.236-3.579,3l-2.834,16.074c-0.174,0.988,0.486,1.931,1.474,2.105c0.988,0.174,1.931-0.486,2.105-1.474  l2.525-14.319l0.786,0.139l-2.941,16.908c-0.216,1.104-0.599,2.195-1.163,3.237c-2.286,4.221-6.854,6.415-11.347,5.883l0,0  l0.001-0.006c-1.333-0.159-2.367-1.292-2.367-2.668c0-1.485,1.204-2.689,2.689-2.689c1.485,0,2.689,1.204,2.689,2.689  c0,0.041-0.004,0.08-0.006,0.12l0.005-0.004c-0.019,0.583-0.086,1.16-0.193,1.727c1.932-0.267,3.737-1.061,5.227-2.288  c-0.23-4.066-3.599-7.292-7.723-7.292c-4.273,0-7.736,3.464-7.736,7.736c0,3.293,2.058,6.103,4.957,7.22l0.006,0.01  c5.749,2.224,12.513,1.172,17.36-3.279c1.895-1.74,3.295-3.818,4.197-6.056l0.26-0.034c0.901,2.251,2.306,4.341,4.211,6.09  c4.847,4.451,11.612,5.502,17.36,3.279l0.006-0.01c2.899-1.117,4.957-3.927,4.957-7.22C76.658,64.196,73.194,60.733,68.921,60.733z   M50,58.859c-0.281,0-0.51-0.228-0.51-0.51c0-0.281,0.228-0.51,0.51-0.51c0.281,0,0.51,0.228,0.51,0.51  C50.51,58.63,50.281,58.859,50,58.859z"/><path d="M34.387,77.649c-1.586,0-3.183-0.218-4.753-0.659c-0.973,0.803-2.098,1.457-3.351,1.913  c-4.51,1.642-9.385,0.253-12.394-3.126l0.001-0.001c-0.219-0.246-0.397-0.536-0.517-0.864c-0.508-1.396,0.212-2.939,1.607-3.447  c1.396-0.508,2.939,0.212,3.447,1.607c0.352,0.968,0.113,2.006-0.532,2.722l0.001,0c-0.43,0.479-0.897,0.912-1.391,1.302  c1.618,1.077,3.486,1.682,5.408,1.763c1.648-2.04,2.218-4.869,1.256-7.513c-1.461-4.015-5.901-6.085-9.915-4.624  c-4.015,1.461-6.085,5.901-4.624,9.915c0.423,1.163,1.098,2.161,1.938,2.96l0.001,0.005c4.456,4.259,11.106,5.883,17.29,3.632  c3.147-1.145,5.74-3.138,7.619-5.626C35.116,77.633,34.752,77.649,34.387,77.649z"/><path d="M94.342,78.734c-1.29,0.469-2.598,0.703-3.881,0.719c-0.093,0.108-0.759,0.777-0.816,0.827  c-1.02,0.942-2.129,1.746-3.301,2.406c2.839,0.166,5.876-0.586,8.655-2.49L94.342,78.734z"/><path d="M86.745,66.723c-4.015-1.461-8.454,0.609-9.915,4.624c-0.962,2.644-0.392,5.472,1.256,7.513  c1.922-0.082,3.79-0.686,5.408-1.763c-0.494-0.39-0.961-0.823-1.391-1.302l0.001,0c-0.645-0.715-0.884-1.754-0.532-2.722  c0.508-1.396,2.051-2.115,3.447-1.607c1.396,0.508,2.115,2.051,1.607,3.447c-0.12,0.328-0.298,0.618-0.517,0.864l0.001,0.001  c-3.009,3.379-7.883,4.767-12.394,3.126c-1.254-0.456-2.378-1.11-3.351-1.913c-1.57,0.441-3.167,0.659-4.753,0.659  c-0.365,0-0.729-0.016-1.092-0.039c1.878,2.488,4.472,4.48,7.619,5.626c6.184,2.251,12.834,0.627,17.29-3.632l0.001-0.005  c0.84-0.798,1.515-1.797,1.938-2.96C92.83,72.624,90.76,68.185,86.745,66.723z"/><path d="M9.54,79.451c-1.283-0.016-2.592-0.247-3.883-0.717L5,80.196c2.779,1.904,5.815,2.656,8.654,2.49  c-1.26-0.709-2.448-1.581-3.53-2.615C10.124,80.071,9.633,79.56,9.54,79.451z"/><text x="0" y="115" fill="#000000" font-size="5px" font-weight="bold" font-family="'Helvetica Neue', Helvetica, Arial-Unicode, Arial, Sans-serif">Created by Andrew McKinley</text><text x="0" y="120" fill="#000000" font-size="5px" font-weight="bold" font-family="'Helvetica Neue', Helvetica, Arial-Unicode, Arial, Sans-serif">from the Noun Project</text></svg>