<svg xmlns="http://www.w3.org/2000/svg" xmlns:xlink="http://www.w3.org/1999/xlink" version="1.1" x="0px" y="0px" viewBox="0 0 100 125" enable-background="new 0 0 100 100" xml:space="preserve"><g><path d="M77.528,91.746c0.001-0.015-0.005-0.03-0.005-0.046c-0.004-0.062-0.017-0.119-0.039-0.174   c-0.005-0.01-0.003-0.02-0.007-0.029l-3.633-7.114c-0.729-3.629-2.445-4.18-3.962-4.665c-0.858-0.275-1.67-0.536-2.365-1.327   l-3.806-9.016c-0.001-0.004-0.007-0.007-0.01-0.012c-0.028-0.064-0.073-0.12-0.129-0.166c-0.019-0.016-0.037-0.027-0.057-0.041   c-0.023-0.014-0.042-0.033-0.067-0.045c-0.029-0.012-0.061-0.012-0.09-0.018c-0.016-0.003-0.026-0.015-0.041-0.018   c-0.908-0.116-3.72-0.473-4.386-0.531c-0.164-0.092-0.609-0.364-1.041-0.629c-1.067-0.656-2.636-1.617-3.952-2.316l9.65-27.961   c0.007-0.02,0.004-0.042,0.009-0.063c0.007-0.036,0.016-0.071,0.015-0.109c-0.001-0.031-0.009-0.06-0.017-0.091   c-0.005-0.025-0.002-0.051-0.012-0.076c-0.004-0.009-0.011-0.015-0.015-0.024c-0.004-0.008-0.003-0.017-0.008-0.025l-1.081-2.109   l5.605,1.504c0.059,0.146,0.116,0.293,0.196,0.432c0.433,0.75,1.132,1.286,1.968,1.509c0.274,0.074,0.556,0.111,0.838,0.111   c1.462,0,2.747-0.988,3.125-2.4c0.224-0.835,0.109-1.708-0.322-2.457c-0.432-0.748-1.13-1.284-1.966-1.508   c-0.275-0.074-0.557-0.111-0.839-0.111c-0.752,0-1.453,0.264-2.013,0.709l-6.396-1.713l-0.603-2.249l1.567-0.96   c0.189-0.116,0.278-0.342,0.218-0.555c-0.643-2.299-0.478-5.098,0.517-8.808c0.962-3.593,2.176-6.049,3.802-7.719   c0.028,0.001,0.056,0.011,0.084,0.011c0.706,0,1.326-0.475,1.507-1.157c0.108-0.404,0.051-0.825-0.158-1.187   c-0.209-0.36-0.545-0.616-0.943-0.722l-1.524-0.409c0.053-1.084-0.652-2.099-1.739-2.391c-1.073-0.286-2.202,0.255-2.698,1.202   l-1.528-0.41c-0.817-0.22-1.69,0.293-1.909,1.104c-0.108,0.402-0.052,0.823,0.157,1.184c0.155,0.268,0.38,0.478,0.651,0.612   c0.569,2.255,0.392,4.986-0.57,8.577c-0.993,3.709-2.25,6.215-3.956,7.886c-0.162,0.158-0.195,0.406-0.083,0.602l0.944,1.631   l-1.64,1.637l-6.13-1.642c-0.058-0.147-0.116-0.294-0.197-0.434c-0.432-0.749-1.13-1.285-1.965-1.508   c-0.275-0.074-0.558-0.111-0.84-0.111c-1.459,0-2.743,0.987-3.124,2.4c-0.462,1.724,0.565,3.502,2.29,3.965   c0.274,0.074,0.556,0.111,0.84,0.111c0.75,0,1.453-0.264,2.01-0.709l5.319,1.424l-1.987,1.284c-0.008,0.005-0.012,0.014-0.02,0.019   c-0.007,0.005-0.016,0.006-0.023,0.012c-0.019,0.015-0.03,0.037-0.045,0.054c-0.022,0.025-0.045,0.048-0.063,0.078   c-0.019,0.03-0.028,0.062-0.04,0.095c-0.008,0.022-0.022,0.041-0.026,0.064l-6.03,31.138l-5.3,2.124   c-1.147,0.142-2.952-0.417-4.7-0.96c-2.181-0.677-4.067-1.263-5.065-0.656c-1.415,0.861-1.76,2.989-1.988,4.396   c-0.05,0.313-0.093,0.58-0.142,0.779l-1.554,3.815c-0.023,0.058-0.036,0.122-0.036,0.187v3.762L22.5,88.016   c-0.058,0.153-0.027,0.31,0.054,0.438c0.007,0.012,0.009,0.03,0.017,0.042c0.984,1.596,2.002,3.245,1.479,5.656   c-0.018,0.082-0.009,0.159,0.011,0.235c-0.01,0.039-0.023,0.076-0.023,0.118c0,0.274,0.222,0.495,0.495,0.495h50.845   c0.175,0,0.336-0.092,0.426-0.242l1.657-2.784c0.003-0.003,0.002-0.01,0.005-0.014c0.034-0.061,0.059-0.127,0.064-0.2   C77.53,91.755,77.528,91.752,77.528,91.746z M46.704,76.94l9.745-36.371l5.859-2.247L48.78,77.52   C48.075,77.39,47.401,77.177,46.704,76.94z M51.543,35.436l3.948,4.877l-9.729,36.312c-0.703-0.229-1.406-0.433-2.087-0.564   L51.543,35.436z M56.924,28.354l0.925,1.604l-2.777,0.247L56.924,28.354z M61.191,29.496l0.679,2.532l-2.285-1.605L61.191,29.496z    M61.156,34.061c-0.001,0.001-0.003,0.002-0.004,0.003l-1.618,1.618l-0.928-1.604l2.78-0.247L61.156,34.061z M58.528,30.891   l2.779,1.952l-3.382,0.301l-2.777-1.952L58.528,30.891z M57.608,34.329l0.792,1.372l-2.163-0.579L57.608,34.329z M56.87,33.612   l-1.604,0.927l-0.679-2.532L56.87,33.612z M54.477,35.419c0.003,0.015,0.017,0.024,0.021,0.038c0.01,0.027,0.013,0.056,0.027,0.083   c0.016,0.026,0.039,0.042,0.058,0.065c0.016,0.018,0.028,0.035,0.046,0.051c0.059,0.053,0.125,0.096,0.2,0.115l4.47,1.195   c0.042,0.012,0.085,0.017,0.127,0.017c0.001,0,0.002,0,0.003,0c0.002,0,0.005-0.002,0.008-0.002   c0.075-0.001,0.146-0.024,0.212-0.058c0.01-0.004,0.018-0.002,0.027-0.007c0.019-0.011,0.03-0.029,0.047-0.042   c0.018-0.013,0.039-0.02,0.055-0.036l1.627-1.625l1.025,2.002l-6.236,2.393l-4.203-5.192l1.891-1.221L54.477,35.419z    M71.669,33.292c0.58,0.156,1.065,0.528,1.365,1.048s0.379,1.125,0.224,1.705c-0.313,1.17-1.564,1.903-2.751,1.589   c-0.58-0.155-1.065-0.527-1.366-1.048c-0.301-0.52-0.38-1.125-0.225-1.705c0.264-0.981,1.157-1.666,2.171-1.666   C71.281,33.215,71.479,33.241,71.669,33.292z M68.342,33.764c-0.164,0.264-0.298,0.55-0.382,0.861   c-0.083,0.311-0.104,0.626-0.095,0.939l-5.371-1.441l0.557-0.556c0.004-0.004,0.004-0.011,0.009-0.016   c0.012-0.013,0.022-0.025,0.033-0.039c0.003-0.005,0.01-0.006,0.013-0.011c0.014-0.019,0.017-0.041,0.026-0.061   c0.016-0.029,0.033-0.056,0.042-0.087c0.001-0.006,0.003-0.012,0.005-0.018c0.008-0.032,0.006-0.062,0.007-0.095   c0.002-0.023,0.011-0.044,0.008-0.068c-0.001-0.007-0.004-0.012-0.006-0.019c-0.002-0.017-0.005-0.031-0.009-0.047   c-0.002-0.006,0.002-0.012,0-0.018l-0.204-0.763L68.342,33.764z M65.148,6.033c0.558,0.149,0.941,0.626,1.002,1.168l-2.454-0.657   C64.016,6.109,64.599,5.885,65.148,6.033z M60.226,7.23c0.066-0.25,0.294-0.424,0.553-0.424c0.049,0,0.098,0.007,0.146,0.02   l1.947,0.522l0.001,0l3.591,0.963c0.001,0,0.002,0,0.003,0l1.948,0.522c0.145,0.038,0.266,0.131,0.343,0.262   c0.076,0.132,0.097,0.287,0.058,0.435c-0.078,0.296-0.396,0.483-0.698,0.402l-7.487-2.007c-0.146-0.039-0.269-0.133-0.346-0.265   C60.207,7.528,60.186,7.375,60.226,7.23z M60.465,17.602c0.929-3.47,1.154-6.201,0.702-8.507l5.898,1.58   c-1.545,1.774-2.715,4.251-3.645,7.717c-0.991,3.701-1.188,6.565-0.606,8.968l-1.559,0.956l0,0l-2.408,1.39L57.46,27.3v-0.001   l-0.945-1.635C58.215,23.872,59.475,21.296,60.465,17.602z M53.964,29.911l-0.558,0.557c-0.004,0.004-0.004,0.011-0.009,0.016   c-0.011,0.012-0.021,0.023-0.031,0.036c-0.004,0.005-0.011,0.008-0.015,0.014c-0.015,0.02-0.017,0.042-0.027,0.063   c-0.015,0.028-0.032,0.055-0.041,0.086c-0.001,0.006-0.003,0.011-0.005,0.018c-0.008,0.032-0.006,0.062-0.007,0.095   c-0.002,0.023-0.011,0.044-0.008,0.068c0.001,0.007,0.004,0.013,0.006,0.02c0.002,0.016,0.005,0.03,0.009,0.046   c0.002,0.005-0.002,0.011,0,0.018l0.204,0.762l-5.092-1.363c0.164-0.264,0.297-0.55,0.381-0.861   c0.083-0.311,0.104-0.625,0.095-0.938L53.964,29.911z M45.063,30.817c-1.196-0.322-1.91-1.556-1.59-2.751   c0.264-0.981,1.156-1.667,2.168-1.667c0.196,0,0.392,0.026,0.583,0.078c0.58,0.155,1.064,0.527,1.366,1.047   c0.3,0.52,0.38,1.125,0.225,1.705C47.502,30.398,46.246,31.133,45.063,30.817z M23.647,88.361l2.785-1.635   c0.909,1.984,2.033,2.037,3.031,2.083c0.859,0.041,1.671,0.078,2.615,1.362c0.162,0.22,0.472,0.268,0.691,0.105   c0.222-0.162,0.268-0.471,0.107-0.69c-1.224-1.667-2.413-1.721-3.368-1.765c-0.999-0.047-1.659-0.077-2.374-1.982   c-0.05-0.136-0.16-0.243-0.298-0.292c-0.137-0.051-0.29-0.035-0.416,0.039l-2.505,1.471l2.816-7.52   c0.147,0.039,0.293,0.063,0.441,0.063c0.611,0,1.244-0.287,1.899-0.582c1.16-0.527,2.478-1.124,4.173-0.487   c0.169,0.063,0.36,0.028,0.498-0.091c0.137-0.12,0.198-0.304,0.158-0.48l-1.698-7.632l1.123-0.942   c0.21-0.176,0.237-0.489,0.061-0.698c-0.176-0.211-0.49-0.237-0.697-0.062l-1.354,1.136c-0.142,0.119-0.205,0.307-0.164,0.487   l1.582,7.115c-1.687-0.336-3.054,0.283-4.09,0.75c-0.8,0.362-1.314,0.557-1.718,0.436v-3.426l1.237-3.035l0.932,1.028   c0.183,0.203,0.496,0.217,0.698,0.035c0.203-0.184,0.218-0.497,0.034-0.7L28.56,71.03c0.035-0.181,0.07-0.392,0.107-0.625   c0.199-1.229,0.499-3.085,1.525-3.709c0.613-0.378,2.55,0.225,4.258,0.756c1.57,0.487,3.187,0.99,4.471,1.026l-0.515,2.168   l-3.164,1.965c-0.114,0.071-0.194,0.185-0.224,0.316c-0.028,0.131-0.002,0.269,0.074,0.38c1.495,2.225,1.841,4.616,1.003,6.91   c-0.06,0.161-0.031,0.341,0.075,0.475c0.094,0.122,0.238,0.19,0.391,0.19c0.018,0,0.035-0.001,0.053-0.002l1.973-0.214   c0.272-0.03,0.469-0.273,0.439-0.546c-0.029-0.272-0.278-0.469-0.546-0.438l-1.221,0.132c0.593-2.22,0.227-4.487-1.071-6.626   l2.913-1.808c0.11-0.069,0.189-0.179,0.221-0.307l0.656-2.755l4.541-1.819l-1.827,9.432c-0.837-0.058-1.614,0.042-2.27,0.433   c-0.235,0.139-0.311,0.443-0.171,0.678c0.137,0.234,0.44,0.313,0.679,0.172c1.171-0.698,3.203-0.1,5.018,0.513l0.231,0.079   c1.242,0.425,2.441,0.833,3.899,0.833c0.787,0,1.649-0.118,2.635-0.418c0.261-0.079,0.408-0.355,0.329-0.617   c-0.08-0.262-0.354-0.408-0.618-0.331c-1.003,0.306-1.854,0.397-2.637,0.362l3.826-11.086c1.26,0.677,2.742,1.585,3.762,2.211   c0.38,0.234,0.631,0.387,0.817,0.498l-1.911,4.964c-0.021,0.056-0.033,0.117-0.033,0.178v10.744   c-0.614,1.74-2.415,1.692-5.088,1.413c-2.201-0.234-4.476-0.473-5.278,1.441c-0.07,0.167-0.044,0.36,0.07,0.502l2.834,3.532   c0.171,0.212,0.484,0.249,0.696,0.076c0.212-0.171,0.247-0.483,0.076-0.697l-2.632-3.279c0.586-0.892,1.986-0.817,4.13-0.591   c2.182,0.229,4.618,0.485,5.771-1.312l1.44,2.05l-0.966,3.304c-0.049,0.169-0.004,0.353,0.117,0.479l1.854,1.948H34.869   l2.449-6.335c0.056-0.143,0.042-0.304-0.04-0.436c-0.08-0.132-0.217-0.218-0.371-0.234c-2.03-0.209-4.376-1.847-5.045-5.034   c-0.057-0.267-0.321-0.433-0.585-0.381c-0.268,0.056-0.438,0.317-0.383,0.586c0.618,2.944,2.699,5.165,5.28,5.714L33.81,94.01   h-8.741C25.464,91.631,24.55,89.846,23.647,88.361z M75.097,94.01H60.639l-2.307-2.423l0.952-3.258   c0.042-0.144,0.016-0.301-0.07-0.424l-1.977-2.814V74.492l1.899-4.931c0.663,0.073,2.167,0.26,3.408,0.417l-1.211,2.862   c-0.035,0.083-0.047,0.174-0.033,0.264l0.732,5.034c0.035,0.246,0.247,0.424,0.489,0.424c0.023,0,0.048-0.002,0.071-0.005   c0.271-0.039,0.458-0.29,0.419-0.561L62.3,73.098l0.955-2.257l3.304,7.824l-2.107,4.909c-1.119,0.083-1.662-0.799-2.416-2.214   c-0.625-1.172-1.271-2.382-2.545-2.733c-0.27-0.072-0.536,0.083-0.609,0.346s0.082,0.536,0.346,0.608   c0.864,0.238,1.384,1.213,1.935,2.246c0.694,1.301,1.472,2.758,3.122,2.758c0.004,0,0.009-0.002,0.013-0.002v3.434l-2.158,2.673   c-0.172,0.213-0.139,0.526,0.074,0.696c0.092,0.075,0.201,0.111,0.312,0.111c0.144,0,0.287-0.062,0.385-0.184l2.268-2.812   c0.071-0.088,0.109-0.197,0.109-0.311v-4.05l1.979-4.611c0.755,0.633,1.575,0.895,2.317,1.132c1.409,0.45,2.63,0.848,3.256,3.745   c-0.451,0.492-0.704,1.167-0.939,1.833c-0.265,0.756-0.514,1.468-0.977,1.566c-0.267,0.055-0.438,0.318-0.381,0.587   c0.049,0.232,0.255,0.39,0.483,0.39c0.034,0,0.068-0.001,0.104-0.009c1.006-0.212,1.377-1.272,1.705-2.208   c0.137-0.389,0.28-0.775,0.454-1.099l2.908,5.694l-8.569-0.655c-0.265-0.016-0.511,0.183-0.531,0.456   c-0.021,0.272,0.184,0.511,0.456,0.533l8.652,0.66L75.097,94.01z"/><path d="M70.683,36.977c0.132,0.035,0.269,0.053,0.404,0.053c0.708,0,1.33-0.478,1.513-1.162c0.108-0.405,0.053-0.827-0.154-1.188   c-0.209-0.363-0.547-0.622-0.95-0.729c-0.821-0.222-1.7,0.29-1.921,1.107C69.352,35.893,69.849,36.754,70.683,36.977z    M70.53,35.315c0.067-0.252,0.297-0.429,0.557-0.429c0.05,0,0.102,0.007,0.152,0.021c0.147,0.04,0.271,0.134,0.348,0.267   c0.076,0.133,0.097,0.289,0.057,0.438c-0.081,0.3-0.406,0.486-0.706,0.407C70.631,35.938,70.448,35.621,70.53,35.315z"/><path d="M47.002,27.863c-0.209-0.363-0.546-0.622-0.954-0.731c-0.818-0.218-1.697,0.294-1.917,1.11   c-0.223,0.834,0.276,1.694,1.108,1.917c0.133,0.036,0.271,0.054,0.407,0.054c0.708,0,1.329-0.478,1.509-1.159   C47.265,28.648,47.211,28.226,47.002,27.863z M46.2,28.797c-0.081,0.299-0.394,0.486-0.705,0.405   c-0.306-0.082-0.489-0.398-0.408-0.703c0.068-0.253,0.298-0.429,0.559-0.429c0.05,0,0.1,0.007,0.147,0.02   c0.148,0.04,0.272,0.135,0.35,0.268C46.22,28.49,46.24,28.646,46.2,28.797z"/></g><text x="0" y="115" fill="#000000" font-size="5px" font-weight="bold" font-family="'Helvetica Neue', Helvetica, Arial-Unicode, Arial, Sans-serif">Created by Daniel Hammer</text><text x="0" y="120" fill="#000000" font-size="5px" font-weight="bold" font-family="'Helvetica Neue', Helvetica, Arial-Unicode, Arial, Sans-serif">from the Noun Project</text></svg>