<svg xmlns="http://www.w3.org/2000/svg" xmlns:xlink="http://www.w3.org/1999/xlink" version="1.2" baseProfile="tiny" x="0px" y="0px" viewBox="0 0 100 125" xml:space="preserve"><path d="M59.589,7.721l-0.211,0.466l-2.446,5.392l1.525-0.466l0,11.809v0.039v2.225c-0.002,1.24-0.497,2.239-1.302,2.945  c-0.806,0.704-1.93,1.108-3.184,1.108h-3.415V11.265l2.055,0.91l-3.613-7.943l-3.447,7.936l2.041-0.903v19.974h-3.305  c-1.254,0-2.378-0.404-3.184-1.108c-0.806-0.706-1.301-1.705-1.302-2.945v-2.225v-0.039V13.114l1.525,0.466l-2.657-5.858  l-2.773,5.838l1.612-0.427v11.79v0.039v2.131l0,0.011c0,1.714,0.504,3.34,1.604,4.546c1.1,1.207,2.79,1.973,5.089,1.995l0.001,0  h3.39v2.592h-0.101c-0.61,0-1.104,0.494-1.105,1.105c0,0.354,0.169,0.667,0.428,0.871c-0.035,0.027-0.072,0.053-0.103,0.084  c-0.2,0.197-0.325,0.474-0.324,0.779c0,0.61,0.494,1.104,1.105,1.105h0.2v49.394c-0.273,0.136-0.462,0.415-0.463,0.741  c0,0.381,0.258,0.699,0.609,0.797c-0.007,0.05-0.015,0.1-0.015,0.153c0,0.7,0.567,1.266,1.266,1.266  c0.699,0,1.266-0.567,1.266-1.266c0-0.053-0.008-0.103-0.015-0.153c0.35-0.098,0.609-0.416,0.609-0.797  c0-0.293-0.154-0.548-0.382-0.695V40.18h0.2c0.61,0,1.104-0.494,1.104-1.105c0-0.304-0.124-0.581-0.324-0.779  c-0.032-0.031-0.068-0.057-0.103-0.084c0.259-0.204,0.427-0.518,0.428-0.871c0-0.61-0.494-1.104-1.104-1.105h-0.211v-2.592h3.501  l0.001,0c2.299-0.022,3.989-0.788,5.089-1.995c1.101-1.206,1.605-2.832,1.604-4.546v-0.008v-2.134v-0.039v-11.79l1.612,0.427  L59.589,7.721z M47.703,90.314c0-0.169,0.119-0.31,0.278-0.346l0.021-0.005h2.19l0.052,0.02c0.135,0.052,0.23,0.18,0.229,0.331  c0,0.169-0.118,0.31-0.276,0.346h-2.218C47.821,90.624,47.703,90.483,47.703,90.314z M50.092,89.607h-1.926V40.173h1.926V89.607z   M49.088,92.055c-0.437-0.001-0.791-0.354-0.792-0.791c0-0.084,0.017-0.166,0.045-0.247h1.493c0.028,0.081,0.045,0.163,0.045,0.247  C49.879,91.701,49.525,92.055,49.088,92.055z M50.766,39.705h-0.318v-0.007h-2.738v0.007h-0.22c-0.348-0.001-0.629-0.282-0.63-0.63  c0-0.347,0.279-0.622,0.63-0.623v0h3.275v0c0.35,0.001,0.629,0.277,0.63,0.623C51.395,39.423,51.114,39.704,50.766,39.705z   M50.766,36.711c0.348,0.001,0.629,0.282,0.63,0.63c0,0.175-0.07,0.333-0.185,0.449c-0.114,0.115-0.268,0.185-0.44,0.186h-3.284  c-0.172-0.001-0.326-0.071-0.44-0.186c-0.115-0.116-0.185-0.275-0.185-0.449c0.001-0.348,0.282-0.629,0.63-0.63h0.576v-0.004h2.013  v0.004H50.766z M60.275,12.515v12.408v0.039v2.13v0.002v0.01c0,1.624-0.476,3.126-1.48,4.226c-1.005,1.099-2.543,1.816-4.743,1.84  H50.08v3.063h-2.013V33.17h-3.862c-2.199-0.024-3.738-0.742-4.743-1.84c-1.004-1.1-1.48-2.602-1.48-4.226l0-0.009v-2.133v-0.039  V12.515l-1.219,0.323l1.895-3.989l1.8,3.969l-1.133-0.346v12.45v0.039v2.225c-0.002,1.369,0.561,2.515,1.465,3.303  c0.904,0.789,2.142,1.225,3.497,1.225h3.78V10.536l-1.596,0.706l2.537-5.841l2.654,5.835l-1.581-0.7v21.178h3.89  c1.355,0,2.593-0.437,3.497-1.225c0.904-0.788,1.466-1.933,1.465-3.303v-2.225v-0.039v-12.45l-1.133,0.346l1.8-3.969l1.895,3.989  L60.275,12.515z"/><text x="0" y="115" fill="#000000" font-size="5px" font-weight="bold" font-family="'Helvetica Neue', Helvetica, Arial-Unicode, Arial, Sans-serif">Created by mangin maëlys</text><text x="0" y="120" fill="#000000" font-size="5px" font-weight="bold" font-family="'Helvetica Neue', Helvetica, Arial-Unicode, Arial, Sans-serif">from the Noun Project</text></svg>